<?xml version="1.0" standalone="no"?>
<!DOCTYPE svg PUBLIC "-//W3C//DTD SVG 1.1//EN" "http://www.w3.org/Graphics/SVG/1.1/DTD/svg11.dtd" >
<svg xmlns="http://www.w3.org/2000/svg" xmlns:xlink="http://www.w3.org/1999/xlink" version="1.1">
<metadata>
Created by FontForge 20170731 at Mon Sep 10 15:37:44 2018
 By Aleksey,,,
Copyright (c) 2018 by Seventh Imperium Type Foundry. All rights reserved.
</metadata>
<defs>
<font id="Clarize-Light" horiz-adv-x="675" >
  <font-face 
    font-family="Clarize-Light"
    font-weight="300"
    font-stretch="normal"
    units-per-em="1000"
    panose-1="2 0 0 0 0 0 0 0 0 0"
    ascent="750"
    descent="-250"
    x-height="453"
    cap-height="700"
    bbox="-187 -291 1072 947"
    underline-thickness="50"
    underline-position="-200"
    unicode-range="U+0020-FB06"
  />
<missing-glyph horiz-adv-x="350" 
 />
    <glyph glyph-name="uniE000" unicode="ct" horiz-adv-x="641" 
d="M239 453q12 -1 24.5 -2t25.5 -4q-22 22 -38.5 50t-25 58.5t-8.5 63.5t11 66q12 37 37 65t61 42q38 16 74 10.5t64 -26.5t45 -55t17 -74v-194h67q5 0 5 -3.5t-5 -3.5h-67v-358q0 -22 7.5 -44.5t27.5 -30.5q8 -3 21 -0.5t21 11.5q9 8 13.5 19.5t7 24t3.5 25t2 21.5v47
q0 5 3 5t3 -5q1 -15 0 -38t-4 -44q-2 -17 -6.5 -32.5t-13 -26.5t-21.5 -17t-32 -4q-44 4 -66 31t-24 68v348h-83q-5 0 -4.5 3.5t4.5 3.5h34q55 5 77.5 54t22.5 140q0 36 -15 68.5t-41 53.5t-60.5 27t-74.5 -9q-35 -14 -58.5 -41.5t-35.5 -62.5q-10 -30 -10.5 -63t8.5 -65
t26.5 -61t43.5 -51q17 -5 35 -15q30 -18 39 -47.5t0 -51.5q-10 -21 -29 -27q-17 -6 -30.5 -1t-21 15.5t-8 23t7.5 22.5q2 2 5.5 0.5t6.5 -2.5q15 -1 23 5q6 4 7 12t-0.5 16.5t-6 17t-10.5 13.5q-15 15 -38 20t-43 4q-35 -1 -59.5 -13t-42 -31.5t-27.5 -45t-15 -54.5
q-3 -17 -4 -41t-1 -49t2 -48.5t7 -39.5q12 -46 42 -80.5t82 -37.5q46 -2 89.5 16t76.5 60q3 3 5 2q1 -3 -1 -5q-38 -50 -82.5 -67.5t-104.5 -13.5q-45 3 -78 20.5t-54.5 46.5t-32 68.5t-10.5 85.5q0 115 54.5 174.5t153.5 57.5z" />
    <glyph glyph-name="uniE001" unicode="fb" horiz-adv-x="713" 
d="M292 7v548q0 16 0.5 39t-3.5 44.5t-14.5 37.5t-32.5 17q-38 1 -60 -22t-30.5 -56.5t-5.5 -71t15 -66.5q2 -4 2 -9v-15h105h6t3 -3t-3 -3.5t-6 -0.5h-105v-440zM351 311q5 28 18 53.5t31.5 45t42 31.5t50.5 12q57 0 95.5 -18t61 -50t31.5 -75t7 -93q0 -50 -10 -89.5
t-32 -67.5t-57 -43.5t-85 -16.5q-30 0 -56 10.5t-46 29t-33 43t-18 52.5q-1 -30 -1 -57v-59q0 -12 -4 -15.5t-16 -3.5h-315q-3 0 -5 2q-2 4 5 4h90v440h-89q-6 0 -6 3.5t5 3.5h90v36q-1 28 4 64t19.5 68t42 54t71.5 22q33 0 54 -12.5t33 -33t16.5 -46.5t4.5 -53zM504 10
q40 0 64.5 18t37.5 46t17.5 62.5t4.5 67.5v56q0 35 -4.5 68t-19 58.5t-40.5 41t-69 15.5q-34 0 -60.5 -15.5t-44.5 -40.5t-28 -56t-11 -61v-105q3 -30 14 -57.5t30 -49.5t46.5 -35t62.5 -13z" />
    <glyph glyph-name="uniE002" unicode="fh" horiz-adv-x="802" 
d="M800 163q1 -15 0.5 -38t-3.5 -45q-3 -17 -7.5 -32t-12.5 -26t-21 -17t-33 -4q-44 3 -65.5 30.5t-23.5 68.5l-1 210q0 60 -34.5 96t-94.5 34q-28 0 -53.5 -14t-46 -36t-35 -49.5t-19.5 -54.5v-280h49q5 0 5 -3q1 -3 -5 -3h-384q-3 0 -5 2q-2 4 5 4h90v440h-91q-5 1 -4.5 4
t5.5 3h90v36q-1 28 4 64t19.5 68t42 54t71.5 22q33 0 54 -12.5t33 -33t16.5 -46.5t4.5 -53v-245q6 25 21 50t35.5 45.5t45.5 33.5t53 15q33 2 66.5 -5t60.5 -24t43.5 -44.5t16.5 -66.5v-221q0 -22 7.5 -44.5t26.5 -30.5q9 -3 21.5 -0.5t20.5 10.5q9 9 14 20.5t7.5 24
t3.5 24.5t1 21q1 14 0.5 26t-0.5 22q0 5 3 5t3 -5zM292 555q0 16 0.5 39t-3.5 44.5t-14.5 37.5t-32.5 17q-38 1 -60 -22t-30.5 -56.5t-5.5 -71t15 -66.5q2 -4 2 -9v-15h105h6t3 -3q0 -4 -4 -4h-110v-440h129v549z" />
    <glyph glyph-name="uniE003" unicode="fk" horiz-adv-x="788" 
d="M350 6h49q5 0 5.5 -3t-5.5 -3h-384q-3 0 -5 2q-2 4 5 4h90v440h-91q-5 2 -4.5 4.5t5.5 2.5h90v36q-1 28 4 64t19.5 68t42 54t71.5 22q33 0 54 -12t33 -32.5t16.5 -46.5t4.5 -53q1 -95 0.5 -188.5t-0.5 -188.5l253 236q12 11 12.5 22.5t-27.5 11.5h-103q-5 0 -5 3.5t6 3.5
h247q6 0 6 -3.5t-5 -3.5h-63q-17 0 -31 -12.5t-24 -22.5l-154 -144q33 10 70.5 10t70 -12.5t53.5 -39t21 -69.5v-67q0 -22 7.5 -44.5t27.5 -30.5q8 -3 21 -0.5t21 10.5q8 9 13 20.5t7.5 24t3.5 24.5t1 21q1 14 0.5 25.5t-0.5 21.5q0 5 3.5 5t3.5 -5v-35t-3 -40.5t-8.5 -39
t-15.5 -29.5q-8 -9 -20.5 -14t-30.5 -3q-43 4 -65 27.5t-24 64.5v56q2 46 -13.5 73t-41 38t-57.5 8t-63 -16l-94 -88v-157zM163 6h129v549q0 16 0.5 39t-3.5 45t-14.5 37.5t-32.5 16.5q-38 1 -60 -22t-30.5 -56.5t-5.5 -71t15 -66.5q2 -4 2 -9v-15h105h6t3 -3q0 -2 -4 -4
h-110v-440z" />
    <glyph glyph-name="uniE004" unicode="ft" horiz-adv-x="466" 
d="M250 590q1 0 1.5 -0.5t2.5 -0.5q31 -4 44 11.5t10.5 35.5t-19.5 38t-47 19q-38 1 -60 -22t-30.5 -56.5t-5.5 -71t15 -66.5q2 -4 2 -9v-15h81q55 6 78 54t23 139v20q0 3 3 3q4 0 4 -3v-213h66q5 0 5 -3.5t-5 -3.5h-66v-358q0 -22 7.5 -44.5t26.5 -30.5q9 -4 21.5 -1
t20.5 11q9 9 14 20.5t7.5 24t3.5 24.5t1 21q1 14 0.5 26t-0.5 22q0 5 3 5t3 -5q1 -15 0 -38t-3 -45q-3 -17 -7.5 -32t-12.5 -26t-21 -17t-33 -4q-44 3 -65.5 30.5t-24.5 68.5v348h-130v-440h49q6 0 6 -3q0 -2 -0.5 -2.5t-5.5 -0.5h-197q-3 0 -5 2q-2 4 5 4h90v440h-89
q-6 0 -6 3.5t5 3.5h90v36q-1 28 4 64t19.5 68t42 54t71.5 22q19 0 34.5 -9.5t26 -25t15 -36t0.5 -41.5q-3 -17 -15 -32.5t-37 -12.5q-16 2 -22.5 10t-7 17t4 16t9.5 7z" />
    <glyph glyph-name="uniFB00" unicode="ff" horiz-adv-x="494" 
d="M295 453v35q-1 28 3.5 63.5t18.5 67.5q-6 26 -25.5 48.5t-48.5 24.5q-33 1 -49.5 -15.5t-23.5 -41.5t-7 -54v-51q1 -22 0.5 -45.5t-0.5 -31.5h132zM328 639q16 25 41 41t62 16q19 0 36.5 -8.5t30 -23t18.5 -34t2 -40.5q-3 -17 -15 -32.5t-38 -12.5q-16 2 -22.5 10t-7 17
t4 16t9.5 7q1 0 1.5 -0.5t2.5 -0.5q31 -3 43 11.5t7.5 33.5t-23.5 36t-49 17q-38 1 -59.5 -22t-30.5 -56.5t-6 -71t15 -66.5q2 -4 2 -9v-14h105h6.5t3.5 -3t-3.5 -3.5t-6.5 -0.5h-105v-441h49q6 0 6 -3q0 -2 -0.5 -2.5t-5.5 -0.5h-169q-3 0 -5 2q-2 4 5 4h63v441h-132v-441
h51q6 0 6 -3q0 -2 -0.5 -2.5t-5.5 -0.5h-199q-3 0 -5 2q-2 4 5 4h90v441h-89q-6 0 -6 3.5t5 3.5h90v45q-1 28 4 62.5t19.5 64.5t42 50.5t71.5 20.5q25 0 50 -17t36 -40z" />
    <glyph glyph-name="uniFB01" unicode="fi" horiz-adv-x="461" 
d="M272 596q1 0 1.5 -0.5t2.5 -0.5q31 -3 43 11.5t7.5 33.5t-23.5 36t-49 17q-38 1 -61.5 -22t-34.5 -56.5t-10 -71t13 -66.5q2 -4 2 -9v-15h163q20 0 22.5 -8t2.5 -19v-338q0 -22 7.5 -44.5t26.5 -30.5q9 -3 21.5 -0.5t21.5 10.5q8 9 13 20.5t7.5 24t3.5 24.5t1 21
q1 14 0.5 26t-0.5 22q0 5 3 5t3 -5q1 -15 0.5 -38t-3.5 -45q-3 -17 -7.5 -32t-12.5 -26t-21 -17t-33 -4q-44 3 -65.5 30.5t-23.5 68.5q-1 86 -1 173.5v174.5h-129v-440h49q6 0 6 -3q0 -2 -0.5 -2.5t-5.5 -0.5h-197q-3 0 -5 2q-2 4 5 4h90v440h-89q-6 0 -6 3.5t5 3.5h90v36
q-1 28 5.5 64t24 68t46.5 54t73 22q19 0 36.5 -8.5t29.5 -23t18 -34t2 -40.5q-3 -17 -15 -32.5t-37 -12.5q-16 2 -22.5 10t-7 17t4 16t9.5 7z" />
    <glyph glyph-name="uniFB02" unicode="fl" horiz-adv-x="464" 
d="M242 693q-38 1 -60 -22t-30.5 -56.5t-5.5 -71t15 -66.5q2 -4 2 -9v-15h105h6t3 -3t-3 -3.5t-6 -0.5h-105v-440h49q6 0 6 -3q0 -2 -0.5 -2.5t-5.5 -0.5h-197q-3 0 -5 2q-2 4 5 4h90v440h-89q-6 0 -6 3.5t5 3.5h90v36q-1 28 4 64t19.5 68t42 54t71.5 22q33 0 54 -12.5
t33 -33t16.5 -46t4.5 -52.5v-464q0 -22 7.5 -44t27.5 -30q8 -4 20.5 -1t21.5 11q17 17 20.5 44t4.5 46q1 14 0.5 26t-0.5 22q0 5 3 5t4 -5q0 -15 -0.5 -38.5t-3.5 -44.5q-3 -17 -7.5 -32t-12.5 -26t-21 -17t-33 -4q-44 3 -65.5 30.5t-23.5 68.5v455q0 16 0.5 39t-3.5 45
t-14.5 37.5t-32.5 16.5z" />
    <glyph glyph-name="uniFB06" unicode="st" horiz-adv-x="640" 
d="M36 -3q-4 0 -4 6v156q0 6 3 6q4 0 4 -6q0 -42 20 -79t58 -56q37 -18 77.5 -19.5t76.5 15.5q28 13 41.5 41t3.5 57q-9 25 -34.5 44.5t-58.5 35.5t-69 31.5t-65 33.5t-47 40.5t-16 53.5q2 27 19 45.5t42 29.5t54 16t55 5q12 -1 34 -3t48 -11q-29 31 -45.5 74.5t-18.5 86.5
q-1 36 9.5 72.5t31 66.5t50.5 50.5t69 24.5q26 3 51 -3.5t46 -20.5t35.5 -35t20.5 -47q2 -11 3 -28.5t1 -30.5v-196h66q5 0 5 -3.5t-5 -3.5h-66v-357q0 -22 7.5 -44.5t26.5 -30.5q9 -3 21.5 -0.5t20.5 11.5q9 8 13.5 19.5t7 24t3.5 25t2 21.5q1 13 0.5 25.5t-0.5 21.5
q0 5 3 5.5t3 -4.5q1 -16 0 -39t-4 -44q-2 -17 -6.5 -32.5t-12.5 -26.5t-21 -17t-33 -4q-44 4 -65.5 31t-24.5 68v347h-83q-5 0 -4.5 3.5t4.5 3.5h34q55 5 78 54.5t23 140.5q0 17 0.5 29t-3.5 30q-6 25 -20 45t-34 33t-44 19t-49 4q-38 -4 -67 -24t-48.5 -49.5t-29.5 -65
t-9 -69.5q2 -45 20.5 -91t52.5 -76q21 -9 39 -24q3 -3 6 -2t3 6v46q0 5 4 5q3 0 3 -6v-157q0 -6 -3 -6q-4 0 -4 6q0 41 -12.5 68.5t-33.5 44t-47 24t-52 8.5q-21 1 -50.5 -6.5t-49.5 -23.5q-26 -21 -22 -46.5t28 -43.5q20 -15 48 -28.5t58.5 -28t60 -30t53.5 -33t38.5 -38.5
t14.5 -46q0 -34 -17.5 -58t-43 -39t-55.5 -21.5t-56 -6.5q-41 0 -79 14t-70 37q-6 5 -10.5 3t-4.5 -10v-40v-3t-3 -1z" />
    <glyph glyph-name=".notdef" horiz-adv-x="350" 
 />
    <glyph glyph-name="glyph1" horiz-adv-x="0" 
 />
    <glyph glyph-name="glyph2" horiz-adv-x="350" 
 />
    <glyph glyph-name="space" unicode=" " horiz-adv-x="350" 
 />
    <glyph glyph-name="space" unicode="&#xa0;" horiz-adv-x="350" 
 />
    <glyph glyph-name="exclam" unicode="!" horiz-adv-x="264" 
d="M91 589q-1 21 -0.5 42.5t4 38.5t11 27t22.5 10q14 0 21.5 -10.5t11 -27t4 -37.5t-0.5 -42q-1 -38 -5 -76t-8.5 -86.5t-9 -112.5t-7.5 -154h-4q-2 35 -5.5 77t-7.5 85t-8.5 85.5t-8 78t-6.5 62.5t-3 40zM174 37q0 -15 -12 -26.5t-31 -11.5q-15 0 -26.5 11.5t-11.5 26.5
q0 19 11.5 31t26.5 12q19 0 31 -12t12 -31z" />
    <glyph glyph-name="quotedbl" unicode="&#x22;" horiz-adv-x="238" 
d="M56 435q-1 18 -3.5 31.5t-6 29t-7.5 37t-8 55.5q-7 51 0.5 76.5t25.5 25.5q38 0 26 -102q-4 -34 -8 -55.5t-8 -37t-6.5 -29t-3.5 -31.5h-1zM180 435q-1 18 -3.5 31.5t-6 29t-7.5 37t-8 55.5q-7 51 0.5 76.5t25.5 25.5q38 0 26 -102q-4 -34 -8 -55.5t-8 -37t-6.5 -29
t-3.5 -31.5h-1z" />
    <glyph glyph-name="numbersign" unicode="#" horiz-adv-x="581" 
d="M371 213l-29 -169h-9l29 169h-172l-29 -169h-8l29 169h-152v9h154l31 179h-185v9h186l27 155h8l-27 -155h173l26 155h9l-27 -155h146v-9h-147l-31 -179h178v-9h-180zM222 401l-31 -179h173l32 179h-174z" />
    <glyph glyph-name="dollar" unicode="$" horiz-adv-x="512" 
d="M261 689v-299q44 -21 88 -44t77.5 -51.5t52 -64t11.5 -82.5q-6 -39 -29.5 -68.5t-56.5 -49.5t-71 -30t-71 -9h-1v-59h-10v59q-51 3 -93 19t-85 45q-16 11 -28.5 5.5t-11.5 -34.5v-15h-7v261q0 4 4 4q2 0 2 -1.5t1 -3.5v-5q1 -21 2.5 -44.5t5 -47t10 -45.5t19.5 -41
q13 -20 34 -35.5t45.5 -27t51 -18t50.5 -7.5v313q-40 19 -80 39.5t-72 44.5t-53.5 53.5t-24.5 66.5q-4 49 16.5 84t55 56.5t76.5 31.5t82 9v64h10v-64l2 -1q30 0 64.5 -10t85.5 -44q8 -5 15 -8.5t12.5 -2t9 10.5t3.5 29v31h7v-277q0 -4 -4 -4q-2 0 -2 2t-1 4v5
q-2 21 -3 44.5t-4.5 47.5t-10 47t-19.5 42q-21 32 -61.5 52t-91.5 23h-2zM261 0h3q34 0 64.5 10t54 28.5t37.5 45.5t14 60q0 28 -14 51t-38 42.5t-55.5 37t-65.5 34.5v-309zM251 689q-18 0 -38 -4t-39.5 -11.5t-37.5 -19t-31 -26.5q-32 -38 -25.5 -80t41.5 -74
q25 -23 58.5 -41.5t71.5 -37.5v294z" />
    <glyph glyph-name="percent" unicode="%" horiz-adv-x="711" 
d="M174 364q-39 0 -67.5 13t-48 35.5t-29 53t-9.5 66.5q0 35 9.5 67t30.5 55q19 20 47 32t67 14q32 0 62.5 -11.5t52.5 -34.5q21 -23 30.5 -55t9.5 -67q0 -75 -38 -120.5t-117 -47.5zM537 -26q-39 0 -68 13t-48.5 35.5t-29 53.5t-9.5 66q0 36 9.5 67.5t30.5 54.5
q19 20 47 32.5t67 13.5q32 0 63 -11.5t52 -34.5t30.5 -54.5t9.5 -67.5q0 -74 -38 -119.5t-116 -48.5zM103 -26l514 714h-15l-515 -714h16zM616 267q-12 14 -31.5 23t-47.5 10q-29 -1 -48 -10t-32 -23q-23 -26 -26 -59t-3 -66v-34q1 -52 26 -86.5t83 -36.5q57 2 82 36.5
t26 86.5v34q0 33 -3 66t-26 59zM254 657q-13 14 -32 22.5t-48 9.5q-28 -1 -47.5 -9.5t-31.5 -22.5q-23 -27 -26 -60t-3 -65v-35q1 -52 26 -86.5t82 -36.5q58 2 83 36.5t26 86.5v35q0 16 -0.5 32.5t-3 32.5t-8 31t-17.5 29z" />
    <glyph glyph-name="ampersand" unicode="&#x26;" horiz-adv-x="763" 
d="M200 409q-38 -16 -67 -48t-42 -74t-5.5 -91t42.5 -99q31 -44 71.5 -64.5t85 -22t89.5 13.5t87 42q-31 27 -66.5 65.5t-70.5 84.5t-67.5 95.5t-56.5 97.5zM251 438q72 43 101.5 90t18.5 90q-8 29 -31 51.5t-64 21.5q-47 -4 -63.5 -31t-14.5 -65t18 -80.5t35 -76.5zM505 93
q24 -24 51.5 -45t58 -31t64.5 -6t71 29q2 1 3.5 0.5t-0.5 -2.5q-34 -28 -71 -39.5t-74.5 -8t-73.5 21.5t-68 49q-28 -18 -62 -34.5t-70 -28t-73 -16t-71 1.5t-64 24t-52 51q-38 57 -41.5 110.5t16.5 100t59.5 84.5t88.5 63q-39 69 -44 121t11.5 86.5t48 52t64.5 18.5
q35 1 62.5 -19.5t37.5 -54.5q9 -32 -0.5 -60t-29 -52t-45 -43.5t-48.5 -33.5q20 -41 49 -86t62 -89t67.5 -85t66.5 -74q11 11 24 26.5t24.5 33t21.5 36t15 35.5q7 22 7.5 45.5t-7 43t-23.5 32.5t-43 14q-17 0 -28 -7q-13 -8 -10.5 -23.5t13.5 -23.5q4 -3 2 -6t-8 -5
t-14 -2.5t-15 2.5q-22 10 -25 35q-4 24 8.5 41.5t32.5 25.5q34 14 68 2t52 -43q10 -16 13.5 -34t2.5 -36.5t-6 -36t-11 -31.5q-9 -20 -20.5 -40t-23.5 -37t-23.5 -31t-20.5 -21z" />
    <glyph glyph-name="quotesingle" unicode="'" horiz-adv-x="116" 
d="M56 435q-1 18 -3.5 31.5t-6 29t-7.5 37t-8 55.5q-7 51 0.5 76.5t25.5 25.5q38 0 26 -102q-4 -34 -8 -55.5t-8 -37t-6.5 -29t-3.5 -31.5h-1z" />
    <glyph glyph-name="parenleft" unicode="(" horiz-adv-x="315" 
d="M323 -205q8 -3 4 -4.5t-6 -1.5q-71 9 -123.5 51.5t-87 106t-51 142t-16 160t19 160t53.5 142t86 105.5t119 51q2 0 6 -1.5t-4 -4.5q-57 -13 -99.5 -55.5t-70.5 -105t-42.5 -138t-14.5 -154.5t14.5 -154.5t42.5 -138t70.5 -105t99.5 -55.5z" />
    <glyph glyph-name="parenright" unicode=")" horiz-adv-x="292" 
d="M-18 -205q57 13 99.5 55.5t70.5 105t42 138t14 154.5t-14 154.5t-42 138t-70.5 105t-99.5 55.5q-8 3 -4 4.5t6 1.5q67 -9 118.5 -51t86.5 -105.5t53.5 -142t19 -160t-16 -160t-51 -142t-87 -106t-123.5 -51.5q-2 0 -6 1.5t4 4.5z" />
    <glyph glyph-name="asterisk" unicode="*" horiz-adv-x="383" 
d="M192 509q21 12 36 21.5t27 19t22.5 19.5t23.5 22q18 16 31.5 16t18 -8t-2 -20t-29.5 -19q-17 -6 -31 -10t-28 -9.5t-29.5 -13.5t-36.5 -20q21 -12 36.5 -20t29.5 -13.5t28 -9.5t31 -10q23 -8 29.5 -19.5t2 -19.5t-18 -8t-31.5 16q-13 12 -23.5 22t-22.5 19.5t-26.5 19.5
t-35.5 22q0 -24 1 -42t3.5 -33t5.5 -29t7 -32q5 -24 -2 -35.5t-16 -11.5t-16 11.5t-2 35.5q4 17 7 31.5t5.5 29.5t3.5 32.5t1 41.5q-21 -12 -35.5 -22t-26.5 -19.5t-22.5 -19t-23.5 -21.5q-18 -16 -31.5 -16t-18 7.5t2 19.5t29.5 20q17 5 30.5 9.5t27.5 10t30 13.5t37 20
q-21 12 -37 20t-30 13t-27.5 9.5t-30.5 9.5q-23 7 -30 19t-2.5 20t18 8t31.5 -16q13 -12 24 -21.5t23 -19t26.5 -19t35.5 -21.5q0 24 -1.5 41.5t-3.5 32.5t-5.5 29t-6.5 31q-5 24 1.5 35.5t15.5 11.5t16 -11.5t2 -35.5q-3 -17 -6.5 -31t-5.5 -29t-3.5 -32.5t-1.5 -41.5z" />
    <glyph glyph-name="plus" unicode="+" horiz-adv-x="621" 
d="M317 17h-9v276h-278v9h278v267h9v-267h274v-9h-274v-276z" />
    <glyph glyph-name="comma" unicode="," horiz-adv-x="141" 
d="M111 39q0 -14 -4.5 -27.5t-12.5 -24t-21 -16.5t-29 -4q-5 1 -4 4t4 3q25 -2 40.5 15t13.5 40q-1 3 -3 2.5t-2 -2.5q2 -14 -6 -22t-15 -8h-3q-16 0 -27.5 11.5t-11.5 28.5t11.5 29t27.5 12q18 0 30 -12t12 -29z" />
    <glyph glyph-name="hyphen" unicode="-" horiz-adv-x="423" 
d="M30 295v11h363v-11h-363z" />
    <glyph glyph-name="period" unicode="." horiz-adv-x="141" 
d="M111 37q0 -15 -12 -26.5t-31 -11.5q-15 0 -26.5 11.5t-11.5 26.5q0 19 11.5 31t26.5 12q19 0 31 -12t12 -31z" />
    <glyph glyph-name="slash" unicode="/" horiz-adv-x="312" 
d="M30 0l261 714h12l-261 -714h-12z" />
    <glyph glyph-name="zero" unicode="0" horiz-adv-x="689" 
d="M345 0q-86 3 -146 32t-97.5 76.5t-54.5 109.5t-17 132t17 132t54.5 109.5t97.5 76.5t146 32q85 -3 145 -32t97.5 -76.5t54.5 -109.5t17 -132t-17 -132t-54.5 -109.5t-97.5 -76.5t-145 -32zM345 695q-69 -2 -114 -26.5t-71.5 -63t-37.5 -86.5t-11 -96v-146q0 -48 11 -96
t37.5 -86.5t71.5 -63t114 -26.5q68 2 113 26.5t71.5 63t37.5 86.5t11 96v146q0 48 -11 96t-37.5 86.5t-71.5 63t-113 26.5z" />
    <glyph glyph-name="one" unicode="1" horiz-adv-x="401" 
d="M170 626q0 12 -5 16.5t-11.5 4.5t-14 -3t-12.5 -6l-87 -40q-8 -4 -8.5 1t4.5 6l159 92q5 2 8.5 2.5t8.5 0.5h11q15 0 16.5 -6t1.5 -20v-133v-502q0 -22 8.5 -26t31.5 -6h12.5h27.5h28.5h15.5q6 0 6 -4q0 -3 -5 -3h-330q-5 0 -5 3q0 4 6 4h16.5h31.5h31h14q24 2 32.5 6
t8.5 26z" />
    <glyph glyph-name="two" unicode="2" horiz-adv-x="523" 
d="M30 0q2 34 8 59t17 45.5t28 39t41 38.5q31 28 73 58.5t82.5 63.5t75 68.5t51.5 73.5q18 40 12 83t-28 79t-57.5 59.5t-75.5 24.5q-27 1 -52.5 -5t-47.5 -17t-40 -26t-30 -32q-11 -15 -15.5 -33t-1 -34.5t15 -29.5t31.5 -19q19 -5 37.5 4.5t26.5 25.5q2 5 4.5 4.5
t8.5 -3.5q10 -4 16 -14t6.5 -23t-4.5 -26t-18 -23q-24 -20 -52 -21.5t-52 11t-39.5 39t-14.5 64.5q1 40 22 71t53 52t70.5 32t74.5 11q46 0 88.5 -11.5t75.5 -36.5t52.5 -62.5t19.5 -89.5q-1 -45 -21 -79.5t-51 -62.5t-70 -51.5t-79 -45t-76.5 -43t-62.5 -45.5
q-30 -29 -53 -54t-28 -59h110.5t109.5 0.5t91.5 0.5h56.5q24 0 38 15.5t20.5 37.5t8.5 46.5t2 42.5q0 5 0.5 5.5t4.5 2.5v-176q0 -19 -4.5 -27t-21.5 -8h-437v0z" />
    <glyph glyph-name="three" unicode="3" horiz-adv-x="531" 
d="M166 366q-6 0 -6 3t6 3h79q44 0 75.5 23.5t47.5 59t16.5 77t-16.5 77.5t-51.5 59.5t-88.5 24.5q-21 0 -42.5 -5.5t-40.5 -16t-34 -26.5t-23 -38q-9 -21 -5.5 -40.5t15.5 -30.5t30 -12t38 14q3 3 6 5.5t6 -1.5q16 -20 8.5 -40t-26 -31.5t-43.5 -11t-44 20.5
q-12 12 -18 28.5t-6 35t5 37t15 34.5q28 45 69 64t90 20q57 1 98.5 -13t68 -37t38.5 -52.5t12 -60.5q0 -26 -9 -51.5t-24.5 -47.5t-36.5 -39t-45 -26l-4 -2t3 -3q45 -5 78 -22.5t53.5 -42.5t29.5 -55.5t6 -60.5q-4 -36 -23 -70t-53 -60.5t-82.5 -42t-110.5 -14.5
q-36 -1 -71 7t-63 26t-46.5 47t-21.5 70q-3 40 14 67.5t40.5 40.5t47.5 9.5t35 -25.5q13 -22 0 -46q-3 -8 -10 -5q-6 4 -15 6q-13 3 -25.5 -1t-22 -12t-16.5 -19.5t-8 -24.5q-3 -21 3.5 -44.5t26 -42.5t52 -31.5t81.5 -11.5q45 0 82.5 15t64.5 39t42.5 55.5t17.5 65.5
q2 37 -7.5 69t-32.5 56.5t-60 39t-91 16.5h-10.5t-23.5 0.5t-25.5 0.5h-18.5z" />
    <glyph glyph-name="four" unicode="4" horiz-adv-x="545" 
d="M391 39q0 -22 8 -26t32 -6h10.5h24h25h13.5q8 0 6 -4q0 -3 -4 -3h-301q-5 0 -5 3q0 4 6 4h14h25.5h24h10.5q24 2 32 6t8 26v168h-301v14q39 31 84.5 79.5t88 109.5t78 132.5t54.5 149.5q2 6 5 6.5t7 1.5h72q1 0 2 -1q2 -2 1 -4q-73 -169 -168 -291.5t-210 -190.5h287
l-1 116q0 4 1 6t6 4q16 7 27.5 17t19 20t11 19.5t3.5 15.5v9q0 2 2 2q2 2 2 -2v-207h119q5 0 5 -3t-5 -3h-119v-168z" />
    <glyph glyph-name="five" unicode="5" horiz-adv-x="556" 
d="M90 679q0 14 5.5 16.5t16.5 2.5l288 2q27 0 46.5 8t21.5 37q0 7 0 5.5v-4.5v-4t0 6t2.5 6.5t2.5 -5.5v-110h-377v-201q37 9 84 14.5t95 3.5t93.5 -14t81 -38t56 -68.5t19.5 -105.5q-2 -64 -23.5 -107t-58.5 -70t-86 -39.5t-105 -13.5q-64 -2 -108.5 12t-71.5 36.5
t-39 51.5t-12 59q1 48 28 75.5t62 33.5q27 4 47.5 -4t31 -24t9 -36t-17.5 -39q-4 -4 -7 -3t-5 4q-8 12 -23 17.5t-30.5 4t-28.5 -11t-17 -27.5q-7 -30 5 -56t35 -45.5t52.5 -30.5t58.5 -12q66 -2 111 15.5t73.5 49t41 73t12.5 87.5q0 61 -24.5 107.5t-72 73.5t-117 32.5
t-157.5 -14.5z" />
    <glyph glyph-name="six" unicode="6" horiz-adv-x="534" 
d="M100 337q25 26 69 48.5t92 27.5q41 5 81.5 0t75.5 -22q42 -20 68 -61.5t25 -117.5q-2 -58 -21.5 -98t-52 -65t-74.5 -36.5t-88 -12.5q-77 -1 -127 28t-79 76t-40 106t-9 119q1 30 6.5 70t19 82.5t35.5 83t56 72.5q30 29 69.5 44.5t81.5 16.5q29 0 57.5 -5t52.5 -18
t40.5 -35t22.5 -55q4 -23 -4 -50t-30 -42q-12 -9 -28 -10.5t-30 3.5t-23.5 16.5t-10.5 28.5q0 2 0.5 11t5.5 9q17 0 36 7t25 24q9 21 3.5 41.5t-22 36t-41.5 24t-55 6.5q-35 -2 -67 -21.5t-54 -47.5q-19 -24 -31.5 -53t-20 -59t-10.5 -60t-3 -56zM274 6q48 0 80 14.5
t51.5 40t27 59.5t7.5 73v46q-2 80 -45 121q-26 25 -61 34.5t-72 7.5q-40 -3 -77.5 -18.5t-64.5 -41.5q-15 -14 -17.5 -34t-2.5 -40l3 -58q5 -101 43.5 -152t127.5 -52z" />
    <glyph glyph-name="seven" unicode="7" horiz-adv-x="518" 
d="M508 648q0 -29 -17.5 -57.5t-43.5 -57.5t-56.5 -58.5t-58.5 -58.5q-39 -41 -72 -88.5t-52.5 -100.5t-21.5 -110t22 -117h-97q-15 65 0 126.5t47 116.5t75 101.5t83 81.5q30 26 62 54t59 55.5t45 54t19 50.5h-396q-23 0 -36.5 -2.5t-20.5 -8.5t-9.5 -17.5t-2.5 -29.5
q0 -2 -0.5 -15t-0.5 -28v-28v-14v-5l-5 -2v176q0 18 5 26t22 8h451v-52z" />
    <glyph glyph-name="eight" unicode="8" horiz-adv-x="522" 
d="M292 387q31 -15 67.5 -35.5t68 -47.5t52.5 -61t21 -75q-1 -44 -24.5 -75.5t-59.5 -52t-79.5 -31.5t-85.5 -12q-35 -2 -74.5 5.5t-73 25t-57 45.5t-26.5 67q-3 43 15 76.5t48.5 60t67.5 47.5t71 38q-26 14 -53.5 32.5t-53.5 38.5q-20 16 -32 31t-19 27.5t-9.5 23
t-3.5 16.5q-6 47 16 79.5t58 52.5t79.5 29t81.5 9q30 0 63.5 -7t61.5 -22.5t46 -41t17 -62.5q-1 -35 -20 -61.5t-46.5 -47.5t-59 -38.5t-57.5 -33.5zM284 392q24 15 54.5 32t57 38.5t45 47.5t18.5 58q0 37 -15.5 61t-40 38t-55.5 19.5t-61 6.5q-45 2 -85 -11t-66 -39
q-37 -38 -32.5 -76t41.5 -73q30 -28 67 -54.5t72 -47.5zM232 357q-33 -17 -69 -37t-66 -45.5t-48 -58.5t-15 -75q3 -38 25 -64.5t54 -42.5t69 -23t70 -6t64 6.5t56 18t43 32.5t26 49q14 52 -4 90t-51.5 66t-76 49t-77.5 41z" />
    <glyph glyph-name="nine" unicode="9" horiz-adv-x="533" 
d="M369 78q25 33 38 69.5t18.5 75t5.5 78v78.5q-11 -24 -30 -44.5t-43 -36.5t-50 -25.5t-51 -11.5q-48 -3 -90 6.5t-73.5 33.5t-51 62t-22.5 91q-3 59 15 104t50.5 76t76 47.5t91.5 17.5q81 1 131.5 -27.5t79 -76t39 -106.5t9.5 -119q0 -30 -5.5 -70t-18.5 -82.5t-34.5 -83
t-54.5 -71.5q-31 -29 -69.5 -45t-80.5 -17q-29 0 -57.5 5t-51.5 17t-39.5 31t-22.5 45q-3 15 -2 30.5t7 30t16.5 25t26.5 15.5q31 9 48 -0.5t24 -25t5 -29.5t-10 -14q-17 0 -33.5 -6t-22.5 -23q-8 -21 -3 -39t20 -31t39.5 -19t55.5 -4q35 2 67 21.5t53 47.5zM256 274
q25 0 52 10t52 27t44 39t27 45q0 27 -1 53t-2 53q-4 51 -15 87.5t-31.5 60t-52 34.5t-76.5 10q-46 -1 -77.5 -16t-50.5 -40.5t-27.5 -59.5t-7.5 -73l1 -63q1 -38 12 -68.5t34 -52.5t54.5 -33.5t64.5 -12.5z" />
    <glyph glyph-name="colon" unicode=":" horiz-adv-x="141" 
d="M111 255q0 -15 -12 -26.5t-31 -11.5q-15 0 -26.5 11.5t-11.5 26.5q0 19 11.5 31t26.5 12q19 0 31 -12t12 -31zM111 37q0 -15 -12 -26.5t-31 -11.5q-15 0 -26.5 11.5t-11.5 26.5q0 19 11.5 31t26.5 12q19 0 31 -12t12 -31z" />
    <glyph glyph-name="semicolon" unicode=";" horiz-adv-x="141" 
d="M111 39q0 -14 -4.5 -27.5t-12.5 -24t-21 -16.5t-29 -4q-5 1 -4 4t4 3q25 -2 40.5 15t13.5 40q-1 3 -3 2.5t-2 -2.5q2 -14 -6 -22t-15 -8h-3q-16 0 -27.5 11.5t-11.5 28.5t11.5 29t27.5 12q18 0 30 -12t12 -29zM111 255q0 -15 -12 -26.5t-31 -11.5q-15 0 -26.5 11.5
t-11.5 26.5q0 19 11.5 31t26.5 12q19 0 31 -12t12 -31z" />
    <glyph glyph-name="less" unicode="&#x3c;" horiz-adv-x="630" 
d="M600 48l-5 -11l-565 302v9l565 302l5 -11l-553 -296z" />
    <glyph glyph-name="equal" unicode="=" horiz-adv-x="587" 
d="M20 505h537v-13h-537v13zM557 158h-537v12h537v-12z" />
    <glyph glyph-name="greater" unicode="&#x3e;" horiz-adv-x="630" 
d="M35 650l565 -302v-9l-565 -302l-5 11l553 295l-553 296z" />
    <glyph glyph-name="question" unicode="?" horiz-adv-x="380" 
d="M174 37q0 -15 -12 -26.5t-31 -11.5q-15 0 -26.5 11.5t-11.5 26.5q0 19 11.5 31t26.5 12q19 0 31 -12t12 -31zM118 586q10 9 16 -5q9 -22 -2 -36t-30 -17.5t-39.5 4.5t-28.5 31q-11 28 -5 56.5t24.5 51t48 37t66.5 14.5q36 0 69.5 -11.5t59 -33t39.5 -52t13 -69.5
q-2 -50 -25.5 -86.5t-55 -67.5t-63.5 -59t-50 -60q-15 -26 -25 -56t-2 -57l-6 -1q-7 38 3.5 70.5t30.5 62.5t44.5 59t46.5 59.5t37.5 64t15.5 73.5q0 33 -7.5 61.5t-24 50t-42 34.5t-59.5 14q-23 1 -41.5 -5t-32.5 -16q-29 -21 -34 -45.5t3 -43t24.5 -26.5t31.5 4z" />
    <glyph glyph-name="at" unicode="@" horiz-adv-x="800" 
d="M683 173q-18 -13 -41 -20.5t-47 -9t-47 3.5t-41 18q-23 17 -32.5 44.5t-10.5 56.5q-10 -20 -25 -41.5t-33.5 -38.5t-39.5 -27.5t-44 -8.5q-29 3 -47.5 16.5t-29 34.5t-13.5 47t0 53q3 32 14 69t31 68.5t49 51.5t68 17q36 -4 55.5 -32.5t30.5 -64.5l18 94h59l-32 -200
q-6 -41 3.5 -72.5t30 -49t50 -19t63.5 18.5q21 12 38 33t29 46.5t18.5 53t6.5 52.5q0 70 -25.5 130t-70 103.5t-104.5 67.5t-129 23q-84 -2 -157 -35t-126.5 -88.5t-84.5 -127t-31 -149.5q0 -68 26 -127t70.5 -102.5t103 -68t123.5 -23.5q69 1 130.5 24t115.5 65l3 -4
q-57 -46 -123.5 -69.5t-139.5 -20.5q-65 3 -122.5 28.5t-100.5 69t-67.5 102t-24.5 126.5q0 82 33.5 156t89.5 130t129.5 88.5t154.5 32.5q71 0 132 -25t105.5 -69.5t70 -104.5t25.5 -129q0 -16 -4 -41.5t-13.5 -54t-26.5 -55.5t-43 -46zM478 399q-4 16 -9.5 32.5t-14.5 29
t-22.5 19t-33.5 2.5q-26 -5 -45.5 -25t-33 -49t-21 -62.5t-8.5 -66t4.5 -59.5t17.5 -42q8 -9 19 -14q18 -7 37.5 3t37.5 28t33 40.5t24 41.5q1 5 1 9.5v9.5q3 30 7.5 59t6.5 44z" />
    <glyph glyph-name="A" unicode="A" horiz-adv-x="726" 
d="M45 7q29 0 42 12.5t22 34.5l274 646h21q7 0 8 -1.5t3 -5.5l269 -670q8 -16 27 -16h9q6 0 6 -4q0 -3 -6 -3h-196q-8 0 -7.5 3.5t7.5 3.5h72q8 0 12.5 3t0.5 11l-78 192l-346 -1l-66 -155q-11 -26 6.5 -38t51.5 -12h66q5 0 5 -3.5t-5 -3.5h-250q-5 0 -5 3.5t5 3.5h52z
M188 220h340l-164 416z" />
    <glyph glyph-name="B" unicode="B" horiz-adv-x="652" 
d="M118 657q0 25 -6 30.5t-29 5.5h-79q-1 0 -4.5 0.5t-3.5 2.5q0 4 8 4h335q49 0 88.5 -13t67 -35t42 -51.5t14.5 -62.5q0 -28 -11.5 -54t-32.5 -47.5t-49 -37t-60 -22.5q-3 0 -2.5 -1t2.5 -1q48 -3 90 -13.5t73 -32.5t49 -56t19 -84q1 -57 -23.5 -93.5t-64.5 -57.5
t-91 -29.5t-105 -8.5h-339q-8 0 -8 3q-1 3 2.5 3.5t5.5 0.5h65q15 0 24 0.5t14.5 3.5t7 10t1.5 20v616zM354 7q34 0 69.5 10.5t64.5 32t47.5 56t18.5 84.5q0 42 -16 75.5t-43.5 57t-64 35.5t-76.5 12h-165v-363h165zM355 378q30 0 54 13.5t41.5 35.5t27 49.5t9.5 56.5
q0 42 -13 72t-32 49.5t-42.5 29t-44.5 9.5h-166v-316z" />
    <glyph glyph-name="C" unicode="C" horiz-adv-x="607" 
d="M569 163q-10 -33 -30 -63t-49.5 -52t-66.5 -35t-82 -13q-81 -1 -139.5 28.5t-97 79t-57 113.5t-18.5 133q0 74 21 136.5t62.5 108.5t104.5 72.5t147 28.5q30 -1 64 -12t85 -46q8 -5 15 -7.5t12.5 0.5t8.5 13t3 30v31h7v-293q0 -4 -3 -4t-3 2v4q-1 1 -1 10v10
q-2 21 -2.5 44t-3.5 46t-9.5 45t-19.5 41q-22 32 -62 55t-91 22q-68 -2 -116 -31t-78 -74t-43 -98.5t-13 -104.5v-78q1 -58 19.5 -110t49.5 -91t72 -63t88 -25q37 -2 72 7.5t64 29t51 48t34 65.5l1 1q1 2 2.5 1t1.5 -3v-2v0z" />
    <glyph glyph-name="D" unicode="D" horiz-adv-x="660" 
d="M293 7q75 0 124 22.5t77.5 61t40 89t11.5 107.5q2 26 2 59t-2 59q-3 55 -14 106.5t-38.5 91.5t-75 64.5t-121.5 24.5q-25 1 -58 0.5t-57 -0.5q0 -99 0.5 -165t0.5 -115v-87.5v-81.5v-98v-137zM632 350q0 -77 -21.5 -141t-63.5 -110.5t-103.5 -72t-140.5 -26.5h-304h-5.5
t-2.5 3t3 3.5t5 0.5h65q15 0 24 0.5t14.5 3.5t7 10t1.5 20v616q0 25 -5.5 30.5t-28.5 5.5h-77q-11 0 -10 3q0 4 3.5 4h5.5h304q79 -1 140.5 -27t103.5 -72t63.5 -110t21.5 -141z" />
    <glyph glyph-name="E" unicode="E" horiz-adv-x="604" 
d="M560 282q0 7 4 7.5t4 -7.5v-252q0 -22 -4 -26t-24 -4h-527q-7 0 -8 3q0 3 3 3.5t5 0.5h65q15 0 24 0.5t14.5 3.5t7 10t1.5 20v616q0 25 -5.5 30.5t-28.5 5.5h-85q-5 2 -4 4.5t6 2.5h525q10 0 12.5 -6t2.5 -17v-174q0 -5 -4 -5q-2 1 -2.5 1.5t-0.5 5.5l-1 103
q0 44 -23.5 64.5t-85.5 20.5h-235l1 -324h91q44 0 62 25.5t16 66.5v36q0 7 4 6t4 -8v-256q0 -7 -4 -8t-4 6v36q2 41 -16 66.5t-62 25.5h-91v-358h266q30 2 52.5 8t33.5 26q8 15 9.5 31.5t1.5 36.5v173v0z" />
    <glyph glyph-name="F" unicode="F" horiz-adv-x="554" 
d="M208 41q0 -13 1.5 -20t6.5 -10t14.5 -3.5t24.5 -0.5h21q2 0 5 -0.5t3 -3.5t-8 -3h-251q-8 0 -9 3q0 3 3 3.5t5 0.5h65q15 0 24 0.5t14.5 3.5t7 10t1.5 20v616q0 25 -5.5 30.5t-28.5 5.5h-79h-5t-3 4q0 3 10 3h519q10 0 12.5 -6t2.5 -17v-174q0 -5 -4 -5q-2 1 -2.5 1.5
t-0.5 5.5l-1 103q0 44 -23.5 64.5t-85.5 20.5h-235l1 -324h91q44 0 62 25.5t16 66.5v36q0 7 4 6t4 -8v-256q0 -7 -4 -8t-4 6v36q2 41 -16 66.5t-62 25.5h-91q-1 -81 -0.5 -162t0.5 -162z" />
    <glyph glyph-name="G" unicode="G" horiz-adv-x="619" 
d="M405 21q37 8 64 32.5t27 65.5v177q0 13 -1.5 20t-7 10t-14.5 3.5t-24 0.5h-65q-2 0 -5.5 0.5t-2.5 3.5q0 3 8 3h244q8 0 9 -3q0 -3 -3 -3.5t-5 -0.5h-15q-15 0 -24 -0.5t-14.5 -3.5t-7 -10t-1.5 -20v-291q0 -5 -3 -5q-4 0 -4 2.5t-1 5.5q-1 12 -3 23t-7 18t-15 8.5
t-28 -4.5q-25 -9 -41.5 -18t-33.5 -17t-37.5 -13t-52.5 -5q-81 -1 -139.5 28.5t-96.5 79t-56.5 113.5t-18.5 133q0 74 20.5 136.5t62.5 108.5t104.5 72.5t146.5 28.5q30 -1 64.5 -12.5t84.5 -45.5q8 -5 15 -7.5t12.5 0.5t9 13t3.5 30v31h7v-293q0 -4 -4 -4q-3 0 -3 2v4v20
q-2 21 -3 44t-4 46t-9.5 45t-19.5 41q-21 32 -61.5 55t-91.5 22q-68 -2 -116 -31t-78 -74t-43 -98.5t-13 -104.5v-78q1 -58 19.5 -110t49.5 -91t72.5 -63t88.5 -25q29 -1 61 5z" />
    <glyph glyph-name="H" unicode="H" horiz-adv-x="795" 
d="M207 41q0 -13 1.5 -20t7 -10t14.5 -3.5t24 -0.5h21q2 0 5.5 -0.5t3.5 -3.5q-1 -3 -9 -3h-251q-8 0 -8 3q-1 3 2.5 3.5t5.5 0.5h65q15 0 24 0.5t14.5 3.5t7 10t1.5 20v618q0 13 -1.5 20t-7 10t-14.5 3.5t-24 0.5h-65h-5.5t-2.5 4q0 3 8 3h251q8 0 9 -3q0 -4 -3.5 -4h-5.5
h-21q-15 0 -24 -0.5t-14.5 -3.5t-7 -10t-1.5 -20v-290h385v290q0 13 -1.5 20t-7 10t-14.5 3.5t-24 0.5h-22h-5t-3 4q1 3 9 3h251q8 0 8 -3q1 -4 -2.5 -4h-5.5h-65q-15 0 -24 -0.5t-14.5 -3.5t-7 -10t-1.5 -20v-618q0 -13 1.5 -20t7 -10t14.5 -3.5t24 -0.5h65q2 0 5.5 -0.5
t2.5 -3.5q0 -3 -8 -3h-251q-8 0 -9 3q0 3 3 3.5t5 0.5h22q15 0 24 0.5t14.5 3.5t7 10t1.5 20v321h-385v-321v0z" />
    <glyph glyph-name="I" unicode="I" horiz-adv-x="342" 
d="M319 700q7 0 8 -3q0 -4 -3 -4h-5h-65q-15 0 -24 -0.5t-14.5 -3.5t-7 -10t-1.5 -20v-618q0 -13 1.5 -20t7 -10t14.5 -3.5t24 -0.5h65q2 0 5 -0.5t3 -3.5q-1 -3 -8 -3h-295q-8 0 -8 3q-1 3 2.5 3.5t5.5 0.5h64q15 0 24.5 0.5t14.5 3.5t6.5 10t1.5 20v618q0 13 -1.5 20
t-6.5 10t-14.5 3.5t-24.5 0.5h-64h-5.5t-2.5 4q0 3 8 3h295z" />
    <glyph glyph-name="J" unicode="J" horiz-adv-x="296" 
d="M215 659v-473q0 -41 -4 -76t-16.5 -60.5t-35.5 -41t-62 -16.5q-16 -1 -32 2.5t-30.5 11t-25 19.5t-14.5 29q-9 34 3.5 57t34.5 32q23 10 43.5 4.5t30.5 -20.5q8 -12 7 -27t-14 -29q-4 -4 -9 1q-4 4 -9 8.5t-19 2.5q-12 -2 -19 -9.5t-9 -17t1 -20t10 -19.5q9 -11 23 -16.5
t28 -4.5q30 2 48.5 20.5t23.5 41.5q5 22 1.5 40t-18.5 46q-7 12 -8 17.5t-1 19.5v478q0 13 -1.5 20t-6.5 10t-14.5 3.5t-24.5 0.5h-64h-5.5t-3.5 4q1 3 9 3h251q8 0 8 -3q1 -4 -2.5 -4h-5.5h-21q-15 0 -24 -0.5t-14.5 -3.5t-7 -10t-1.5 -20z" />
    <glyph glyph-name="K" unicode="K" 
d="M318 700q8 0 9 -3q0 -4 -3.5 -4h-5.5h-64q-15 0 -24.5 -0.5t-14.5 -3.5t-6.5 -10t-1.5 -20v-367l323 366q11 12 9 23.5t-22 11.5h-79q-5 0 -4.5 3.5t5.5 3.5h251q5 0 5.5 -3.5t-4.5 -3.5h-73q-24 0 -41.5 -7.5t-33.5 -25.5l-232 -263q50 17 81 -26q22 -32 53.5 -73.5
t64.5 -85t62 -83.5t46 -68q9 -14 15 -24.5t12.5 -17t14.5 -9.5t20 -3h36q7 0 7 -4q0 -3 -6 -3h-193q-5 0 -5 3q0 4 5 4h29q11 0 16.5 7.5t-1.5 13.5l-238 325q-5 8 -14.5 18.5t-23.5 3.5l-85 -96v-238q0 -13 1.5 -20t6.5 -10t14.5 -3.5t24.5 -0.5h64q2 0 5.5 -0.5t3.5 -3.5
q-1 -3 -9 -3h-294q-8 0 -9 3q0 3 3 3.5t5 0.5h65q15 0 24.5 0.5t14.5 3.5t6.5 10t1.5 20v618q0 13 -1.5 20t-6.5 10t-14.5 3.5t-24.5 0.5h-65h-5t-3 4q1 3 9 3h294z" />
    <glyph glyph-name="L" unicode="L" horiz-adv-x="569" 
d="M546 282q0 7 4 7.5t4 -7.5v-252q0 -22 -4 -26t-24 -4h-526q-8 0 -9 3q0 3 3.5 3.5t5.5 0.5h64q15 0 24.5 0.5t14.5 3.5t6.5 10t1.5 20v618q0 13 -1.5 20t-6.5 10t-14.5 3.5t-24.5 0.5h-64h-5.5t-3.5 4q1 3 9 3h251q8 0 8 -3q1 -4 -2.5 -4h-5.5h-21q-15 0 -24.5 -0.5
t-14.5 -3.5t-6.5 -10t-1.5 -20v-652h266q31 2 53 8t33 26q8 15 10 31.5t2 36.5l-1 173v0z" />
    <glyph glyph-name="M" unicode="M" horiz-adv-x="892" 
d="M107 687q-2 5 -8 5.5t-12 0.5h-77q-6 0 -6 3q0 4 5 4h166q11 0 14 -1.5t8 -12.5l245 -590l261 582q6 14 9.5 18t11.5 4h161q7 0 8 -3q0 -4 -3 -4h-5h-65q-15 0 -24 -0.5t-14.5 -3.5t-7 -10t-1.5 -20v-618q0 -13 1.5 -20t7 -10t14.5 -3.5t24 -0.5h65q2 0 5 -0.5t3 -3.5
q-1 -3 -8 -3h-295q-8 0 -8 3q-1 3 2.5 3.5t5.5 0.5h64q15 0 24.5 0.5t14.5 3.5t6.5 10t1.5 20v603q0 8 -1 6t-3 -5l-284 -639h-10l-287 675v-660q3 -11 13 -12.5t33 -1.5h50q2 0 5.5 -0.5t2.5 -3.5q0 -3 -8 -3h-200q-8 0 -8 3q-1 3 2.5 3.5t5.5 0.5h51q23 0 32.5 1.5
t11.5 12.5v666z" />
    <glyph glyph-name="N" unicode="N" horiz-adv-x="738" 
d="M91 647l-23 29q-14 17 -34 17h-17q-6 0 -6 3q0 4 5 4h104q17 0 22 -4.5t16 -17.5l471 -624v624q-3 11 -12.5 13t-32.5 2h-51h-5t-3 4q1 3 9 3h200q8 0 8 -3q0 -4 -3 -4h-5h-51q-23 0 -33 -2t-12 -13v-678h-39q-16 0 -22 6.5t-16 19.5l-462 610v-615q3 -11 13 -12.5
t33 -1.5h51q2 0 5 -0.5t3 -3.5t-6 -3h-2h-10h-191q-7 0 -8 3q0 3 3 3.5t5 0.5h51q23 0 32.5 1.5t12.5 12.5v626z" />
    <glyph glyph-name="O" unicode="O" 
d="M556 374q0 67 -13 125.5t-40.5 101.5t-70 67.5t-100.5 23.5q-59 1 -101 -23.5t-69.5 -67.5t-40.5 -101.5t-13 -125.5v-48q0 -68 13 -126t40.5 -101t69.5 -67.5t101 -23.5q58 -1 100.5 23.5t70 67.5t40.5 101t13 126v48zM30 350q-3 65 17 128t59.5 112.5t97 79.5t128.5 30
t128 -30t97 -79.5t60 -112.5t17 -128q0 -67 -20 -130.5t-58 -112t-94.5 -78t-129.5 -29.5q-71 0 -128.5 30t-97 79.5t-59.5 112.5t-17 128z" />
    <glyph glyph-name="P" unicode="P" horiz-adv-x="594" 
d="M346 700q98 0 156 -47.5t60 -146.5q-1 -49 -16.5 -84t-43.5 -57.5t-67.5 -33t-88.5 -10.5h-152v-280q0 -13 1.5 -20t6.5 -10t14.5 -3.5t24.5 -0.5h64q2 0 5.5 -0.5t2.5 -3.5q0 -3 -8 -3h-295q-7 0 -8 3q0 3 3 3.5t5 0.5h65q15 0 24 0.5t14.5 3.5t7 10t1.5 20v618
q0 13 -1.5 20t-7 10t-14.5 3.5t-24 0.5h-65h-5t-3 4q1 3 8 3h336zM324 328q36 0 66 7.5t52.5 24.5t36.5 44t17 66q3 36 0 73q-6 79 -53 114.5t-121 35.5h-128v-365h130z" />
    <glyph glyph-name="Q" unicode="Q" horiz-adv-x="699" 
d="M567 374q0 67 -13 125.5t-41 101.5t-70.5 67.5t-100.5 23.5q-58 1 -100.5 -23.5t-70 -67.5t-40.5 -101.5t-13 -125.5v-48q0 -37 5 -78t17 -80t33.5 -73t54.5 -56q4 -2 7.5 -5.5t-0.5 -7.5q-1 0 -3 -1.5t-7 0.5q-46 21 -81.5 55.5t-59.5 78t-35.5 93t-8.5 98.5
q-3 65 17 128t59.5 112.5t97 79.5t128.5 30t128 -30t97 -79.5t60 -112.5t17 -128q0 -78 -25.5 -149t-76.5 -121q-39 -37 -81.5 -55t-82.5 -25.5t-74 -8t-55 -2.5v-1q19 -1 41.5 -4t46.5 -11.5t49.5 -23t52.5 -37.5q23 -19 45.5 -43.5t45.5 -44.5q27 -23 49.5 -29t40.5 -2
t30.5 13t19.5 15q6 6 9 1q0 -5 -2 -7q-5 -5 -21.5 -17t-42 -20.5t-59 -7.5t-70.5 22q-20 11 -40 30.5t-40 41.5t-41 44t-43 39.5t-46 28t-50 9.5q-2 0 -2.5 1.5t1.5 2.5q7 4 35 6t64.5 6.5t75.5 14.5t68 31q27 19 46 48t31 65t18 78t6 88v48z" />
    <glyph glyph-name="R" unicode="R" horiz-adv-x="745" 
d="M367 700q98 0 148.5 -38t49.5 -125q0 -38 -12.5 -65t-33.5 -46t-49 -31t-61 -19q-3 0 -2.5 -1t2.5 -1q50 -3 81.5 -14.5t49.5 -30.5t25.5 -43.5t11 -53.5t5.5 -61t9 -66q7 -32 25.5 -54.5t44.5 -30.5q16 -5 30 -1.5t24.5 10.5t17 14t8.5 10q3 5 5 3t0 -6q-5 -7 -12 -17
t-19.5 -19.5t-30.5 -16t-43 -6.5q-59 1 -87.5 28.5t-39.5 83.5q-6 27 -7.5 57t-4.5 60t-9 56.5t-21 47.5t-40 33t-66 12h-169v-328q0 -13 1.5 -20t6.5 -10t14.5 -3.5t24.5 -0.5h64q2 0 5.5 -0.5t2.5 -3.5q0 -3 -8 -3h-295q-7 0 -8 3q0 3 3 3.5t5 0.5h65q15 0 24 0.5
t14.5 3.5t7 10t1.5 20v618q0 13 -1.5 20t-7 10t-14.5 3.5t-24 0.5h-65h-5t-3 4q1 3 8 3h354zM367 377q29 0 53.5 12.5t42.5 34t28 49.5t10 59q0 45 -10.5 76t-27 50t-37.5 27t-43 8h-186v-316v-1z" />
    <glyph glyph-name="S" unicode="S" horiz-adv-x="534" 
d="M282 690q-18 1 -40 -2t-43 -10t-40.5 -19t-33.5 -29q-16 -19 -22 -39t-3.5 -40.5t13 -39.5t28.5 -35q27 -25 67 -46.5t83 -42.5t85 -43.5t73.5 -50.5t48.5 -63t11 -80q-6 -39 -29.5 -69.5t-56.5 -51.5t-70.5 -31.5t-70.5 -10.5q-55 2 -100 21t-90 49q-16 11 -28.5 -0.5
t-11.5 -40.5v-16h-7v262q0 4 4 4q3 0 3 -2v-4v-4q1 -21 2.5 -42.5t5 -42.5t10 -41.5t19.5 -39.5q14 -21 37 -38t49.5 -29.5t54.5 -19.5t53 -7q34 0 64.5 11t54 30.5t37.5 47t14 60.5q1 41 -28.5 72t-74 57t-97 50t-99 51.5t-78.5 61.5t-36 81q-4 51 18 87t58.5 57.5
t80.5 30.5t85 6q30 0 64.5 -10t85.5 -44q8 -5 15 -8.5t12.5 -2t9 10.5t3.5 29v31h7v-277q0 -4 -3 -4t-3 2t-1 4v4q-2 21 -3 45t-4.5 48t-10 47t-19.5 42q-21 32 -61.5 51.5t-91.5 22.5z" />
    <glyph glyph-name="T" unicode="T" horiz-adv-x="627" 
d="M138 693q-38 0 -62 -10.5t-37.5 -29.5t-19 -47t-5.5 -62v-40q0 -7 -4 -7.5t-4 7.5v165q0 23 4 27t24 4h541q20 0 23.5 -4t3.5 -27v-165q0 -8 -3.5 -7.5t-3.5 7.5v40q0 34 -5.5 62t-19 47t-38 29.5t-61.5 10.5h-84q-15 0 -24 -0.5t-14.5 -3.5t-7 -10t-1.5 -20v-618
q0 -13 1.5 -20t7 -10t14.5 -3.5t24 -0.5h65q2 0 5.5 -0.5t2.5 -3.5q0 -3 -8 -3h-295q-8 0 -8 3q-1 3 2.5 3.5t5.5 0.5h65q15 0 24 0.5t14.5 3.5t7 10t1.5 20v618q0 13 -1.5 20t-7 10t-14.5 3.5t-24 0.5h-84z" />
    <glyph glyph-name="U" unicode="U" horiz-adv-x="648" 
d="M663 700q7 0 8 -3q0 -3 -3 -3.5t-5 -0.5h-51q-23 0 -33 -1.5t-13 -12.5v-465q-2 -100 -54 -156t-150 -58q-77 -1 -125.5 18t-76 50.5t-37.5 72t-10 82.5v436q0 13 -1.5 20t-7 10t-14.5 3.5t-24 0.5h-65h-5t-3 3q0 4 8 4h295q8 0 8 -3t-3 -3.5t-5 -0.5h-64
q-15 0 -24.5 -0.5t-14.5 -3.5t-6.5 -10t-1.5 -20v-441q0 -27 6.5 -63t25.5 -68t53.5 -54t90.5 -23q45 -1 82 13.5t62.5 41t39.5 64.5t13 84v466q-3 11 -12.5 12.5t-32.5 1.5h-51q-2 0 -5 0.5t-3 3.5q1 3 8 3h201v0z" />
    <glyph glyph-name="V" unicode="V" horiz-adv-x="643" 
d="M700 693q-28 0 -40.5 -12.5t-22.5 -34.5l-288 -639q-5 -9 -9 1l-292 669q-3 8 -10.5 12t-15.5 4h-9q-7 0 -7 4q0 3 7 3h195q8 0 7.5 -3.5t-7.5 -3.5h-71q-9 0 -13 -3t0 -11l252 -586l246 550q12 26 -6 38t-52 12h-52q-5 0 -4.5 3.5t5.5 3.5h235q5 0 5 -3.5t-5 -3.5h-48v0
z" />
    <glyph glyph-name="W" unicode="W" horiz-adv-x="934" 
d="M367 677q-2 8 -9.5 12t-15.5 4h-9q-7 0 -7 4q1 3 7 3h195q8 0 7.5 -3.5t-7.5 -3.5h-71q-19 0 -14 -14l233 -582l229 546q11 27 -5 38.5t-51 11.5h-52q-5 0 -4.5 3.5t5.5 3.5h235q5 0 5.5 -3.5t-5.5 -3.5h-47q-29 0 -42.5 -12.5t-23.5 -34.5l-272 -639q-5 -11 -8 1
l-171 421l-176 -422q-4 -10 -9 1l-269 669q-3 8 -10.5 12t-15.5 4h-9q-7 0 -7 4q0 3 7 3h195q8 0 7.5 -3.5t-7.5 -3.5h-71q-9 0 -13 -3t0 -11l232 -575l140 340z" />
    <glyph glyph-name="X" unicode="X" horiz-adv-x="628" 
d="M57 7q28 0 40 13.5t24 34.5l166 280l-241 342q-8 11 -16 13.5t-16 2.5h-18q-7 0 -7 4q0 3 7 3h214q8 0 7.5 -3.5t-7.5 -3.5h-67q-19 0 -14 -14l225 -312l170 289q14 26 3 31.5t-35 5.5h-85q-5 0 -4.5 3.5t5.5 3.5h235q5 0 5.5 -3.5t-5.5 -3.5h-47q-14 0 -23.5 -3.5
t-16.5 -10t-12.5 -15t-11.5 -18.5l-171 -288l241 -335q8 -11 15.5 -13.5t15.5 -2.5h19q7 0 7 -4q0 -3 -7 -3h-222q-8 0 -7.5 3.5t7.5 3.5h72q9 0 10.5 3t-1.5 8l-217 308l-165 -282q-8 -13 -8.5 -20.5t4.5 -11t14.5 -4.5t21.5 -1h85q5 0 4.5 -3.5t-5.5 -3.5h-235
q-5 0 -5.5 3.5t4.5 3.5h48v0z" />
    <glyph glyph-name="Y" unicode="Y" horiz-adv-x="559" 
d="M60 677q-8 11 -16 13.5t-16 2.5h-18q-7 0 -7 4q0 3 7 3h214q8 0 7.5 -3.5t-7.5 -3.5h-67q-19 0 -14 -14l216 -370l165 348q12 26 2 31t-34 5h-85q-5 0 -5 3.5t5 3.5h236q5 0 5 -3.5t-5 -3.5h-48q-28 0 -40.5 -13t-22.5 -34l-166 -349v-256q0 -13 1.5 -20t7 -10t14.5 -3.5
t24 -0.5h65h5t3 -4q-1 -3 -8 -3h-295q-8 0 -8 3q-1 4 2.5 4h5.5h64q15 0 24.5 0.5t14.5 3.5t6.5 10t1.5 20v235z" />
    <glyph glyph-name="Z" unicode="Z" horiz-adv-x="615" 
d="M167 693q-31 0 -55.5 -10.5t-41 -28t-25.5 -39t-9 -43.5v-115q0 -6 -3 -6q-4 -2 -4 5v221q0 11 2.5 17t11.5 6h531q5 0 4 -3.5t-3 -6.5l-494 -683h372q37 0 62.5 15t40.5 39t21.5 54.5t6.5 62.5v112q0 6 4 6q4 2 4 -5v-268q0 -11 -3 -17t-12 -6h-578q-5 0 -5.5 3t1.5 7
l490 683h-318z" />
    <glyph glyph-name="bracketleft" unicode="[" horiz-adv-x="166" 
d="M21 -188v875q0 14 1.5 20.5t15.5 6.5h102q6 0 6 -4.5t-6 -4.5h-78v-909h78q6 0 6 -4.5t-6 -4.5h-106q-12 0 -12.5 6t-0.5 19z" />
    <glyph glyph-name="backslash" unicode="\" horiz-adv-x="283" 
d="M259 0l-261 714h12l261 -714h-12z" />
    <glyph glyph-name="bracketright" unicode="]" horiz-adv-x="176" 
d="M145 -188q0 -13 -0.5 -19t-12.5 -6h-106q-6 0 -6 4.5t6 4.5h78v909h-78q-6 0 -6 4.5t6 4.5h102q14 0 15.5 -6.5t1.5 -20.5v-875v0z" />
    <glyph glyph-name="asciicircum" unicode="^" horiz-adv-x="652" 
d="M14 373l-5 4l302 370h9l302 -370l-4 -3l-303 366z" />
    <glyph glyph-name="underscore" unicode="_" horiz-adv-x="604" 
d="M574 -16h-544v15h544v-15z" />
    <glyph glyph-name="grave" unicode="`" horiz-adv-x="207" 
d="M185 574q5 -9 -5 -4q-26 15 -48 27q-19 11 -37.5 21.5t-27.5 16.5q-21 13 -34.5 27.5t-11.5 29.5q1 12 6.5 17.5t12 7.5t12 1.5t6.5 -0.5q18 -2 26 -11.5t20 -25.5z" />
    <glyph glyph-name="a" unicode="a" horiz-adv-x="509" 
d="M509 161q1 -21 0.5 -50t-7.5 -54.5t-23.5 -42.5t-46.5 -15q-44 4 -66 34t-24 71q-18 -32 -42.5 -52.5t-51 -33t-52.5 -17t-46 -2.5q-40 2 -67.5 13.5t-41.5 36.5q-8 15 -10 34t2 36q5 24 19.5 40.5t35.5 28.5t46 20t51 16q18 5 39.5 12t43 15.5t41 19.5t33.5 24v57
q0 19 -7.5 36t-20 30.5t-28.5 21.5t-32 8q-52 -1 -80.5 -17.5t-36.5 -37.5q-8 -22 1 -37t31 -3q3 2 5 2t5 -3q6 -7 6.5 -18.5t-4.5 -22.5t-15 -19.5t-26 -8.5q-24 0 -38 11.5t-19 28t-2.5 34.5t11.5 31q13 18 33 30t42.5 19.5t44.5 11t39 4.5q72 2 110.5 -31.5t38.5 -110.5
v-223q0 -22 7.5 -44.5t27.5 -30.5q8 -3 21 -0.5t21 10.5q8 9 13 20.5t7.5 24t3.5 24.5t1 21q1 14 0.5 26t-0.5 22q0 5 3.5 5t3.5 -5zM189 11q30 1 57 13t48 29t33.5 36t14.5 33l-1 167q-15 -12 -34 -23.5t-40 -21t-41.5 -17.5t-36.5 -14q-42 -14 -62.5 -32.5t-25.5 -54.5
q-2 -14 -1.5 -31t5.5 -31q8 -23 28.5 -39t55.5 -14z" />
    <glyph glyph-name="b" unicode="b" horiz-adv-x="497" 
d="M288 10q40 0 64.5 18t37.5 46t17.5 62.5t4.5 67.5v56q0 35 -4.5 68t-19 58.5t-40.5 41t-69 15.5q-34 0 -60.5 -15.5t-44.5 -40.5t-28 -56t-11 -61v-105q3 -30 14 -57.5t30 -49.5t46.5 -35t62.5 -13zM-8 0q-5 0 -4.5 3.5t5.5 3.5h83v686h-83q-5 0 -4.5 3.5t4.5 3.5h117
q21 0 22.5 -6.5t2.5 -17.5v-365q5 28 18 53.5t31.5 45t42 31.5t50.5 12q57 0 95.5 -18t61 -50t31.5 -75t7 -93q0 -50 -10 -89.5t-32 -67.5t-57 -43.5t-85 -16.5q-30 0 -56 10.5t-46 29t-33 43t-18 52.5q-1 -30 -1 -57v-59q0 -12 -4 -15.5t-16 -3.5h-74.5h-36.5h-11h2.5h4
t-6.5 0z" />
    <glyph glyph-name="c" unicode="c" horiz-adv-x="400" 
d="M240 452q23 0 47.5 -5t49.5 -20q15 -9 24.5 -21.5t14.5 -26t4.5 -27t-4.5 -24.5q-10 -20 -29 -27q-17 -5 -30.5 0t-21 15.5t-8 23t7.5 22.5q1 1 12.5 -2t22.5 5q6 4 7 11.5t-0.5 16.5t-6 17t-10.5 14q-15 15 -37.5 20t-42.5 4q-35 -1 -60 -13t-42 -31.5t-27.5 -45
t-15.5 -54.5q-3 -17 -4 -41t-1 -49t2 -48.5t7 -40.5q12 -45 42.5 -79.5t81.5 -37.5q46 -3 89.5 15.5t76.5 60.5l2.5 2.5t3.5 -0.5q1 -2 -1 -6q-38 -49 -83 -67t-105 -13q-45 3 -78 20.5t-54.5 46.5t-32 68t-10.5 85q1 115 55 174.5t154 57.5z" />
    <glyph glyph-name="d" unicode="d" horiz-adv-x="541" 
d="M374 130q-6 -26 -21 -49.5t-36.5 -41.5t-48 -28.5t-53.5 -10.5q-50 0 -84.5 15.5t-56 44t-32 67.5t-10.5 86q0 50 10 95t34 78.5t63.5 51.5t97.5 15q21 -2 42.5 -10.5t40 -23t32.5 -35t21 -44.5l1 353h-83q-5 0 -5 3.5t5 3.5h116q21 0 23 -7.5t2 -18.5v-586
q0 -22 7.5 -44.5t27.5 -30.5q8 -3 20.5 -0.5t21.5 11.5q17 17 20.5 44t4.5 46q1 13 0.5 25t-0.5 22q0 5 3 5t4 -5q0 -19 -0.5 -47.5t-7.5 -55t-23 -44t-47 -15.5q-37 3 -57.5 25.5t-28.5 54.5q-3 14 -2.5 25.5t-0.5 25.5zM373 148v44.5v34v34v44.5q-1 28 -12.5 51.5t-30 41
t-42.5 28t-49 12.5q-47 3 -75.5 -13.5t-45 -46.5t-22 -69.5t-5.5 -81.5v-45q0 -33 6 -62t21 -50.5t39.5 -35.5t60.5 -18q28 -3 55 7.5t48 29.5t35 44t17 51z" />
    <glyph glyph-name="e" unicode="e" horiz-adv-x="427" 
d="M413 102q2 3 5 0l-2 -5q-18 -27 -41.5 -46t-50.5 -31t-56 -17t-57 -3q-45 3 -78 20.5t-54.5 46.5t-32 68t-10.5 85q0 50 11.5 92.5t36 73.5t62.5 48.5t90 17.5q49 0 84.5 -17t58 -47.5t32.5 -72t7 -89.5q0 -10 -11 -10h-312q0 -26 2 -50t7 -41q12 -45 42.5 -79t81.5 -38
q27 -2 54.5 5t53 20t45.5 31t32 38zM100 304q-2 -16 -3.5 -37t-1.5 -44h274q1 35 -1.5 74t-15 72t-39.5 55t-75 22q-30 0 -53.5 -11.5t-40.5 -31t-28 -45.5t-16 -54z" />
    <glyph glyph-name="f" unicode="f" horiz-adv-x="304" 
d="M260 596q1 0 1.5 -0.5t2.5 -0.5q31 -3 43 11.5t7.5 33.5t-23.5 36t-49 17q-38 1 -60 -22t-30.5 -56.5t-5.5 -71t15 -66.5q2 -4 2 -9v-15h105h6t3 -3t-3 -3.5t-6 -0.5h-105v-439h49q6 0 6 -4q0 -2 -0.5 -2.5t-5.5 -0.5h-197q-3 0 -5 2q-3 5 5 5h90v439h-89q-6 0 -6 3.5
t5 3.5h90v36q-1 28 4 64t19.5 68t42 54t71.5 22q19 0 36.5 -8.5t29.5 -23t18 -34t2 -40.5q-3 -17 -15 -32.5t-37 -12.5q-16 2 -22.5 10t-7 17t4 16t9.5 7z" />
    <glyph glyph-name="g" unicode="g" horiz-adv-x="469" 
d="M37 282q-2 49 17.5 82.5t49.5 54t66.5 29t70.5 6.5q13 0 29 -2q29 -3 66 -18q-4 6 -7 14q-10 26 -1.5 53.5t34.5 40.5q23 10 44 6.5t32 -17.5q9 -11 10 -24.5t-5 -24.5t-17.5 -17t-25.5 -3q-3 0 -5 1l-4 2q-2 2 -1 3.5t2 3.5q10 22 -0.5 33.5t-26.5 10.5
q-16 0 -24.5 -10.5t-10.5 -25t2 -28.5t14 -22q14 -7 30 -18t29.5 -27t22 -37t8.5 -47q1 -58 -20 -92.5t-52 -53t-65.5 -24t-61.5 -5.5q-16 0 -26 0.5t-18.5 2t-18.5 3.5t-27 4q-30 -2 -52.5 -17.5t-29.5 -33.5t5 -32.5t51 -14.5q25 0 58 3t69.5 4.5t73.5 0t69 -11t56.5 -29
t37.5 -52.5q16 -40 2 -79t-44 -71q-51 -53 -110.5 -70.5t-129.5 -19.5q-55 -2 -96 13.5t-64.5 40t-30 55.5t6.5 61t45.5 56t87.5 40q-17 -3 -39.5 -1.5t-42.5 7.5t-35 17.5t-18 29.5q-3 17 7.5 34.5t28.5 32.5t40.5 26t43.5 14q-42 11 -71 46.5t-29 96.5zM174 -19
q-43 -11 -70.5 -34t-39.5 -50.5t-8.5 -57.5t21 -55t50 -42.5t78.5 -20.5q30 -2 62.5 2.5t62.5 16t56.5 29.5t44.5 44q18 25 22.5 54.5t-11.5 61.5q-14 29 -47 41.5t-72.5 16t-80 0.5t-68.5 -6zM242 449q-77 1 -112.5 -33.5t-36.5 -110.5v-36.5t5 -35.5q4 -16 13.5 -33.5
t25.5 -32.5t40.5 -24t60.5 -9q66 4 97.5 27.5t39.5 77.5q3 22 3 48t-1 48q-2 60 -38.5 86t-96.5 28z" />
    <glyph glyph-name="h" unicode="h" horiz-adv-x="592" 
d="M592 163q1 -15 0.5 -38t-3.5 -45q-3 -17 -7.5 -32t-12.5 -26t-21 -17t-33 -4q-44 3 -65.5 30.5t-23.5 68.5l-1 210q0 60 -34.5 96t-94.5 34q-28 0 -53.5 -14t-46 -36t-35 -49.5t-19.5 -54.5v-279h49q5 0 5 -4q0 -3 -5 -3h-197q-3 0 -5 2q-3 5 5 5h90v686h-83
q-5 0 -4.5 3.5t4.5 3.5h117q20 0 22 -7.5t2 -19.5v-366q6 25 21 50t35.5 45.5t45.5 33.5t53 15q33 2 66.5 -5t60.5 -24t43.5 -44.5t16.5 -66.5v-221q0 -22 7.5 -44.5t26.5 -30.5q9 -3 21.5 -0.5t20.5 10.5q9 9 14 20.5t7.5 24t3.5 24.5t1 21q1 14 0.5 26t-0.5 22q0 5 3 5
t3 -5z" />
    <glyph glyph-name="i" unicode="i" horiz-adv-x="241" 
d="M131 89q0 -22 7.5 -44.5t26.5 -30.5q9 -3 21.5 -0.5t21.5 10.5q8 9 13 20.5t7.5 24t3.5 24.5t1 21q1 14 0.5 26t-0.5 22q0 5 3 5t3 -5q1 -15 0.5 -38t-3.5 -45q-3 -17 -7.5 -32t-12.5 -26t-21 -17t-33 -4q-44 3 -65.5 30.5t-23.5 68.5q-1 86 -1 173v174h-82q-5 0 -5 3.5
t5 3.5h116q20 0 22.5 -8t2.5 -19v-337zM99 604q-13 0 -21.5 9t-8.5 22t8.5 21.5t21.5 8.5t22 -8.5t9 -21.5t-9 -22t-22 -9z" />
    <glyph glyph-name="j" unicode="j" horiz-adv-x="217" 
d="M31 -285q21 2 35.5 11t24 22.5t14 29t4.5 30.5q1 18 -2.5 34.5t-8 33t-8.5 33t-4 34.5v503h-83q-5 0 -4.5 3.5t4.5 3.5h117q20 0 22 -8t2 -19l1 -502q0 -27 -2.5 -63.5t-14 -69.5t-34.5 -56.5t-64 -25.5q-34 1 -55 13t-31 29t-10 36t8 35t24 26t37 9q20 -1 29 -9.5
t11 -19.5t-1 -21.5t-6 -14.5q-3 -3 -6.5 -2t-6.5 2q-17 5 -33 -4.5t-15 -29.5q2 -20 16.5 -32.5t39.5 -10.5zM112 604q-13 0 -21.5 9t-8.5 22t8.5 21.5t21.5 8.5t22 -8.5t9 -21.5t-9 -22t-22 -9z" />
    <glyph glyph-name="k" unicode="k" horiz-adv-x="584" 
d="M148 7h49q5 0 5.5 -3.5t-5.5 -3.5h-197q-5 0 -5 3.5t5 3.5h90v686h-83q-5 0 -4.5 3.5t4.5 3.5h117q20 0 22 -7.5t2 -19.5v-497l253 236q12 11 12.5 22.5t-27.5 11.5h-103q-5 0 -5 3.5t6 3.5h247q6 0 6 -3.5t-5 -3.5h-63q-17 0 -31 -12.5t-24 -22.5l-154 -144
q33 10 70.5 10t70 -12.5t53.5 -39t21 -69.5v-67q0 -22 7.5 -44.5t27.5 -30.5q8 -3 21 -0.5t21 10.5q8 9 13 20.5t7.5 24t3.5 24.5t1 21q1 14 0.5 25.5t-0.5 21.5q0 5 3.5 5t3.5 -5v-35t-3 -40.5t-8.5 -39t-15.5 -29.5q-8 -9 -20.5 -14t-30.5 -3q-43 4 -65 27.5t-24 64.5v56
q2 46 -13.5 73t-41 38t-57.5 8t-63 -16l-94 -88v-156z" />
    <glyph glyph-name="l" unicode="l" horiz-adv-x="235" 
d="M223 161q0 5 3 5t4 -5q0 -15 -0.5 -38.5t-3.5 -44.5q-3 -17 -7.5 -32t-12.5 -26t-21 -17t-33 -4q-44 3 -65.5 30.5t-23.5 68.5v595h-83q-5 0 -5 3.5t5 3.5h116q21 0 23 -8t2 -19v-586q0 -22 7.5 -44t27.5 -30q8 -4 20.5 -1t21.5 11q17 17 20.5 44t4.5 46q1 14 0.5 26
t-0.5 22z" />
    <glyph glyph-name="m" unicode="m" horiz-adv-x="878" 
d="M457 7h26q6 0 6 -4q0 -2 -0.5 -2.5t-5.5 -0.5h-126q-3 0 -5 2q-3 5 5 5h41v290q0 27 -6 53t-19 46.5t-34 32.5t-51 11q-36 -1 -62 -18.5t-43 -44.5t-26 -59.5t-12 -62.5v-248h49q6 0 6 -4q0 -2 -0.5 -2.5t-5.5 -0.5h-188q-3 0 -5 2q-3 5 5 5h81v439h-83q-5 0 -4.5 3.5
t4.5 3.5h117q20 0 22 -7.5t2 -18.5v-125q6 26 17.5 51.5t28.5 46.5t41 34.5t55 15.5q36 1 66.5 -7.5t53 -27t36 -47t13.5 -66.5q6 28 19 54t33 46t46 32.5t57 14.5q32 1 60.5 -8t49.5 -28t33.5 -46.5t12.5 -62.5v-215q0 -22 7.5 -44.5t27.5 -30.5q8 -3 20.5 -0.5t21.5 11.5
q17 17 20.5 44t4.5 46q1 13 0.5 25.5t-0.5 21.5q0 5 3.5 5t3.5 -5v-34t-2.5 -40t-8 -38.5t-14.5 -30.5q-8 -10 -21 -15.5t-32 -3.5q-44 4 -65.5 31t-23.5 68v205q0 56 -23.5 92t-74.5 41q-34 3 -61.5 -13t-47 -41t-31 -54.5t-14.5 -52.5v-269z" />
    <glyph glyph-name="n" unicode="n" horiz-adv-x="597" 
d="M146 7h49q6 0 6 -4q0 -3 -6 -3h-190q-3 0 -5 2q-3 5 5 5h83v439h-83q-5 0 -4.5 3.5t4.5 3.5h117q20 0 22 -7.5t2 -18.5v-123q6 25 21 50t35.5 45.5t45.5 33.5t53 15q33 2 66.5 -5t60.5 -24t43.5 -44.5t16.5 -66.5v-219q0 -22 7.5 -44.5t26.5 -30.5q9 -3 21.5 -0.5
t21.5 10.5q8 9 13 20.5t7.5 24t3.5 24.5t1 21q1 14 0.5 25.5t-0.5 21.5q0 5 3 5t3 -5v-34t-2.5 -40t-7.5 -38.5t-14 -29.5q-8 -10 -21 -15.5t-32 -3.5q-44 3 -65.5 30.5t-23.5 68.5l-1 208q0 60 -34.5 96t-94.5 34q-28 0 -53.5 -14t-46 -36t-35 -49.5t-19.5 -54.5v-276z" />
    <glyph glyph-name="o" unicode="o" horiz-adv-x="484" 
d="M242 454q46 -2 85 -16.5t67.5 -43t44 -70.5t13.5 -97q2 -55 -13.5 -97t-44 -70.5t-67.5 -43.5t-85 -16q-45 1 -84 16t-67.5 43.5t-44 70.5t-13.5 97q-2 55 13.5 97t44 70.5t67.5 43t84 16.5zM390 228q1 111 -34.5 165t-113.5 56q-77 -2 -112.5 -56t-34.5 -165
q0 -39 5 -78.5t20.5 -71t44.5 -52t77 -21.5q48 1 77.5 21.5t45 52t20.5 71t5 78.5z" />
    <glyph glyph-name="p" unicode="p" horiz-adv-x="508" 
d="M132 169q0 -27 12 -55.5t32 -52t46.5 -38.5t55.5 -13q30 1 53.5 13.5t40.5 32.5t27 46t15 56q3 16 4 34.5t1 38t-1 38.5t-2 35q-3 27 -10 51t-21.5 43t-37.5 31t-58 14q-38 2 -66 -14.5t-47.5 -44t-30 -61.5t-13.5 -65v-89zM210 -243q3 0 3 -4q0 -3 -3 -3h-194
q-5 0 -5 3.5t5 3.5h57v689h-82q-6 0 -6.5 3.5t5.5 3.5h121q12 0 16 -4t4 -16v-142q5 31 18 60.5t33 53t47 37.5t60 13q50 -1 86 -17.5t58.5 -46t33 -70.5t10.5 -91q0 -54 -12.5 -97t-37.5 -73t-62 -45.5t-86 -14.5q-54 2 -92 39t-55 90v-372h78z" />
    <glyph glyph-name="q" unicode="q" horiz-adv-x="500" 
d="M368 283q-3 26 -11 51t-22 46.5t-34.5 37t-48.5 21.5q-18 5 -36 5q-41 0 -65.5 -18t-37.5 -46t-17.5 -62.5t-4.5 -67.5v-57q0 -35 5 -67.5t19.5 -57t41 -39.5t69.5 -15q36 0 61.5 16t42.5 41.5t26 57t12 63.5v91zM368 143q-5 -27 -17.5 -53t-31.5 -45.5t-44 -31.5
t-55 -12q-55 1 -92 19.5t-59 50t-31 74t-7 92.5q0 47 9.5 85.5t29.5 66.5t52 44.5t78 19.5q31 2 59 -6.5t50.5 -25.5t37.5 -42t21 -56v104q0 11 2.5 18.5t22.5 7.5h117q4 0 4 -3.5t-4 -3.5h-83v-690h71q5 0 5 -3t-5 -3h-178q-6 0 -6 3.5t6 2.5h49v41.5v75.5v90.5v87.5
t-0.5 66z" />
    <glyph glyph-name="r" unicode="r" horiz-adv-x="382" 
d="M153 7h49q5 0 5.5 -1t0.5 -3t-0.5 -2.5t-5.5 -0.5h-196q-5 0 -5 2q-3 5 4 5h90l1 439h-91q-5 0 -5 3.5t5 3.5h124q21 0 23 -8t2 -19v-119q3 30 15 61t31.5 55t47 37.5t61.5 9.5q39 -5 61.5 -32.5t16.5 -65.5q-2 -11 -8 -21.5t-15 -18.5t-21.5 -12.5t-27.5 -3.5
q-12 1 -21 7.5t-13 16t-3 20.5t8 21q2 3 5.5 3h8.5q21 -2 30.5 6.5t9.5 20.5t-8.5 24.5t-23.5 18.5q-23 8 -51 -2.5t-55 -45.5q-14 -18 -23 -39t-14.5 -42.5t-8 -42t-2.5 -37.5q-1 -17 -1 -47v-64.5v-68v-58.5z" />
    <glyph glyph-name="s" unicode="s" horiz-adv-x="408" 
d="M102 327q19 -15 47 -28.5t58.5 -28t60.5 -30t54 -33.5t38.5 -38.5t14.5 -45.5q0 -34 -17.5 -58t-43 -39t-55.5 -21.5t-56 -6.5q-42 0 -80 14t-70 37q-14 10 -14 -7v-40q0 -5 -4 -5q-3 0 -3 6v157q0 6 3 6q4 0 4 -6q-1 -42 19.5 -79t58.5 -56q37 -18 77 -19.5t77 15.5
q28 13 41.5 40.5t3.5 57.5q-9 26 -34.5 45t-58.5 35t-69 31.5t-65 33.5t-47 40.5t-16 53.5q2 27 19 45.5t42 29.5t53.5 16t54.5 4q9 0 25 -1t34.5 -5t38.5 -13t38 -24q4 -3 7 -2t3 5v47v3.5t3 1.5q4 0 4 -6v-157q0 -6 -3 -6q-4 0 -4 6q0 41 -13 68.5t-34 44t-47 24t-52 8.5
q-20 1 -50 -6.5t-50 -23.5q-26 -21 -21.5 -46.5t28.5 -43.5z" />
    <glyph glyph-name="t" unicode="t" horiz-adv-x="236" 
d="M230 161q1 -15 0 -38t-3 -45q-3 -17 -7.5 -32t-12.5 -26t-21 -17t-33 -4q-44 3 -65.5 30.5t-24.5 68.5v348h-83q-4 0 -4 3.5t4 3.5h34q55 6 78 54t23 139v20q0 3 3 3q4 0 4 -3v-213h66q5 0 5 -3.5t-5 -3.5h-66v-358q0 -22 7.5 -44.5t26.5 -30.5q9 -4 21.5 -1t20.5 11
q9 9 14 20.5t7.5 24t3.5 24.5t1 21q1 14 0.5 26t-0.5 22q0 5 3 5t3 -5z" />
    <glyph glyph-name="u" unicode="u" horiz-adv-x="582" 
d="M574 157q0 5 3.5 5t3.5 -5q0 -15 -0.5 -38t-3.5 -45q-2 -17 -6.5 -32t-13 -26t-21.5 -17t-33 -4q-43 4 -65 31t-24 68v46q-10 -29 -26 -55t-38.5 -46.5t-51.5 -32.5t-65 -12q-76 -2 -118.5 34.5t-42.5 114.5v74.5t0.5 79t0.5 78v71.5h-83q-5 0 -5 3.5t5 3.5h116
q21 0 23 -7.5t2 -19.5v-287q0 -55 24.5 -86t82.5 -38q34 -5 64 7.5t53 36t38.5 54t20.5 62.5v271h-83q-5 0 -5 3.5t5 3.5h117q20 0 22 -7.5t2 -18.5v-343q0 -22 7.5 -44.5t27.5 -30.5q8 -3 21 -0.5t21 10.5q8 9 13 20.5t7.5 24t3.5 24.5t1 21q1 14 0.5 26t-0.5 22z" />
    <glyph glyph-name="v" unicode="v" horiz-adv-x="519" 
d="M282 14l172 419q2 5 1 8t-3.5 4t-5 1h-3.5h-101q-8 0 -9 3.5t7 3.5h213q5 0 5 -3.5t-5 -3.5h-59q-19 0 -24 -3.5t-10 -14.5l-174 -428h-61l-176 419q-11 16 -20 21.5t-25 5.5h-35q-7 0 -6.5 3.5t7.5 3.5h192q5 0 6 -3.5t-6 -3.5h-44h-4t-5.5 -1.5t-3 -4.5t2.5 -8z" />
    <glyph glyph-name="w" unicode="w" horiz-adv-x="858" 
d="M281 17l137 336l-27 66q-11 16 -20 21.5t-25 5.5h-35q-7 0 -6.5 3.5t7.5 3.5h192q5 0 6 -3.5t-6 -3.5h-44h-4t-5.5 -1.5t-3 -4.5t2.5 -8l173 -415l170 416q2 5 1 8t-3.5 4t-5 1h-3.5h-101q-8 0 -8.5 3.5t7.5 3.5h212q6 0 6 -3.5t-6 -3.5h-59q-19 0 -24 -3.5t-10 -14.5
l-173 -428h-57l-146 343l-139 -343h-57l-178 419q-11 16 -20 21.5t-25 5.5h-35q-7 0 -6.5 3.5t7.5 3.5h192q5 0 6 -3.5t-6 -3.5h-44h-4t-5.5 -1.5t-3 -4.5t2.5 -8z" />
    <glyph glyph-name="x" unicode="x" horiz-adv-x="537" 
d="M283 253l156 176q7 7 5 12t-13 5h-37q-7 0 -7 4q0 3 6 3h128q6 0 6 -3.5t-6 -3.5h-31q-17 0 -23 -3.5t-16 -14.5l-163 -183l148 -201q14 -22 25 -29.5t28 -7.5h32q6 0 6 -3.5t-6 -3.5h-180q-8 0 -7 3.5t8 3.5h31h4t5 1.5t3 4.5t-3 9l-132 181l-157 -178q-7 -8 -5 -13
t13 -5h37q7 0 7 -3q0 -4 -6 -4h-128q-6 0 -6 3.5t6 3.5h30q17 0 23.5 4t16.5 14l164 185l-154 209q-10 16 -19.5 21.5t-24.5 5.5h-35q-7 0 -6.5 3.5t7.5 3.5h180q5 0 6 -3.5t-6 -3.5h-32h-4t-5.5 -1.5t-3 -4.5t2.5 -8z" />
    <glyph glyph-name="y" unicode="y" horiz-adv-x="491" 
d="M308 68l144 366q2 5 1 7.5t-3.5 3.5t-5 1h-3.5h-30q-8 0 -8.5 3.5t7.5 3.5h121q5 0 5 -3.5t-6 -3.5h-38q-19 0 -24 -3.5t-10 -14.5l-223 -573q-8 -21 -19 -41.5t-33 -31.5q-11 -6 -24.5 -8t-26.5 0t-24.5 8t-18.5 18q-8 12 -8.5 27.5t6 29t19.5 23t32 8.5q15 -1 25 -7.5
t14 -16.5t2 -20.5t-9 -19.5q-4 -4 -9.5 -1.5t-11.5 1.5q-7 -1 -11 -5.5t-5 -9.5t2 -10t11 -6q15 -3 28 3t23 16.5t17.5 23.5t12.5 25l69 176h-37l-190 382q-10 16 -19.5 21.5t-24.5 5.5h-36q-6 0 -5.5 3.5t7.5 3.5h180q5 0 6 -3.5t-6 -3.5h-33h-4t-5 -1.5t-3 -4.5t3 -8z" />
    <glyph glyph-name="z" unicode="z" horiz-adv-x="477" 
d="M321 6q21 0 47.5 6t40.5 18q15 13 20.5 30.5t6.5 36.5l1 83q0 3 0.5 6t3.5 3t3 -7v-139v-21.5t-3 -13.5t-10 -7t-20 -2l-371 1q-11 0 -13 9t3 13l349 424h-200q-56 0 -83 -12t-38 -29t-11 -37.5t-2 -36.5v-72q0 -7 -3 -7t-3 7v178q1 5 4.5 11t17.5 5h389q4 0 4.5 -3
t-1.5 -5l-355 -439h223z" />
    <glyph glyph-name="braceleft" unicode="{" horiz-adv-x="280" 
d="M246 -185q2 2 3.5 0t-2.5 -4q-21 -13 -40 -16.5t-36 -1.5q-30 3 -49.5 29t-27.5 80q-5 30 -3 64.5t5.5 70.5t7.5 72.5t4 70.5q0 23 -17 41.5t-49 22.5q-12 1 -12 6q0 3 12 5q32 4 49 22.5t17 41.5q0 34 -4 70.5t-7.5 72.5t-5.5 70.5t3 64.5q8 54 27.5 80t49.5 29
q17 2 36 -1.5t40 -16.5q4 -2 2.5 -4t-3.5 0q-9 6 -21.5 10t-25 4t-24.5 -5t-20 -17q-10 -13 -13.5 -39.5t-3.5 -59t3 -67.5t6.5 -65.5t6.5 -52.5t3 -29q0 -20 -2 -38t-8.5 -33t-20 -25.5t-36.5 -16.5v-1q23 -6 36.5 -16.5t20 -25.5t8.5 -33t2 -38q0 -7 -3 -29t-6.5 -52.5
t-6.5 -65.5t-3 -67.5t3.5 -59t13.5 -39.5q8 -12 20 -17t24.5 -5t25 4t21.5 10z" />
    <glyph glyph-name="bar" unicode="|" horiz-adv-x="78" 
d="M48 714v-753h-18v753h18z" />
    <glyph glyph-name="braceright" unicode="}" horiz-adv-x="280" 
d="M34 -185q9 -6 21 -10t25 -4t25 5t20 17q10 13 13.5 39.5t3.5 59t-3 67.5t-6.5 65.5t-6.5 52.5t-3 29q0 20 2 38t8.5 33t20 25.5t36.5 16.5v1q-23 6 -36.5 16.5t-20 25.5t-8.5 33t-2 38q0 7 3 29t6.5 52.5t6.5 65.5t3 67.5t-3.5 59t-13.5 39.5q-8 12 -20 17t-25 5t-25 -4
t-21 -10q-2 -2 -3.5 0t2.5 4q21 13 40 16.5t36 1.5q30 -3 49.5 -29t27.5 -80q4 -30 2.5 -64.5t-5 -70.5t-7.5 -72.5t-4 -70.5q0 -23 17 -41.5t49 -22.5q12 -2 12 -5q0 -5 -12 -6q-32 -4 -49 -22.5t-17 -41.5q0 -34 4 -70.5t7.5 -72.5t5 -70.5t-2.5 -64.5q-8 -54 -27.5 -80
t-49.5 -29q-17 -2 -36 1.5t-40 16.5q-4 2 -2.5 4t3.5 0z" />
    <glyph glyph-name="asciitilde" unicode="~" horiz-adv-x="438" 
d="M408 376q-11 -77 -46 -100.5t-98 -4.5q-30 9 -69.5 22.5t-75.5 17.5t-60 -10t-22 -60h-4q-7 37 10 68t49 42q31 11 66 3.5t70 -19.5t69 -22.5t64 -5.5q10 1 18 9.5t13 19t7.5 21.5t2.5 19h6v0z" />
    <glyph glyph-name="exclamdown" unicode="&#xa1;" horiz-adv-x="144" 
d="M113 -136q1 -21 0.5 -42.5t-4 -38.5t-11 -27t-22.5 -10q-14 0 -21.5 10.5t-11 27t-4 37.5t0.5 42q1 38 5 76t8.5 86.5t9 112.5t7.5 154h4q3 -53 9 -119t12.5 -128.5t11.5 -112t6 -68.5zM30 416q0 15 12 26.5t31 11.5q15 0 26.5 -11.5t11.5 -26.5q0 -19 -11.5 -31
t-26.5 -12q-19 0 -31 12t-12 31z" />
    <glyph glyph-name="cent" unicode="&#xa2;" horiz-adv-x="423" 
d="M237 531q23 -1 47.5 -6t49.5 -19q30 -18 39.5 -47.5t-0.5 -51.5q-8 -21 -28 -27q-17 -6 -30.5 -1t-21.5 15.5t-8.5 23t7.5 22.5q2 2 6 0.5t7 -2.5q14 -1 22 5q11 9 6.5 28.5t-15.5 30.5q-16 15 -38.5 20t-42.5 4q-6 0 -12 -0.5t-11 -1.5v-437q2 0 3.5 -0.5t3.5 -0.5
q46 -2 89.5 16t75.5 60l2.5 2.5t3.5 -0.5t-1 -5q-36 -48 -78.5 -66t-98.5 -16v-118h-7v119h-4q-45 3 -78 20.5t-54.5 46.5t-32 68.5t-10.5 85.5q1 106 47.5 164.5t131.5 66.5v119h7v-119q6 1 11.5 1h11.5zM207 523q-53 -11 -79.5 -50.5t-34.5 -90.5q-3 -17 -4.5 -41
t-1.5 -49t2 -48.5t7 -39.5q11 -43 38.5 -76t72.5 -40v435z" />
    <glyph glyph-name="sterling" unicode="&#xa3;" horiz-adv-x="527" 
d="M344 532q24 14 27.5 37.5t-7.5 46.5t-26.5 36.5t-34.5 19.5t-40 6t-43 -3q-36 -5 -63 -23t-38 -46q-14 -34 -12.5 -71.5t10 -78t20.5 -82t19 -83.5h155v-8h-153q4 -28 3 -56t-10.5 -54.5t-28.5 -52t-51 -48.5q-4 -3 -3.5 -4t5.5 1q60 24 109 22t90 -15t74 -30t62 -24
q14 -3 30 0.5t30.5 18.5t24 44t10.5 76q0 2 2 2t2 -2q-1 -27 -4 -51t-10.5 -44.5t-20.5 -38t-35 -30.5q-33 -20 -61 -19t-63 19q-26 13 -52.5 30t-60.5 27.5t-78.5 9t-107.5 -24.5q-2 -1 -2 3t5 6q17 6 32 17.5t29 24.5q25 23 38 46.5t16.5 47.5t-0.5 49t-12 50h-126v8h123
q-12 36 -27 72.5t-24.5 74t-11 75.5t13.5 77q10 27 32 48.5t60 36.5q25 10 55.5 13.5t60.5 -2t55.5 -20t40.5 -40.5q18 -33 13.5 -71.5t-27.5 -65.5q-15 -17 -37 -23.5t-42 -1.5q-24 4 -36 20t-13 33.5t7.5 33t25.5 19.5q7 2 8.5 -2t3.5 -9q3 -7 8 -15.5t13.5 -14.5t20 -6.5
t27.5 9.5z" />
    <glyph glyph-name="currency" unicode="&#xa4;" horiz-adv-x="644" 
d="M318 622q50 0 96 -19.5t79 -51.5l120 106l6 -6l-122 -105q32 -33 50 -77t18 -94q0 -51 -19.5 -96.5t-51.5 -79.5l98 -100l-4 -5l-100 100q-33 -31 -76.5 -49t-93.5 -18t-95.5 18.5t-78.5 53.5l-107 -104l-6 4l108 104q-32 34 -50 77.5t-18 94.5q0 50 19 95.5t51 79.5
l-116 103l6 4l117 -102q33 32 76.5 49.5t93.5 17.5zM149 546q-72 -72 -72 -171q0 -48 20 -92.5t49 -76.5q35 -35 79 -54t93 -19q48 0 91.5 19t75.5 49q35 36 54 80t19 94q0 48 -19.5 93t-50.5 77q-35 35 -78 53t-92 18q-48 0 -92.5 -19.5t-76.5 -50.5z" />
    <glyph glyph-name="yen" unicode="&#xa5;" horiz-adv-x="666" 
d="M287 301h-189v11h182l-213 365q-8 11 -16 13.5t-16 2.5h-18q-7 0 -7 4q0 3 7 3l214 1q8 0 7.5 -3.5t-7.5 -3.5l-67 -1q-9 -1 -13 -3.5t-1 -11.5l214 -366h4l163 345q12 26 2 31.5t-34 5.5h-85q-5 0 -5 3.5t5 3.5h236q5 0 5 -3.5t-5 -3.5h-48q-28 0 -40.5 -13t-22.5 -35
l-158 -334h186v-11h-192l-2 -5v-49h194v-11h-194v-195q0 -13 1.5 -20t7 -10t14.5 -3.5t24 -0.5h65q2 0 5 -0.5t3 -3.5q-1 -3 -3 -3h-5h-295h-5.5t-2.5 3q-1 3 2.5 3.5t5.5 0.5h64q15 0 24.5 0.5t14.5 3.5t6.5 10t1.5 20v195h-203v11h203v29z" />
    <glyph glyph-name="brokenbar" unicode="&#xa6;" horiz-adv-x="70" 
d="M40 316v-355h-10v355h10zM30 714h10v-309h-10v309z" />
    <glyph glyph-name="section" unicode="&#xa7;" horiz-adv-x="532" 
d="M273 691q-19 1 -40.5 -2t-43 -9.5t-41 -17.5t-33.5 -26q-32 -35 -25.5 -73.5t41.5 -67.5q27 -23 67 -42.5t83 -38.5t85.5 -39.5t74 -46t48.5 -57.5t11 -73q-6 -37 -31 -64.5t-60 -45.5q45 -29 72 -65.5t19 -87.5q-6 -35 -29.5 -62t-56.5 -45t-71 -27.5t-71 -8.5
q-54 1 -99 16t-90 43q-16 10 -28.5 4.5t-11.5 -31.5v-14h-7v239q0 3 3 3t3 -1.5t1 -3.5v-4q1 -20 2.5 -41t5 -42t10 -41.5t19.5 -37.5q14 -20 37 -35t49.5 -25t54.5 -15.5t53 -5.5q34 0 64.5 9t54 26t37 41.5t14.5 54.5q1 28 -16 50.5t-45 42t-64.5 36.5t-74.5 33.5
t-75 34.5t-67 39t-49 46.5t-22 57.5q-5 53 24 88t73 54q-40 24 -67 53t-30 68q-4 47 18 79.5t58 52t80.5 27.5t84.5 6q30 -1 65 -9.5t86 -40.5q8 -5 15 -8t12.5 -1.5t9 10t3.5 26.5v28h7v-252q0 -4 -4 -4q-3 0 -3 1.5v3.5v4q-2 19 -3 41t-4.5 44t-10 42.5t-19.5 38.5
q-21 29 -61.5 47t-91.5 21zM151 400q-21 -11 -36 -27q-32 -35 -25.5 -73t41.5 -68q23 -19 54.5 -35.5t67 -32t71.5 -32t68 -34.5q23 17 37 41.5t15 54.5q1 37 -27.5 64.5t-72.5 51t-95.5 45t-97.5 45.5z" />
    <glyph glyph-name="dieresis" unicode="&#xa8;" horiz-adv-x="273" 
d="M161 602q0 18 13 31t33 13q19 0 32 -13t13 -31t-13 -31t-32 -13q-20 0 -33 13t-13 31zM14 602q0 18 13 31t32 13q20 0 33 -13t13 -31t-13 -31t-33 -13q-19 0 -32 13t-13 31z" />
    <glyph glyph-name="copyright" unicode="&#xa9;" horiz-adv-x="811" 
d="M392 -29q72 0 135.5 28t111.5 76t76 112t28 136t-28 135.5t-76 111.5t-111.5 76t-135.5 28t-136 -28t-112 -76t-75.5 -111.5t-27.5 -135.5t27.5 -136t75.5 -112t112 -76t136 -28zM392 -37q-75 0 -140.5 28.5t-114 77t-77 114t-28.5 140.5q0 74 28.5 139.5t77 114t114 77
t140.5 28.5q74 0 139.5 -28.5t114 -77t77 -114t28.5 -139.5q0 -75 -28.5 -140.5t-77 -114t-114 -77t-139.5 -28.5zM410 554q-100 2 -154 -57.5t-55 -174.5q0 -46 10.5 -85t32 -68t54.5 -46.5t78 -20.5q60 -5 105 13t83 67q2 4 1 6q-2 2 -3.5 0.5l-2.5 -2.5
q-33 -42 -76.5 -60.5t-89.5 -15.5q-51 3 -81.5 37.5t-42.5 79.5q-5 17 -7 40.5t-2 48.5t1 49t4 41q5 29 15.5 54.5t27.5 45t42 31.5t60 13q20 1 42.5 -4t37.5 -20q6 -6 10.5 -14t6 -16.5t0.5 -16.5t-7 -12q-8 -6 -23 -5q-3 1 -6.5 2.5t-5.5 -0.5q-8 -10 -7.5 -22.5t8 -23
t21 -15.5t30.5 0q19 7 29 27q4 11 4.5 24.5t-4.5 27t-14.5 26t-24.5 21.5q-25 15 -49.5 20t-47.5 5z" />
    <glyph glyph-name="ordfeminine" unicode="&#xaa;" horiz-adv-x="350" 
d="M181 565q-15 -6 -29.5 -12t-26.5 -10q-23 -8 -37.5 -18.5t-17.5 -33.5q-4 -28 8 -49t46 -20q12 0 28 6t30.5 15t25 21t12.5 25l-1 99q-18 -13 -38 -23zM321 483q1 8 0.5 15t-0.5 15q0 5 4 5t5 -5q0 -11 -0.5 -25.5t-2.5 -26.5q-4 -24 -15.5 -38t-33.5 -12q-26 2 -40.5 19
t-17.5 41q-10 -15 -22 -25.5t-26 -18.5q-38 -19 -79 -16q-35 3 -56.5 21t-13.5 56q3 14 12.5 24.5t23.5 18.5t29.5 13t32.5 10q11 3 24.5 7t27 9t25.5 12t21 15v34q1 7 -1.5 17t-9 19t-17 15t-25.5 6t-27 -2.5t-21 -6.5q-21 -11 -25 -23q-5 -13 -0.5 -21.5t18.5 -1.5
q4 3 8 -1q4 -5 4.5 -12.5t-3 -15t-10.5 -13t-17 -5.5q-16 0 -25 7.5t-13 18t-2 22.5t8 20q9 11 22.5 19t28.5 13t30.5 7t27.5 2q90 0 90 -90v-138q0 -11 4.5 -25t16.5 -19q5 -2 12.5 -0.5t12.5 5.5q10 11 12.5 27.5t2.5 27.5z" />
    <glyph glyph-name="guillemotleft" unicode="&#xab;" horiz-adv-x="269" 
d="M55 299l103 -108l-2 -6l-126 105v22l126 104l2 -5zM136 299l103 -108l-2 -6l-126 105v22l126 104l2 -5z" />
    <glyph glyph-name="logicalnot" unicode="&#xac;" horiz-adv-x="413" 
d="M375 291h-345v18h363v-164h-18v146z" />
    <glyph glyph-name="uni00AD" unicode="&#xad;" horiz-adv-x="385" 
 />
    <glyph glyph-name="registered" unicode="&#xae;" horiz-adv-x="796" 
d="M434 351q23 -4 41.5 -12.5t30.5 -25.5q12 -20 14 -44t4 -46q1 -12 3 -25t6.5 -24.5t12.5 -20.5t22 -13q12 -4 26 0t20 15q3 3 3.5 4.5t3.5 1.5q4 -4 1 -10q-11 -17 -28.5 -27t-38.5 -10q-38 0 -56 17.5t-25 52.5q-6 25 -6.5 52.5t-6.5 51t-22 39t-52 15.5h-98v-194
q0 -14 7 -15t17 -1h40q9 0 9 -7q0 -4 -4 -5t-6 -1h-179q-2 0 -5.5 1t-3.5 5q0 7 9 7h39q15 0 20 2.5t5 13.5v372q0 10 -4 13t-13 3h-47q-9 -1 -8.5 6t8.5 7h215q27 0 50 -5t40 -16.5t26 -31t9 -49.5q-1 -41 -22.5 -63t-56.5 -33zM289 354l99 1q20 0 36 10q20 12 30.5 34
t10.5 45q0 19 -4 39t-17 34q-18 19 -46 19h-109v-182zM374 -29q72 0 135.5 28t111.5 76t76 112t28 136t-28 135.5t-76 111.5t-111.5 76t-135.5 28t-136 -28t-112 -76t-75.5 -111.5t-27.5 -135.5t27.5 -136t75.5 -112t112 -76t136 -28zM374 -37q-75 0 -140.5 28.5t-114 77
t-77 114t-28.5 140.5q0 74 28.5 139.5t77 114t114 77t140.5 28.5q74 0 139.5 -28.5t114 -77t77 -114t28.5 -139.5q0 -75 -28.5 -140.5t-77 -114t-114 -77t-139.5 -28.5z" />
    <glyph glyph-name="macron" unicode="&#xaf;" horiz-adv-x="282" 
d="M262 623h-242v31h242v-31z" />
    <glyph glyph-name="degree" unicode="&#xb0;" horiz-adv-x="356" 
d="M179 701q33 0 61.5 -12.5t49.5 -34t33.5 -50t12.5 -61.5t-12.5 -62t-34 -50t-50 -33.5t-61.5 -12.5t-62 12.5t-50 33.5t-33.5 50t-12.5 62t12.5 61.5t33.5 50t50 34t62 12.5h1zM178 695q-31 0 -58.5 -12.5t-47.5 -33.5t-32 -48.5t-12 -57.5t12 -57.5t32.5 -48.5t48 -33
t57.5 -12t57.5 12t48 33t32.5 48.5t12 57.5t-12 57.5t-32.5 48.5t-48 33.5t-57.5 12.5z" />
    <glyph glyph-name="plusminus" unicode="&#xb1;" horiz-adv-x="638" 
d="M608 0h-578v8h578v-8zM323 126h-9v276h-278v9h278v267h9v-267h274v-9h-274v-276z" />
    <glyph glyph-name="uni00B2" unicode="&#xb2;" horiz-adv-x="270" 
d="M233 360h-213q1 17 3.5 29.5t7.5 22.5t13.5 19.5t21.5 20.5q16 13 36 27.5t39 30t35.5 31.5t24.5 33q8 18 5 37.5t-13 35.5t-26 26.5t-34 10.5q-23 1 -45 -8.5t-34 -26.5q-9 -14 -7 -29t19 -20q8 -2 15.5 2t11.5 10q2 5 4 5t7 -2q12 -5 13.5 -21t-12.5 -27
q-13 -10 -27.5 -11t-27 6t-20.5 20t-7 32q1 21 11.5 36t26.5 25.5t35.5 15.5t37.5 5q23 0 44 -6t37 -18t25 -30.5t9 -43.5q0 -22 -10 -39t-25.5 -30.5t-35 -25t-38.5 -21.5t-36 -19.5t-29 -20.5t-22.5 -22t-13.5 -24h171q10 0 16 7t9 16.5t4 20.5t1 19q0 4 1 4.5t3 2.5l6 3
v-89q0 -10 -3 -15t-14 -5z" />
    <glyph glyph-name="uni00B3" unicode="&#xb3;" horiz-adv-x="275" 
d="M91 536q-7 0 -7 5t7 5h38q20 0 34 10.5t21 26.5t7 34.5t-7.5 34t-23.5 26.5t-41 11q-20 0 -37.5 -9t-25.5 -28q-3 -9 -1.5 -16.5t6 -12.5t12 -5t15.5 6q2 2 4.5 3.5t6.5 -2.5q9 -12 4 -26q-9 -18 -25.5 -19.5t-30 8t-18 28.5t10.5 42q28 42 81 42q28 0 47.5 -7t33.5 -18
q17 -14 22.5 -33t2 -38t-16 -35.5t-31.5 -25.5q34 -6 56 -29.5t19 -58.5q-2 -24 -14.5 -41.5t-31 -28.5t-41 -16t-44.5 -5q-18 0 -35.5 4t-32 13t-24 22.5t-10.5 33.5q-2 26 14.5 44t39.5 16q14 -3 19.5 -15t-0.5 -24q-2 -3 -5 -4.5t-5 0.5q-13 4 -25.5 -4t-10.5 -23
q0 -15 7.5 -25t18.5 -15.5t24.5 -8t24.5 -2.5q18 0 34.5 6t29.5 16t21.5 25t8.5 33q2 41 -23.5 59.5t-65.5 19.5z" />
    <glyph glyph-name="acute" unicode="&#xb4;" horiz-adv-x="227" 
d="M113 681q12 16 20 25.5t26 11.5q1 0 6.5 0.5t12 -1.5t12 -7.5t6.5 -17.5q2 -15 -11.5 -29.5t-34.5 -27.5q-9 -6 -28 -16.5t-38 -21.5q-22 -12 -47 -27q-10 -5 -5 4z" />
    <glyph glyph-name="mu" unicode="&#xb5;" horiz-adv-x="581" 
d="M607 157q1 5 4.5 5t2.5 -5q-3 -15 -8.5 -38t-13.5 -45q-6 -17 -13.5 -32t-18 -26t-25 -17t-34.5 -4q-42 4 -58 31t-10 68l10 46q-16 -29 -37.5 -55t-48.5 -46.5t-58.5 -32.5t-67.5 -12q-64 0 -98 24l-54 -261h78q2 0 2 -4q0 -3 -4 -3h-193q-5 0 -4 3.5t6 3.5h56l148 690
h-83q-5 0 -4.5 3.5t5.5 3.5h116q21 0 21.5 -7.5t-2.5 -19.5l-61 -288q-11 -55 6.5 -86t74.5 -38q33 -5 65.5 7.5t61 36t50 54t33.5 62.5l57 271h-83q-5 0 -4 3.5t6 3.5h117q10 0 14.5 -2t5.5 -5.5t0 -8t-2 -10.5l-73 -343q-5 -22 -1.5 -44.5t20.5 -30.5q8 -3 21 -0.5
t24 10.5q10 9 17 20.5t12.5 24t9 24.5t5.5 21q3 14 5.5 26t4.5 22z" />
    <glyph glyph-name="paragraph" unicode="&#xb6;" horiz-adv-x="452" 
d="M160 -176v510q-40 1 -69 17.5t-48 44t-28 62t-9 71.5q0 40 13.5 79t37.5 70t56.5 50.5t70.5 19.5l238 2q10 0 9.5 -4.5t-9.5 -4.5h-71v-909h71q9 0 9.5 -4t-9.5 -4h-131v917h-112v-917h-19z" />
    <glyph glyph-name="periodcentered" unicode="&#xb7;" horiz-adv-x="141" 
d="M111 301q0 -15 -12 -26.5t-31 -11.5q-15 0 -26.5 11.5t-11.5 26.5q0 19 11.5 31t26.5 12q19 0 31 -12t12 -31z" />
    <glyph glyph-name="cedilla" unicode="&#xb8;" horiz-adv-x="195" 
d="M41 -195q28 -9 47.5 -3.5t30.5 19t13.5 32t-3 35.5t-19.5 28.5t-35 11.5q-9 0 -19 -1.5t-19 -12.5h-7v10l61 78h5l-56 -73q-2 -2 0 -2.5t3 0.5q12 9 32 9.5t39.5 -7t34 -24t15.5 -42.5q1 -30 -13.5 -46.5t-35.5 -22.5t-42.5 -3.5t-33.5 11.5z" />
    <glyph glyph-name="uni00B9" unicode="&#xb9;" horiz-adv-x="207" 
d="M87 657q0 8 -5 6.5t-10 -3.5l-42 -19q-5 -2 -7.5 0t-1.5 6q0 2 4 4l76 43q4 2 7.5 2h7.5q10 0 11.5 -3.5t1.5 -11.5v-134v-165q0 -8 2.5 -9t13.5 -2h6.5h12h11.5h5q7 0 7 -5.5t-7 -5.5h-144q-7 0 -6.5 5.5t7.5 5.5h31h10t7 2q2 1 2 9v275z" />
    <glyph glyph-name="ordmasculine" unicode="&#xba;" horiz-adv-x="316" 
d="M248 557q0 23 -3 46.5t-12.5 42t-27.5 30.5t-47 13q-29 -1 -47 -13t-27.5 -30.5t-12.5 -42t-3 -46.5t3 -46.5t12.5 -43t27 -31.5t47.5 -13q30 1 47.5 13t27 31.5t12.5 43t3 46.5zM158 700q66 -2 102.5 -41.5t34.5 -102.5q0 -65 -34 -104t-102 -41h-2q-66 2 -102 41.5
t-34 102.5q0 64 34 103.5t102 41.5h1z" />
    <glyph glyph-name="guillemotright" unicode="&#xbb;" horiz-adv-x="269" 
d="M111 411l2 5l126 -104v-22l-126 -105l-2 6l103 108zM30 411l2 5l126 -104v-22l-126 -105l-2 6l103 108z" />
    <glyph glyph-name="onequarter" unicode="&#xbc;" horiz-adv-x="602" 
d="M48 -26l514 713h-15l-515 -713h16zM87 657q0 8 -5 6.5t-10 -3.5l-42 -19q-5 -2 -7.5 0t-1.5 6q0 2 4 4l76 43q4 2 7.5 2h7.5q10 0 11.5 -3.5t1.5 -11.5v-299q0 -8 2.5 -9t13.5 -2h6.5h12h11.5h5q7 0 7 -5.5t-7 -5.5h-144q-7 0 -6.5 5.5t7.5 5.5h31h10t7 2q2 1 2 9v275z
M522 22q0 -8 2.5 -9t13.5 -2h35q7 0 7 -5.5t-6 -5.5h-145q-6 0 -6 5.5t7 5.5h37q9 0 11 2q3 1 3 9v75h-145v12q22 17 46 43t47 60q17 26 31 55.5t22 61.5q2 7 10 7h35q2 0 4 -1q3 -1 1 -8q-29 -65 -71.5 -123.5t-99.5 -95.5h119v50q0 3 0.5 4.5t5.5 3.5q8 4 17.5 13t9.5 18
v4q0 1 1 2l3 3q5 0 5 -5v-93h54q6 0 6 -5.5t-6 -5.5h-54v-75z" />
    <glyph glyph-name="onehalf" unicode="&#xbd;" horiz-adv-x="612" 
d="M575 0h-213q1 17 3.5 29.5t7.5 22.5t13.5 19.5t21.5 20.5q16 13 36 27.5t39 30t35.5 31.5t24.5 33q9 22 6.5 42t-13 35t-27 24t-34.5 9q-23 1 -45 -8.5t-34 -26.5q-9 -14 -7 -29t19 -20q8 -2 15.5 2t11.5 10q2 5 4 5t7 -2q12 -5 13.5 -21t-12.5 -27q-13 -10 -27.5 -11
t-27 6t-20.5 20t-7 32q1 21 11.5 36t26.5 25.5t35.5 15.5t37.5 5q23 0 44 -6t37 -18t25 -30.5t9 -43.5q0 -22 -10 -39t-25.5 -30.5t-35 -25t-38.5 -21.5t-36 -19.5t-29 -20.5t-22.5 -22t-13.5 -24h171q10 0 16 7t9 16.5t4 20.5t1 19q0 4 1 4.5t3 2.5l6 3v-89q0 -10 -3 -15
t-14 -5zM48 -26l514 713h-16l-515 -713h17zM87 657q0 8 -5 6.5t-10 -3.5l-42 -19q-5 -2 -7.5 0t-1.5 6q0 2 4 4l76 43q4 2 7.5 2h7.5q10 0 11.5 -3.5t1.5 -11.5v-299q0 -8 2.5 -9t13.5 -2h6.5h12h11.5h5q7 0 7 -5.5t-7 -5.5h-144q-7 0 -6.5 5.5t7.5 5.5h31h10t7 2q2 1 2 9
v275z" />
    <glyph glyph-name="threequarters" unicode="&#xbe;" horiz-adv-x="602" 
d="M523 23q0 -8 2 -9t13 -2h35q7 0 7.5 -5.5t-6.5 -5.5h-144q-7 0 -7 5.5t7 5.5h38q7 0 11 2q2 2 2 9v75h-144v12q21 17 45.5 43t47.5 60q17 26 31 55.5t22 61.5q2 7 10 7h35q1 0 3 -1q3 -3 1 -8q-29 -65 -71 -123.5t-100 -95.5h120v50q0 6 5 8q8 4 17.5 13t9.5 18v4
q0 1 1 2q3 3 4 3q5 0 5 -5v-93h53q6 0 6 -5.5t-6 -5.5h-53v-75zM47 -25l514 713h-15l-515 -713h16zM91 536q-7 0 -7 5t7 5h38q20 0 34 10.5t21 26.5t7 34.5t-7.5 34t-23.5 26.5t-41 11q-20 0 -37.5 -9t-25.5 -28q-3 -9 -1.5 -16.5t6 -12.5t12 -5t15.5 6q2 2 4.5 3.5
t6.5 -2.5q9 -12 4 -26q-9 -18 -25.5 -19.5t-30 8t-18 28.5t10.5 42q28 42 81 42q28 0 47.5 -7t33.5 -18q17 -14 22.5 -33t2 -38t-16 -35.5t-31.5 -25.5q34 -6 56 -29.5t19 -58.5q-2 -24 -14.5 -41.5t-31 -28.5t-41 -16t-44.5 -5q-18 0 -35.5 4t-32 13t-24 22.5t-10.5 33.5
q-2 26 14.5 44t39.5 16q14 -3 19.5 -15t-0.5 -24q-2 -3 -5 -4.5t-5 0.5q-13 4 -25.5 -4t-10.5 -23q0 -15 7.5 -25t18.5 -15.5t24.5 -8t24.5 -2.5q18 0 34.5 6t29.5 16t21.5 25t8.5 33q2 41 -23.5 59.5t-65.5 19.5z" />
    <glyph glyph-name="questiondown" unicode="&#xbf;" horiz-adv-x="382" 
d="M205 416q0 15 12 26.5t31 11.5q15 0 26.5 -11.5t11.5 -26.5q0 -19 -11.5 -31t-26.5 -12q-19 0 -31 12t-12 31zM261 -133q-11 -9 -16 5q-9 22 2 36t30 17.5t39.5 -5t28.5 -30.5q10 -28 4.5 -56.5t-24 -51t-48 -37t-66.5 -14.5q-36 0 -69.5 11.5t-59 33t-40 52t-12.5 69.5
q1 49 25 86t55.5 68t63.5 59t50 60q15 26 25 56t2 57l6 1q7 -38 -3.5 -70.5t-30.5 -62.5t-44.5 -59t-46.5 -59.5t-37.5 -64t-15.5 -73.5q0 -33 7.5 -61.5t24 -50t41.5 -34.5t60 -14q23 -1 41.5 5t32.5 16q28 21 33.5 45.5t-2.5 43t-24.5 26.5t-31.5 -4z" />
    <glyph glyph-name="Agrave" unicode="&#xc0;" horiz-adv-x="726" 
d="M45 7q29 0 42 12.5t22 34.5l274 646h21q7 0 8 -1.5t3 -5.5l269 -670q8 -16 27 -16h9q6 0 6 -4q0 -3 -6 -3h-196q-8 0 -7.5 3.5t7.5 3.5h72q8 0 12.5 3t0.5 11l-78 192l-346 -1l-66 -155q-11 -26 6.5 -38t51.5 -12h66q5 0 5 -3.5t-5 -3.5h-250q-5 0 -5 3.5t5 3.5h52z
M188 220h340l-164 416zM478 774q5 -9 -5 -4q-26 15 -48 27q-19 11 -37.5 21.5t-27.5 16.5q-21 13 -34.5 27.5t-11.5 29.5q1 12 6.5 17.5t12 7.5t12 1.5t6.5 -0.5q18 -2 26 -11.5t20 -25.5z" />
    <glyph glyph-name="Aacute" unicode="&#xc1;" horiz-adv-x="726" 
d="M45 7q29 0 42 12.5t22 34.5l274 646h21q7 0 8 -1.5t3 -5.5l269 -670q8 -16 27 -16h9q6 0 6 -4q0 -3 -6 -3h-196q-8 0 -7.5 3.5t7.5 3.5h72q8 0 12.5 3t0.5 11l-78 192l-346 -1l-66 -155q-11 -26 6.5 -38t51.5 -12h66q5 0 5 -3.5t-5 -3.5h-250q-5 0 -5 3.5t5 3.5h52z
M188 220h340l-164 416zM388 881q12 16 20 25.5t26 11.5q1 0 6.5 0.5t12 -1.5t12 -7.5t6.5 -17.5q2 -15 -11.5 -29.5t-34.5 -27.5q-9 -6 -28 -16.5t-38 -21.5q-22 -12 -47 -27q-10 -5 -5 4z" />
    <glyph glyph-name="Acircumflex" unicode="&#xc2;" horiz-adv-x="726" 
d="M45 7q29 0 42 12.5t22 34.5l274 646h21q7 0 8 -1.5t3 -5.5l269 -670q8 -16 27 -16h9q6 0 6 -4q0 -3 -6 -3h-196q-8 0 -7.5 3.5t7.5 3.5h72q8 0 12.5 3t0.5 11l-78 192l-346 -1l-66 -155q-11 -26 6.5 -38t51.5 -12h66q5 0 5 -3.5t-5 -3.5h-250q-5 0 -5 3.5t5 3.5h52z
M188 220h340l-164 416zM283 812l110 120h38l110 -120l-4 -5l-124 77l-126 -77z" />
    <glyph glyph-name="Atilde" unicode="&#xc3;" horiz-adv-x="726" 
d="M45 7q29 0 42 12.5t22 34.5l274 646h21q7 0 8 -1.5t3 -5.5l269 -670q8 -16 27 -16h9q6 0 6 -4q0 -3 -6 -3h-196q-8 0 -7.5 3.5t7.5 3.5h72q8 0 12.5 3t0.5 11l-78 192l-346 -1l-66 -155q-11 -26 6.5 -38t51.5 -12h66q5 0 5 -3.5t-5 -3.5h-250q-5 0 -5 3.5t5 3.5h52z
M188 220h340l-164 416zM532 922q-1 -26 -8 -47t-20.5 -34.5t-33.5 -17t-48 4.5q-26 8 -56 20.5t-55 16.5t-40.5 -6.5t-12.5 -48.5l-8 -1q-3 20 -1 38t11.5 32t28.5 21.5t49 6.5q14 -1 33 -8t39.5 -15.5t40.5 -14.5t36 -4t26.5 14.5t11.5 42.5h7z" />
    <glyph glyph-name="Adieresis" unicode="&#xc4;" horiz-adv-x="726" 
d="M45 7q29 0 42 12.5t22 34.5l274 646h21q7 0 8 -1.5t3 -5.5l269 -670q8 -16 27 -16h9q6 0 6 -4q0 -3 -6 -3h-196q-8 0 -7.5 3.5t7.5 3.5h72q8 0 12.5 3t0.5 11l-78 192l-346 -1l-66 -155q-11 -26 6.5 -38t51.5 -12h66q5 0 5 -3.5t-5 -3.5h-250q-5 0 -5 3.5t5 3.5h52z
M188 220h340l-164 416zM402 802q0 18 13 31t33 13q19 0 32 -13t13 -31t-13 -31t-32 -13q-20 0 -33 13t-13 31zM255 802q0 18 13 31t32 13q20 0 33 -13t13 -31t-13 -31t-33 -13q-19 0 -32 13t-13 31z" />
    <glyph glyph-name="Aring" unicode="&#xc5;" horiz-adv-x="726" 
d="M45 7q29 0 42 12.5t22 34.5l274 646h21q7 0 8 -1.5t3 -5.5l269 -670q8 -16 27 -16h9q6 0 6 -4q0 -3 -6 -3h-196q-8 0 -7.5 3.5t7.5 3.5h72q8 0 12.5 3t0.5 11l-78 192l-346 -1l-66 -155q-11 -26 6.5 -38t51.5 -12h66q5 0 5 -3.5t-5 -3.5h-250q-5 0 -5 3.5t5 3.5h52z
M188 220h340l-164 416zM317 848q0 41 26 70t72 29q45 0 71.5 -27.5t26.5 -68.5q0 -42 -26.5 -69t-71.5 -27q-46 0 -72 25.5t-26 67.5zM349 846q0 -34 15.5 -59t50.5 -25q17 0 29 7.5t20 20t12 28.5t4 33q0 15 -3.5 31t-11 29t-20 21t-30.5 8q-19 0 -32 -9t-20.5 -22.5
t-10.5 -30t-3 -32.5z" />
    <glyph glyph-name="AE" unicode="&#xc6;" horiz-adv-x="969" 
d="M46 7q28 0 41 12.5t22 34.5l274 646h529q10 0 12.5 -6t2.5 -17v-174q0 -5 -4 -5q-2 1 -2.5 1.5t-0.5 5.5l-1 103q0 44 -23.5 64.5t-85.5 20.5l-235 -1l1 -323h91q43 0 61.5 25t16.5 66v36q0 7 4 6.5t4 -7.5v-256q0 -7 -4 -8t-4 6v36q2 41 -16.5 66t-61.5 25h-91v-4v-353
h266q30 2 52 8t33 26q8 15 10 31.5t2 36.5v172q0 8 4 8t4 -8v-251q0 -22 -4 -26t-24 -4h-527h-5t-3 3q0 3 3 3.5t5 0.5h65q15 0 24 0.5t14.5 3.5t7 10t1.5 20v172l-319 -1l-66 -155q-11 -27 6.5 -38.5t51.5 -11.5h67q5 0 4.5 -3.5t-5.5 -3.5h-249q-5 0 -5.5 3.5t4.5 3.5h53z
M504 220v437q0 24 -5.5 30t-28.5 6h-79h-1l-25 -57l-123 -287l-54 -129h316z" />
    <glyph glyph-name="Ccedilla" unicode="&#xc7;" horiz-adv-x="607" 
d="M569 163q-10 -33 -30 -63t-49.5 -52t-66.5 -35t-82 -13q-81 -1 -139.5 28.5t-97 79t-57 113.5t-18.5 133q0 74 21 136.5t62.5 108.5t104.5 72.5t147 28.5q30 -1 64 -12t85 -46q8 -5 15 -7.5t12.5 0.5t8.5 13t3 30v31h7v-293q0 -4 -3 -4t-3 2v4q-1 1 -1 10v10
q-2 21 -2.5 44t-3.5 46t-9.5 45t-19.5 41q-22 32 -62 55t-91 22q-68 -2 -116 -31t-78 -74t-43 -98.5t-13 -104.5v-78q1 -58 19.5 -110t49.5 -91t72 -63t88 -25q37 -2 72 7.5t64 29t51 48t34 65.5l1 1q1 2 2.5 1t1.5 -3v-2v0zM263 -195q28 -9 47.5 -3.5t30.5 19t13.5 32
t-3 35.5t-19.5 28.5t-35 11.5q-9 0 -19 -1.5t-19 -12.5h-7v10l61 78h5l-56 -73q-2 -2 0 -2.5t3 0.5q12 9 32 9.5t39.5 -7t34 -24t15.5 -42.5q1 -30 -13.5 -46.5t-35.5 -22.5t-42.5 -3.5t-33.5 11.5z" />
    <glyph glyph-name="Egrave" unicode="&#xc8;" horiz-adv-x="603" 
d="M560 282q0 7 4 7.5t4 -7.5v-252q0 -22 -4 -26t-24 -4h-527q-7 0 -8 3q0 3 3 3.5t5 0.5h65q15 0 24 0.5t14.5 3.5t7 10t1.5 20v616q0 25 -5.5 30.5t-28.5 5.5h-85q-5 2 -4 4.5t6 2.5h525q10 0 12.5 -6t2.5 -17v-174q0 -5 -4 -5q-2 1 -2.5 1.5t-0.5 5.5l-1 103
q0 44 -23.5 64.5t-85.5 20.5h-235l1 -324h91q44 0 62 25.5t16 66.5v36q0 7 4 6t4 -8v-256q0 -7 -4 -8t-4 6v36q2 41 -16 66.5t-62 25.5h-91v-358h266q30 2 52.5 8t33.5 26q8 15 9.5 31.5t1.5 36.5v173v0zM408 774q5 -9 -5 -4q-26 15 -48 27q-19 11 -37.5 21.5t-27.5 16.5
q-21 13 -34.5 27.5t-11.5 29.5q1 12 6.5 17.5t12 7.5t12 1.5t6.5 -0.5q18 -2 26 -11.5t20 -25.5z" />
    <glyph glyph-name="Eacute" unicode="&#xc9;" horiz-adv-x="603" 
d="M560 282q0 7 4 7.5t4 -7.5v-252q0 -22 -4 -26t-24 -4h-527q-7 0 -8 3q0 3 3 3.5t5 0.5h65q15 0 24 0.5t14.5 3.5t7 10t1.5 20v616q0 25 -5.5 30.5t-28.5 5.5h-85q-5 2 -4 4.5t6 2.5h525q10 0 12.5 -6t2.5 -17v-174q0 -5 -4 -5q-2 1 -2.5 1.5t-0.5 5.5l-1 103
q0 44 -23.5 64.5t-85.5 20.5h-235l1 -324h91q44 0 62 25.5t16 66.5v36q0 7 4 6t4 -8v-256q0 -7 -4 -8t-4 6v36q2 41 -16 66.5t-62 25.5h-91v-358h266q30 2 52.5 8t33.5 26q8 15 9.5 31.5t1.5 36.5v173v0zM318 881q12 16 20 25.5t26 11.5q1 0 6.5 0.5t12 -1.5t12 -7.5
t6.5 -17.5q2 -15 -11.5 -29.5t-34.5 -27.5q-9 -6 -28 -16.5t-38 -21.5q-22 -12 -47 -27q-10 -5 -5 4z" />
    <glyph glyph-name="Ecircumflex" unicode="&#xca;" horiz-adv-x="603" 
d="M560 282q0 7 4 7.5t4 -7.5v-252q0 -22 -4 -26t-24 -4h-527q-7 0 -8 3q0 3 3 3.5t5 0.5h65q15 0 24 0.5t14.5 3.5t7 10t1.5 20v616q0 25 -5.5 30.5t-28.5 5.5h-85q-5 2 -4 4.5t6 2.5h525q10 0 12.5 -6t2.5 -17v-174q0 -5 -4 -5q-2 1 -2.5 1.5t-0.5 5.5l-1 103
q0 44 -23.5 64.5t-85.5 20.5h-235l1 -324h91q44 0 62 25.5t16 66.5v36q0 7 4 6t4 -8v-256q0 -7 -4 -8t-4 6v36q2 41 -16 66.5t-62 25.5h-91v-358h266q30 2 52.5 8t33.5 26q8 15 9.5 31.5t1.5 36.5v173v0zM213 812l110 120h38l110 -120l-4 -5l-124 77l-126 -77z" />
    <glyph glyph-name="Edieresis" unicode="&#xcb;" horiz-adv-x="603" 
d="M560 282q0 7 4 7.5t4 -7.5v-252q0 -22 -4 -26t-24 -4h-527q-7 0 -8 3q0 3 3 3.5t5 0.5h65q15 0 24 0.5t14.5 3.5t7 10t1.5 20v616q0 25 -5.5 30.5t-28.5 5.5h-85q-5 2 -4 4.5t6 2.5h525q10 0 12.5 -6t2.5 -17v-174q0 -5 -4 -5q-2 1 -2.5 1.5t-0.5 5.5l-1 103
q0 44 -23.5 64.5t-85.5 20.5h-235l1 -324h91q44 0 62 25.5t16 66.5v36q0 7 4 6t4 -8v-256q0 -7 -4 -8t-4 6v36q2 41 -16 66.5t-62 25.5h-91v-358h266q30 2 52.5 8t33.5 26q8 15 9.5 31.5t1.5 36.5v173v0zM377 802q0 18 13 31t33 13q19 0 32 -13t13 -31t-13 -31t-32 -13
q-20 0 -33 13t-13 31zM230 802q0 18 13 31t32 13q20 0 33 -13t13 -31t-13 -31t-33 -13q-19 0 -32 13t-13 31z" />
    <glyph glyph-name="Igrave" unicode="&#xcc;" horiz-adv-x="342" 
d="M319 700q7 0 8 -3q0 -4 -3 -4h-5h-65q-15 0 -24 -0.5t-14.5 -3.5t-7 -10t-1.5 -20v-618q0 -13 1.5 -20t7 -10t14.5 -3.5t24 -0.5h65q2 0 5 -0.5t3 -3.5q-1 -3 -8 -3h-295q-8 0 -8 3q-1 3 2.5 3.5t5.5 0.5h64q15 0 24.5 0.5t14.5 3.5t6.5 10t1.5 20v618q0 13 -1.5 20
t-6.5 10t-14.5 3.5t-24.5 0.5h-64h-5.5t-2.5 4q0 3 8 3h295zM254 774q5 -9 -5 -4q-26 15 -48 27q-19 11 -37.5 21.5t-27.5 16.5q-21 13 -34.5 27.5t-11.5 29.5q1 12 6.5 17.5t12 7.5t12 1.5t6.5 -0.5q18 -2 26 -11.5t20 -25.5z" />
    <glyph glyph-name="Iacute" unicode="&#xcd;" horiz-adv-x="342" 
d="M319 700q7 0 8 -3q0 -4 -3 -4h-5h-65q-15 0 -24 -0.5t-14.5 -3.5t-7 -10t-1.5 -20v-618q0 -13 1.5 -20t7 -10t14.5 -3.5t24 -0.5h65q2 0 5 -0.5t3 -3.5q-1 -3 -8 -3h-295q-8 0 -8 3q-1 3 2.5 3.5t5.5 0.5h64q15 0 24.5 0.5t14.5 3.5t6.5 10t1.5 20v618q0 13 -1.5 20
t-6.5 10t-14.5 3.5t-24.5 0.5h-64h-5.5t-2.5 4q0 3 8 3h295zM214 881q12 16 20 25.5t26 11.5q1 0 6.5 0.5t12 -1.5t12 -7.5t6.5 -17.5q2 -15 -11.5 -29.5t-34.5 -27.5q-9 -6 -28 -16.5t-38 -21.5q-22 -12 -47 -27q-10 -5 -5 4z" />
    <glyph glyph-name="Icircumflex" unicode="&#xce;" horiz-adv-x="342" 
d="M319 700q7 0 8 -3q0 -4 -3 -4h-5h-65q-15 0 -24 -0.5t-14.5 -3.5t-7 -10t-1.5 -20v-618q0 -13 1.5 -20t7 -10t14.5 -3.5t24 -0.5h65q2 0 5 -0.5t3 -3.5q-1 -3 -8 -3h-295q-8 0 -8 3q-1 3 2.5 3.5t5.5 0.5h64q15 0 24.5 0.5t14.5 3.5t6.5 10t1.5 20v618q0 13 -1.5 20
t-6.5 10t-14.5 3.5t-24.5 0.5h-64h-5.5t-2.5 4q0 3 8 3h295zM43 812l110 120h38l110 -120l-4 -5l-124 77l-126 -77z" />
    <glyph glyph-name="Idieresis" unicode="&#xcf;" horiz-adv-x="342" 
d="M319 700q7 0 8 -3q0 -4 -3 -4h-5h-65q-15 0 -24 -0.5t-14.5 -3.5t-7 -10t-1.5 -20v-618q0 -13 1.5 -20t7 -10t14.5 -3.5t24 -0.5h65q2 0 5 -0.5t3 -3.5q-1 -3 -8 -3h-295q-8 0 -8 3q-1 3 2.5 3.5t5.5 0.5h64q15 0 24.5 0.5t14.5 3.5t6.5 10t1.5 20v618q0 13 -1.5 20
t-6.5 10t-14.5 3.5t-24.5 0.5h-64h-5.5t-2.5 4q0 3 8 3h295zM200 802q0 18 13 31t33 13q19 0 32 -13t13 -31t-13 -31t-32 -13q-20 0 -33 13t-13 31zM53 802q0 18 13 31t32 13q20 0 33 -13t13 -31t-13 -31t-33 -13q-19 0 -32 13t-13 31z" />
    <glyph glyph-name="Eth" unicode="&#xd0;" horiz-adv-x="660" 
d="M293 7q75 0 124 22.5t77.5 61t40 89t11.5 107.5q2 26 2 59t-2 59q-3 55 -14 106.5t-38.5 91.5t-75 64.5t-121.5 24.5q-25 1 -58 0.5t-57 -0.5q0 -99 0.5 -165t0.5 -115v-87.5v-81.5v-98v-137zM632 350q0 -77 -21.5 -141t-63.5 -110.5t-103.5 -72t-140.5 -26.5h-304h-5.5
t-2.5 3t3 3.5t5 0.5h65q15 0 24 0.5t14.5 3.5t7 10t1.5 20v616q0 25 -5.5 30.5t-28.5 5.5h-77q-11 0 -10 3q0 4 3.5 4h5.5h304q79 -1 140.5 -27t103.5 -72t63.5 -110t21.5 -141zM9 354h335v-14h-335v14z" />
    <glyph glyph-name="Ntilde" unicode="&#xd1;" horiz-adv-x="738" 
d="M91 647l-23 29q-14 17 -34 17h-17q-6 0 -6 3q0 4 5 4h104q17 0 22 -4.5t16 -17.5l471 -624v624q-3 11 -12.5 13t-32.5 2h-51h-5t-3 4q1 3 9 3h200q8 0 8 -3q0 -4 -3 -4h-5h-51q-23 0 -33 -2t-12 -13v-678h-39q-16 0 -22 6.5t-16 19.5l-462 610v-615q3 -11 13 -12.5
t33 -1.5h51q2 0 5 -0.5t3 -3.5t-6 -3h-2h-10h-191q-7 0 -8 3q0 3 3 3.5t5 0.5h51q23 0 32.5 1.5t12.5 12.5v626zM507 922q-1 -26 -8 -47t-20.5 -34.5t-33.5 -17t-48 4.5q-26 8 -56 20.5t-55 16.5t-40.5 -6.5t-12.5 -48.5l-8 -1q-3 20 -1 38t11.5 32t28.5 21.5t49 6.5
q14 -1 33 -8t39.5 -15.5t40.5 -14.5t36 -4t26.5 14.5t11.5 42.5h7z" />
    <glyph glyph-name="Ograve" unicode="&#xd2;" 
d="M556 374q0 67 -13 125.5t-40.5 101.5t-70 67.5t-100.5 23.5q-59 1 -101 -23.5t-69.5 -67.5t-40.5 -101.5t-13 -125.5v-48q0 -68 13 -126t40.5 -101t69.5 -67.5t101 -23.5q58 -1 100.5 23.5t70 67.5t40.5 101t13 126v48zM30 350q-3 65 17 128t59.5 112.5t97 79.5t128.5 30
t128 -30t97 -79.5t60 -112.5t17 -128q0 -67 -20 -130.5t-58 -112t-94.5 -78t-129.5 -29.5q-71 0 -128.5 30t-97 79.5t-59.5 112.5t-17 128zM394 774q5 -9 -5 -4q-26 15 -48 27q-19 11 -37.5 21.5t-27.5 16.5q-21 13 -34.5 27.5t-11.5 29.5q1 12 6.5 17.5t12 7.5t12 1.5
t6.5 -0.5q18 -2 26 -11.5t20 -25.5z" />
    <glyph glyph-name="Oacute" unicode="&#xd3;" 
d="M556 374q0 67 -13 125.5t-40.5 101.5t-70 67.5t-100.5 23.5q-59 1 -101 -23.5t-69.5 -67.5t-40.5 -101.5t-13 -125.5v-48q0 -68 13 -126t40.5 -101t69.5 -67.5t101 -23.5q58 -1 100.5 23.5t70 67.5t40.5 101t13 126v48zM30 350q-3 65 17 128t59.5 112.5t97 79.5t128.5 30
t128 -30t97 -79.5t60 -112.5t17 -128q0 -67 -20 -130.5t-58 -112t-94.5 -78t-129.5 -29.5q-71 0 -128.5 30t-97 79.5t-59.5 112.5t-17 128zM364 881q12 16 20 25.5t26 11.5q1 0 6.5 0.5t12 -1.5t12 -7.5t6.5 -17.5q2 -15 -11.5 -29.5t-34.5 -27.5q-9 -6 -28 -16.5t-38 -21.5
q-22 -12 -47 -27q-10 -5 -5 4z" />
    <glyph glyph-name="Ocircumflex" unicode="&#xd4;" 
d="M556 374q0 67 -13 125.5t-40.5 101.5t-70 67.5t-100.5 23.5q-59 1 -101 -23.5t-69.5 -67.5t-40.5 -101.5t-13 -125.5v-48q0 -68 13 -126t40.5 -101t69.5 -67.5t101 -23.5q58 -1 100.5 23.5t70 67.5t40.5 101t13 126v48zM30 350q-3 65 17 128t59.5 112.5t97 79.5t128.5 30
t128 -30t97 -79.5t60 -112.5t17 -128q0 -67 -20 -130.5t-58 -112t-94.5 -78t-129.5 -29.5q-71 0 -128.5 30t-97 79.5t-59.5 112.5t-17 128zM189 812l110 120h38l110 -120l-4 -5l-124 77l-126 -77z" />
    <glyph glyph-name="Otilde" unicode="&#xd5;" 
d="M556 374q0 67 -13 125.5t-40.5 101.5t-70 67.5t-100.5 23.5q-59 1 -101 -23.5t-69.5 -67.5t-40.5 -101.5t-13 -125.5v-48q0 -68 13 -126t40.5 -101t69.5 -67.5t101 -23.5q58 -1 100.5 23.5t70 67.5t40.5 101t13 126v48zM30 350q-3 65 17 128t59.5 112.5t97 79.5t128.5 30
t128 -30t97 -79.5t60 -112.5t17 -128q0 -67 -20 -130.5t-58 -112t-94.5 -78t-129.5 -29.5q-71 0 -128.5 30t-97 79.5t-59.5 112.5t-17 128zM468 922q-1 -26 -8 -47t-20.5 -34.5t-33.5 -17t-48 4.5q-26 8 -56 20.5t-55 16.5t-40.5 -6.5t-12.5 -48.5l-8 -1q-3 20 -1 38
t11.5 32t28.5 21.5t49 6.5q14 -1 33 -8t39.5 -15.5t40.5 -14.5t36 -4t26.5 14.5t11.5 42.5h7z" />
    <glyph glyph-name="Odieresis" unicode="&#xd6;" 
d="M556 374q0 67 -13 125.5t-40.5 101.5t-70 67.5t-100.5 23.5q-59 1 -101 -23.5t-69.5 -67.5t-40.5 -101.5t-13 -125.5v-48q0 -68 13 -126t40.5 -101t69.5 -67.5t101 -23.5q58 -1 100.5 23.5t70 67.5t40.5 101t13 126v48zM30 350q-3 65 17 128t59.5 112.5t97 79.5t128.5 30
t128 -30t97 -79.5t60 -112.5t17 -128q0 -67 -20 -130.5t-58 -112t-94.5 -78t-129.5 -29.5q-71 0 -128.5 30t-97 79.5t-59.5 112.5t-17 128zM353 802q0 18 13 31t33 13q19 0 32 -13t13 -31t-13 -31t-32 -13q-20 0 -33 13t-13 31zM206 802q0 18 13 31t32 13q20 0 33 -13
t13 -31t-13 -31t-33 -13q-19 0 -32 13t-13 31z" />
    <glyph glyph-name="multiply" unicode="&#xd7;" horiz-adv-x="479" 
d="M449 99l-4 -5l-209 203l-201 -199l-5 3l202 201l-194 200l3 5l195 -200l200 204l4 -5l-200 -204z" />
    <glyph glyph-name="Oslash" unicode="&#xd8;" 
d="M556 374q0 67 -13 125.5t-40.5 101.5t-70 67.5t-100.5 23.5q-59 1 -101 -23.5t-69.5 -67.5t-40.5 -101.5t-13 -125.5v-48q0 -68 13 -126t40.5 -101t69.5 -67.5t101 -23.5q58 -1 100.5 23.5t70 67.5t40.5 101t13 126v48zM30 350q-3 65 17 128t59.5 112.5t97 79.5t128.5 30
t128 -30t97 -79.5t60 -112.5t17 -128q0 -67 -20 -130.5t-58 -112t-94.5 -78t-129.5 -29.5q-71 0 -128.5 30t-97 79.5t-59.5 112.5t-17 128zM194 -12l261 714h12l-261 -714h-12z" />
    <glyph glyph-name="Ugrave" unicode="&#xd9;" horiz-adv-x="648" 
d="M663 700q7 0 8 -3q0 -3 -3 -3.5t-5 -0.5h-51q-23 0 -33 -1.5t-13 -12.5v-465q-2 -100 -54 -156t-150 -58q-77 -1 -125.5 18t-76 50.5t-37.5 72t-10 82.5v436q0 13 -1.5 20t-7 10t-14.5 3.5t-24 0.5h-65h-5t-3 3q0 4 8 4h295q8 0 8 -3t-3 -3.5t-5 -0.5h-64
q-15 0 -24.5 -0.5t-14.5 -3.5t-6.5 -10t-1.5 -20v-441q0 -27 6.5 -63t25.5 -68t53.5 -54t90.5 -23q45 -1 82 13.5t62.5 41t39.5 64.5t13 84v466q-3 11 -12.5 12.5t-32.5 1.5h-51q-2 0 -5 0.5t-3 3.5q1 3 8 3h201v0zM444 774q5 -9 -5 -4q-26 15 -48 27q-19 11 -37.5 21.5
t-27.5 16.5q-21 13 -34.5 27.5t-11.5 29.5q1 12 6.5 17.5t12 7.5t12 1.5t6.5 -0.5q18 -2 26 -11.5t20 -25.5z" />
    <glyph glyph-name="Uacute" unicode="&#xda;" horiz-adv-x="648" 
d="M663 700q7 0 8 -3q0 -3 -3 -3.5t-5 -0.5h-51q-23 0 -33 -1.5t-13 -12.5v-465q-2 -100 -54 -156t-150 -58q-77 -1 -125.5 18t-76 50.5t-37.5 72t-10 82.5v436q0 13 -1.5 20t-7 10t-14.5 3.5t-24 0.5h-65h-5t-3 3q0 4 8 4h295q8 0 8 -3t-3 -3.5t-5 -0.5h-64
q-15 0 -24.5 -0.5t-14.5 -3.5t-6.5 -10t-1.5 -20v-441q0 -27 6.5 -63t25.5 -68t53.5 -54t90.5 -23q45 -1 82 13.5t62.5 41t39.5 64.5t13 84v466q-3 11 -12.5 12.5t-32.5 1.5h-51q-2 0 -5 0.5t-3 3.5q1 3 8 3h201v0zM354 881q12 16 20 25.5t26 11.5q1 0 6.5 0.5t12 -1.5
t12 -7.5t6.5 -17.5q2 -15 -11.5 -29.5t-34.5 -27.5q-9 -6 -28 -16.5t-38 -21.5q-22 -12 -47 -27q-10 -5 -5 4z" />
    <glyph glyph-name="Ucircumflex" unicode="&#xdb;" horiz-adv-x="648" 
d="M663 700q7 0 8 -3q0 -3 -3 -3.5t-5 -0.5h-51q-23 0 -33 -1.5t-13 -12.5v-465q-2 -100 -54 -156t-150 -58q-77 -1 -125.5 18t-76 50.5t-37.5 72t-10 82.5v436q0 13 -1.5 20t-7 10t-14.5 3.5t-24 0.5h-65h-5t-3 3q0 4 8 4h295q8 0 8 -3t-3 -3.5t-5 -0.5h-64
q-15 0 -24.5 -0.5t-14.5 -3.5t-6.5 -10t-1.5 -20v-441q0 -27 6.5 -63t25.5 -68t53.5 -54t90.5 -23q45 -1 82 13.5t62.5 41t39.5 64.5t13 84v466q-3 11 -12.5 12.5t-32.5 1.5h-51q-2 0 -5 0.5t-3 3.5q1 3 8 3h201v0zM249 812l110 120h38l110 -120l-4 -5l-124 77l-126 -77z
" />
    <glyph glyph-name="Udieresis" unicode="&#xdc;" horiz-adv-x="648" 
d="M663 700q7 0 8 -3q0 -3 -3 -3.5t-5 -0.5h-51q-23 0 -33 -1.5t-13 -12.5v-465q-2 -100 -54 -156t-150 -58q-77 -1 -125.5 18t-76 50.5t-37.5 72t-10 82.5v436q0 13 -1.5 20t-7 10t-14.5 3.5t-24 0.5h-65h-5t-3 3q0 4 8 4h295q8 0 8 -3t-3 -3.5t-5 -0.5h-64
q-15 0 -24.5 -0.5t-14.5 -3.5t-6.5 -10t-1.5 -20v-441q0 -27 6.5 -63t25.5 -68t53.5 -54t90.5 -23q45 -1 82 13.5t62.5 41t39.5 64.5t13 84v466q-3 11 -12.5 12.5t-32.5 1.5h-51q-2 0 -5 0.5t-3 3.5q1 3 8 3h201v0zM352 802q0 18 13 31t33 13q19 0 32 -13t13 -31t-13 -31
t-32 -13q-20 0 -33 13t-13 31zM205 802q0 18 13 31t32 13q20 0 33 -13t13 -31t-13 -31t-33 -13q-19 0 -32 13t-13 31z" />
    <glyph glyph-name="Yacute" unicode="&#xdd;" horiz-adv-x="559" 
d="M60 677q-8 11 -16 13.5t-16 2.5h-18q-7 0 -7 4q0 3 7 3h214q8 0 7.5 -3.5t-7.5 -3.5h-67q-19 0 -14 -14l216 -370l165 348q12 26 2 31t-34 5h-85q-5 0 -5 3.5t5 3.5h236q5 0 5 -3.5t-5 -3.5h-48q-28 0 -40.5 -13t-22.5 -34l-166 -349v-256q0 -13 1.5 -20t7 -10t14.5 -3.5
t24 -0.5h65h5t3 -4q-1 -3 -8 -3h-295q-8 0 -8 3q-1 4 2.5 4h5.5h64q15 0 24.5 0.5t14.5 3.5t6.5 10t1.5 20v235zM342 881q12 16 20 25.5t26 11.5q1 0 6.5 0.5t12 -1.5t12 -7.5t6.5 -17.5q2 -15 -11.5 -29.5t-34.5 -27.5q-9 -6 -28 -16.5t-38 -21.5q-22 -12 -47 -27
q-10 -5 -5 4z" />
    <glyph glyph-name="Thorn" unicode="&#xde;" horiz-adv-x="563" 
d="M122 657q0 13 -1.5 20t-6.5 10t-14.5 3.5t-24.5 0.5h-64q-2 0 -5.5 0.5t-2.5 3.5q0 3 2.5 3h5.5h295h5t3 -3q0 -3 -3 -3.5t-5 -0.5h-65q-15 0 -24 -0.5t-14.5 -3.5t-7 -10t-1.5 -20v-119h152q98 0 156.5 -47t60.5 -146q-1 -49 -16.5 -84t-44 -57.5t-68 -33t-88.5 -10.5
l-152 -1v-119q0 -13 1.5 -20t7 -10t14.5 -3.5t24 -0.5h65h5t3 -3q-1 -4 -8 -4h-295q-8 0 -8 4q-1 3 2.5 3h5.5h64q15 0 24.5 0.5t14.5 3.5t6.5 10t1.5 20v617zM325 167q35 0 65.5 7.5t53 24.5t36.5 44t17 66q3 36 0 73q-6 79 -53.5 114t-121.5 35h-128v-364h131z" />
    <glyph glyph-name="germandbls" unicode="&#xdf;" horiz-adv-x="630" 
d="M242 693q-23 1 -38 -12.5t-24 -33.5t-13 -43.5t-4 -42.5v-555h49q5 0 5 -3t-5 -3h-197q-3 0 -5 2q-2 4 5 4h90v441h-89q-6 0 -6 3.5t5 2.5h90v36q-1 28 4 64t19.5 68t42 54t71.5 22q34 0 57.5 -16.5t35.5 -42t12 -56.5t-13 -60q-17 -37 -28.5 -62.5t-13 -46.5t9 -40
t38.5 -41q20 -15 47 -29t56 -28.5t57 -30.5t50.5 -34t36 -39t13.5 -46q0 -34 -17.5 -58t-43 -39t-55.5 -21.5t-56 -6.5q-41 0 -79 14.5t-71 37.5q-5 4 -9.5 2t-4.5 -10v-39v-3.5t-3 -1.5q-4 0 -4 6v157q0 2 0.5 4t2.5 1q4 0 4 -5q0 -43 20 -80t58 -55q37 -18 77 -20t77 15
q28 13 41.5 41t3.5 57q-9 26 -34 46.5t-56 38t-64.5 35t-59.5 39t-41 49t-9 65.5q5 25 17.5 56.5t32.5 75.5q11 25 12 53.5t-9.5 53t-32.5 41.5t-55 19z" />
    <glyph glyph-name="agrave" unicode="&#xe0;" horiz-adv-x="509" 
d="M509 161q1 -21 0.5 -50t-7.5 -54.5t-23.5 -42.5t-46.5 -15q-44 4 -66 34t-24 71q-18 -32 -42.5 -52.5t-51 -33t-52.5 -17t-46 -2.5q-40 2 -67.5 13.5t-41.5 36.5q-8 15 -10 34t2 36q5 24 19.5 40.5t35.5 28.5t46 20t51 16q18 5 39.5 12t43 15.5t41 19.5t33.5 24v57
q0 19 -7.5 36t-20 30.5t-28.5 21.5t-32 8q-52 -1 -80.5 -17.5t-36.5 -37.5q-8 -22 1 -37t31 -3q3 2 5 2t5 -3q6 -7 6.5 -18.5t-4.5 -22.5t-15 -19.5t-26 -8.5q-24 0 -38 11.5t-19 28t-2.5 34.5t11.5 31q13 18 33 30t42.5 19.5t44.5 11t39 4.5q72 2 110.5 -31.5t38.5 -110.5
v-223q0 -22 7.5 -44.5t27.5 -30.5q8 -3 21 -0.5t21 10.5q8 9 13 20.5t7.5 24t3.5 24.5t1 21q1 14 0.5 26t-0.5 22q0 5 3.5 5t3.5 -5zM189 11q30 1 57 13t48 29t33.5 36t14.5 33l-1 167q-15 -12 -34 -23.5t-40 -21t-41.5 -17.5t-36.5 -14q-42 -14 -62.5 -32.5t-25.5 -54.5
q-2 -14 -1.5 -31t5.5 -31q8 -23 28.5 -39t55.5 -14zM325 556q5 -9 -5 -4q-26 15 -48 27q-19 11 -37.5 21.5t-27.5 16.5q-21 13 -34.5 27.5t-11.5 29.5q1 12 6.5 17.5t12 7.5t12 1.5t6.5 -0.5q18 -2 26 -11.5t20 -25.5z" />
    <glyph glyph-name="aacute" unicode="&#xe1;" horiz-adv-x="509" 
d="M509 161q1 -21 0.5 -50t-7.5 -54.5t-23.5 -42.5t-46.5 -15q-44 4 -66 34t-24 71q-18 -32 -42.5 -52.5t-51 -33t-52.5 -17t-46 -2.5q-40 2 -67.5 13.5t-41.5 36.5q-8 15 -10 34t2 36q5 24 19.5 40.5t35.5 28.5t46 20t51 16q18 5 39.5 12t43 15.5t41 19.5t33.5 24v57
q0 19 -7.5 36t-20 30.5t-28.5 21.5t-32 8q-52 -1 -80.5 -17.5t-36.5 -37.5q-8 -22 1 -37t31 -3q3 2 5 2t5 -3q6 -7 6.5 -18.5t-4.5 -22.5t-15 -19.5t-26 -8.5q-24 0 -38 11.5t-19 28t-2.5 34.5t11.5 31q13 18 33 30t42.5 19.5t44.5 11t39 4.5q72 2 110.5 -31.5t38.5 -110.5
v-223q0 -22 7.5 -44.5t27.5 -30.5q8 -3 21 -0.5t21 10.5q8 9 13 20.5t7.5 24t3.5 24.5t1 21q1 14 0.5 26t-0.5 22q0 5 3.5 5t3.5 -5zM189 11q30 1 57 13t48 29t33.5 36t14.5 33l-1 167q-15 -12 -34 -23.5t-40 -21t-41.5 -17.5t-36.5 -14q-42 -14 -62.5 -32.5t-25.5 -54.5
q-2 -14 -1.5 -31t5.5 -31q8 -23 28.5 -39t55.5 -14zM285 664q12 16 20 25.5t26 11.5q1 0 6.5 0.5t12 -1.5t12 -7.5t6.5 -17.5q2 -15 -11.5 -29.5t-34.5 -27.5q-9 -6 -28 -16.5t-38 -21.5q-22 -12 -47 -27q-10 -5 -5 4z" />
    <glyph glyph-name="acircumflex" unicode="&#xe2;" horiz-adv-x="509" 
d="M509 161q1 -21 0.5 -50t-7.5 -54.5t-23.5 -42.5t-46.5 -15q-44 4 -66 34t-24 71q-18 -32 -42.5 -52.5t-51 -33t-52.5 -17t-46 -2.5q-40 2 -67.5 13.5t-41.5 36.5q-8 15 -10 34t2 36q5 24 19.5 40.5t35.5 28.5t46 20t51 16q18 5 39.5 12t43 15.5t41 19.5t33.5 24v57
q0 19 -7.5 36t-20 30.5t-28.5 21.5t-32 8q-52 -1 -80.5 -17.5t-36.5 -37.5q-8 -22 1 -37t31 -3q3 2 5 2t5 -3q6 -7 6.5 -18.5t-4.5 -22.5t-15 -19.5t-26 -8.5q-24 0 -38 11.5t-19 28t-2.5 34.5t11.5 31q13 18 33 30t42.5 19.5t44.5 11t39 4.5q72 2 110.5 -31.5t38.5 -110.5
v-223q0 -22 7.5 -44.5t27.5 -30.5q8 -3 21 -0.5t21 10.5q8 9 13 20.5t7.5 24t3.5 24.5t1 21q1 14 0.5 26t-0.5 22q0 5 3.5 5t3.5 -5zM189 11q30 1 57 13t48 29t33.5 36t14.5 33l-1 167q-15 -12 -34 -23.5t-40 -21t-41.5 -17.5t-36.5 -14q-42 -14 -62.5 -32.5t-25.5 -54.5
q-2 -14 -1.5 -31t5.5 -31q8 -23 28.5 -39t55.5 -14zM124 581l110 120h38l110 -120l-4 -5l-124 77l-126 -77z" />
    <glyph glyph-name="atilde" unicode="&#xe3;" horiz-adv-x="509" 
d="M509 161q1 -21 0.5 -50t-7.5 -54.5t-23.5 -42.5t-46.5 -15q-44 4 -66 34t-24 71q-18 -32 -42.5 -52.5t-51 -33t-52.5 -17t-46 -2.5q-40 2 -67.5 13.5t-41.5 36.5q-8 15 -10 34t2 36q5 24 19.5 40.5t35.5 28.5t46 20t51 16q18 5 39.5 12t43 15.5t41 19.5t33.5 24v57
q0 19 -7.5 36t-20 30.5t-28.5 21.5t-32 8q-52 -1 -80.5 -17.5t-36.5 -37.5q-8 -22 1 -37t31 -3q3 2 5 2t5 -3q6 -7 6.5 -18.5t-4.5 -22.5t-15 -19.5t-26 -8.5q-24 0 -38 11.5t-19 28t-2.5 34.5t11.5 31q13 18 33 30t42.5 19.5t44.5 11t39 4.5q72 2 110.5 -31.5t38.5 -110.5
v-223q0 -22 7.5 -44.5t27.5 -30.5q8 -3 21 -0.5t21 10.5q8 9 13 20.5t7.5 24t3.5 24.5t1 21q1 14 0.5 26t-0.5 22q0 5 3.5 5t3.5 -5zM189 11q30 1 57 13t48 29t33.5 36t14.5 33l-1 167q-15 -12 -34 -23.5t-40 -21t-41.5 -17.5t-36.5 -14q-42 -14 -62.5 -32.5t-25.5 -54.5
q-2 -14 -1.5 -31t5.5 -31q8 -23 28.5 -39t55.5 -14zM386 706q-1 -26 -8 -47t-20.5 -34.5t-33.5 -17t-48 4.5q-26 8 -56 20.5t-55 16.5t-40.5 -6.5t-12.5 -48.5l-8 -1q-3 20 -1 38t11.5 32t28.5 21.5t49 6.5q14 -1 33 -8t39.5 -15.5t40.5 -14.5t36 -4t26.5 14.5t11.5 42.5h7z
" />
    <glyph glyph-name="adieresis" unicode="&#xe4;" horiz-adv-x="509" 
d="M509 161q1 -21 0.5 -50t-7.5 -54.5t-23.5 -42.5t-46.5 -15q-44 4 -66 34t-24 71q-18 -32 -42.5 -52.5t-51 -33t-52.5 -17t-46 -2.5q-40 2 -67.5 13.5t-41.5 36.5q-8 15 -10 34t2 36q5 24 19.5 40.5t35.5 28.5t46 20t51 16q18 5 39.5 12t43 15.5t41 19.5t33.5 24v57
q0 19 -7.5 36t-20 30.5t-28.5 21.5t-32 8q-52 -1 -80.5 -17.5t-36.5 -37.5q-8 -22 1 -37t31 -3q3 2 5 2t5 -3q6 -7 6.5 -18.5t-4.5 -22.5t-15 -19.5t-26 -8.5q-24 0 -38 11.5t-19 28t-2.5 34.5t11.5 31q13 18 33 30t42.5 19.5t44.5 11t39 4.5q72 2 110.5 -31.5t38.5 -110.5
v-223q0 -22 7.5 -44.5t27.5 -30.5q8 -3 21 -0.5t21 10.5q8 9 13 20.5t7.5 24t3.5 24.5t1 21q1 14 0.5 26t-0.5 22q0 5 3.5 5t3.5 -5zM189 11q30 1 57 13t48 29t33.5 36t14.5 33l-1 167q-15 -12 -34 -23.5t-40 -21t-41.5 -17.5t-36.5 -14q-42 -14 -62.5 -32.5t-25.5 -54.5
q-2 -14 -1.5 -31t5.5 -31q8 -23 28.5 -39t55.5 -14zM273 602q0 18 13 31t33 13q19 0 32 -13t13 -31t-13 -31t-32 -13q-20 0 -33 13t-13 31zM126 602q0 18 13 31t32 13q20 0 33 -13t13 -31t-13 -31t-33 -13q-19 0 -32 13t-13 31z" />
    <glyph glyph-name="aring" unicode="&#xe5;" horiz-adv-x="509" 
d="M509 161q1 -21 0.5 -50t-7.5 -54.5t-23.5 -42.5t-46.5 -15q-44 4 -66 34t-24 71q-18 -32 -42.5 -52.5t-51 -33t-52.5 -17t-46 -2.5q-40 2 -67.5 13.5t-41.5 36.5q-8 15 -10 34t2 36q5 24 19.5 40.5t35.5 28.5t46 20t51 16q18 5 39.5 12t43 15.5t41 19.5t33.5 24v57
q0 19 -7.5 36t-20 30.5t-28.5 21.5t-32 8q-52 -1 -80.5 -17.5t-36.5 -37.5q-8 -22 1 -37t31 -3q3 2 5 2t5 -3q6 -7 6.5 -18.5t-4.5 -22.5t-15 -19.5t-26 -8.5q-24 0 -38 11.5t-19 28t-2.5 34.5t11.5 31q13 18 33 30t42.5 19.5t44.5 11t39 4.5q72 2 110.5 -31.5t38.5 -110.5
v-223q0 -22 7.5 -44.5t27.5 -30.5q8 -3 21 -0.5t21 10.5q8 9 13 20.5t7.5 24t3.5 24.5t1 21q1 14 0.5 26t-0.5 22q0 5 3.5 5t3.5 -5zM189 11q30 1 57 13t48 29t33.5 36t14.5 33l-1 167q-15 -12 -34 -23.5t-40 -21t-41.5 -17.5t-36.5 -14q-42 -14 -62.5 -32.5t-25.5 -54.5
q-2 -14 -1.5 -31t5.5 -31q8 -23 28.5 -39t55.5 -14zM161 602q0 41 26 70t72 29q45 0 71.5 -27.5t26.5 -68.5q0 -42 -26.5 -69t-71.5 -27q-46 0 -72 25.5t-26 67.5zM193 600q0 -34 15.5 -59t50.5 -25q17 0 29 7.5t20 20t12 28.5t4 33q0 15 -3.5 31t-11 29t-20 21t-30.5 8
q-19 0 -32 -9t-20.5 -22.5t-10.5 -30t-3 -32.5z" />
    <glyph glyph-name="ae" unicode="&#xe6;" horiz-adv-x="733" 
d="M722 99q-37 -54 -93 -77.5t-113 -19.5q-54 3 -99 33.5t-68 82.5q-13 -27 -34 -50t-47 -39t-56 -24t-61 -5q-41 1 -68.5 12.5t-41.5 36.5q-8 15 -10 34.5t2 36.5q5 23 20 39.5t36 28.5t46 20.5t50 16.5q18 5 39.5 11.5t43 15t41 19.5t33.5 24v57q0 19 -7.5 36t-20 30.5
t-28.5 21.5t-32 8q-52 0 -80.5 -17t-36.5 -38q-4 -11 -3.5 -21t5 -16t12 -7.5t18.5 4.5q3 2 5 2t5 -3q6 -7 6.5 -18.5t-4.5 -22.5t-15 -19.5t-26 -8.5q-24 0 -37.5 11.5t-19 28t-2.5 35t12 30.5q13 18 33 30t42.5 19.5t44.5 11t39 4.5q51 2 85 -14.5t50 -53.5q25 32 63 50
t92 19q48 0 83.5 -17t58.5 -47.5t33 -72t7 -89.5q0 -10 -11 -10h-312q0 -26 1.5 -50t6.5 -41q12 -45 42.5 -79t82.5 -38q26 -2 54 5t53 20t45.5 31t32.5 38q2 4 4 0q1 -1 -1 -5zM342 289q-15 -12 -34.5 -23t-40.5 -21t-41.5 -17.5t-36.5 -13.5q-42 -14 -62.5 -33t-25.5 -55
q-2 -14 -1.5 -31t5.5 -31q8 -23 28.5 -39t55.5 -14q30 1 57 13t48 29t34 36t14 33v167zM675 225q1 37 -1 74t-12.5 67.5t-33 52t-61.5 27.5q-33 5 -60.5 -4t-48 -28.5t-34 -47.5t-18.5 -60q-2 -16 -3.5 -37t-1.5 -44h274z" />
    <glyph glyph-name="ccedilla" unicode="&#xe7;" horiz-adv-x="400" 
d="M240 452q23 0 47.5 -5t49.5 -20q15 -9 24.5 -21.5t14.5 -26t4.5 -27t-4.5 -24.5q-10 -20 -29 -27q-17 -5 -30.5 0t-21 15.5t-8 23t7.5 22.5q1 1 12.5 -2t22.5 5q6 4 7 11.5t-0.5 16.5t-6 17t-10.5 14q-15 15 -37.5 20t-42.5 4q-35 -1 -60 -13t-42 -31.5t-27.5 -45
t-15.5 -54.5q-3 -17 -4 -41t-1 -49t2 -48.5t7 -40.5q12 -45 42.5 -79.5t81.5 -37.5q46 -3 89.5 15.5t76.5 60.5l2.5 2.5t3.5 -0.5q1 -2 -1 -6q-38 -49 -83 -67t-105 -13q-45 3 -78 20.5t-54.5 46.5t-32 68t-10.5 85q1 115 55 174.5t154 57.5zM169 -195q28 -9 47.5 -3.5
t30.5 19t13.5 32t-3 35.5t-19.5 28.5t-35 11.5q-9 0 -19 -1.5t-19 -12.5h-7v10l61 78h5l-56 -73q-2 -2 0 -2.5t3 0.5q12 9 32 9.5t39.5 -7t34 -24t15.5 -42.5q1 -30 -13.5 -46.5t-35.5 -22.5t-42.5 -3.5t-33.5 11.5z" />
    <glyph glyph-name="egrave" unicode="&#xe8;" horiz-adv-x="427" 
d="M413 102q2 3 5 0l-2 -5q-18 -27 -41.5 -46t-50.5 -31t-56 -17t-57 -3q-45 3 -78 20.5t-54.5 46.5t-32 68t-10.5 85q0 50 11.5 92.5t36 73.5t62.5 48.5t90 17.5q49 0 84.5 -17t58 -47.5t32.5 -72t7 -89.5q0 -10 -11 -10h-312q0 -26 2 -50t7 -41q12 -45 42.5 -79t81.5 -38
q27 -2 54.5 5t53 20t45.5 31t32 38zM100 304q-2 -16 -3.5 -37t-1.5 -44h274q1 35 -1.5 74t-15 72t-39.5 55t-75 22q-30 0 -53.5 -11.5t-40.5 -31t-28 -45.5t-16 -54zM318 555q5 -9 -5 -4q-26 15 -48 27q-19 11 -37.5 21.5t-27.5 16.5q-21 13 -34.5 27.5t-11.5 29.5
q1 12 6.5 17.5t12 7.5t12 1.5t6.5 -0.5q18 -2 26 -11.5t20 -25.5z" />
    <glyph glyph-name="eacute" unicode="&#xe9;" horiz-adv-x="427" 
d="M413 102q2 3 5 0l-2 -5q-18 -27 -41.5 -46t-50.5 -31t-56 -17t-57 -3q-45 3 -78 20.5t-54.5 46.5t-32 68t-10.5 85q0 50 11.5 92.5t36 73.5t62.5 48.5t90 17.5q49 0 84.5 -17t58 -47.5t32.5 -72t7 -89.5q0 -10 -11 -10h-312q0 -26 2 -50t7 -41q12 -45 42.5 -79t81.5 -38
q27 -2 54.5 5t53 20t45.5 31t32 38zM100 304q-2 -16 -3.5 -37t-1.5 -44h274q1 35 -1.5 74t-15 72t-39.5 55t-75 22q-30 0 -53.5 -11.5t-40.5 -31t-28 -45.5t-16 -54zM228 665q12 16 20 25.5t26 11.5q1 0 6.5 0.5t12 -1.5t12 -7.5t6.5 -17.5q2 -15 -11.5 -29.5t-34.5 -27.5
q-9 -6 -28 -16.5t-38 -21.5q-22 -12 -47 -27q-10 -5 -5 4z" />
    <glyph glyph-name="ecircumflex" unicode="&#xea;" horiz-adv-x="427" 
d="M413 102q2 3 5 0l-2 -5q-18 -27 -41.5 -46t-50.5 -31t-56 -17t-57 -3q-45 3 -78 20.5t-54.5 46.5t-32 68t-10.5 85q0 50 11.5 92.5t36 73.5t62.5 48.5t90 17.5q49 0 84.5 -17t58 -47.5t32.5 -72t7 -89.5q0 -10 -11 -10h-312q0 -26 2 -50t7 -41q12 -45 42.5 -79t81.5 -38
q27 -2 54.5 5t53 20t45.5 31t32 38zM100 304q-2 -16 -3.5 -37t-1.5 -44h274q1 35 -1.5 74t-15 72t-39.5 55t-75 22q-30 0 -53.5 -11.5t-40.5 -31t-28 -45.5t-16 -54zM103 582l110 120h38l110 -120l-4 -5l-124 77l-126 -77z" />
    <glyph glyph-name="edieresis" unicode="&#xeb;" horiz-adv-x="427" 
d="M413 102q2 3 5 0l-2 -5q-18 -27 -41.5 -46t-50.5 -31t-56 -17t-57 -3q-45 3 -78 20.5t-54.5 46.5t-32 68t-10.5 85q0 50 11.5 92.5t36 73.5t62.5 48.5t90 17.5q49 0 84.5 -17t58 -47.5t32.5 -72t7 -89.5q0 -10 -11 -10h-312q0 -26 2 -50t7 -41q12 -45 42.5 -79t81.5 -38
q27 -2 54.5 5t53 20t45.5 31t32 38zM100 304q-2 -16 -3.5 -37t-1.5 -44h274q1 35 -1.5 74t-15 72t-39.5 55t-75 22q-30 0 -53.5 -11.5t-40.5 -31t-28 -45.5t-16 -54zM264 602q0 18 13 31t33 13q19 0 32 -13t13 -31t-13 -31t-32 -13q-20 0 -33 13t-13 31zM117 602q0 18 13 31
t32 13q20 0 33 -13t13 -31t-13 -31t-33 -13q-19 0 -32 13t-13 31z" />
    <glyph glyph-name="igrave" unicode="&#xec;" horiz-adv-x="241" 
d="M131 89q0 -22 7.5 -44.5t26.5 -30.5q9 -3 21.5 -0.5t21.5 10.5q8 9 13 20.5t7.5 24t3.5 24.5t1 21q1 14 0.5 26t-0.5 22q0 5 3 5t3 -5q1 -15 0.5 -38t-3.5 -45q-3 -17 -7.5 -32t-12.5 -26t-21 -17t-33 -4q-44 3 -65.5 30.5t-23.5 68.5q-1 86 -1 173v174h-82q-5 0 -5 3.5
t5 3.5h116q20 0 22.5 -8t2.5 -19v-337zM180 555q5 -9 -5 -4q-26 15 -48 27q-19 11 -37.5 21.5t-27.5 16.5q-21 13 -34.5 27.5t-11.5 29.5q1 12 6.5 17.5t12 7.5t12 1.5t6.5 -0.5q18 -2 26 -11.5t20 -25.5z" />
    <glyph glyph-name="iacute" unicode="&#xed;" horiz-adv-x="241" 
d="M131 89q0 -22 7.5 -44.5t26.5 -30.5q9 -3 21.5 -0.5t21.5 10.5q8 9 13 20.5t7.5 24t3.5 24.5t1 21q1 14 0.5 26t-0.5 22q0 5 3 5t3 -5q1 -15 0.5 -38t-3.5 -45q-3 -17 -7.5 -32t-12.5 -26t-21 -17t-33 -4q-44 3 -65.5 30.5t-23.5 68.5q-1 86 -1 173v174h-82q-5 0 -5 3.5
t5 3.5h116q20 0 22.5 -8t2.5 -19v-337zM101 664q12 16 20 25.5t26 11.5q1 0 6.5 0.5t12 -1.5t12 -7.5t6.5 -17.5q2 -15 -11.5 -29.5t-34.5 -27.5q-9 -6 -28 -16.5t-38 -21.5q-22 -12 -47 -27q-10 -5 -5 4z" />
    <glyph glyph-name="icircumflex" unicode="&#xee;" horiz-adv-x="241" 
d="M131 89q0 -22 7.5 -44.5t26.5 -30.5q9 -3 21.5 -0.5t21.5 10.5q8 9 13 20.5t7.5 24t3.5 24.5t1 21q1 14 0.5 26t-0.5 22q0 5 3 5t3 -5q1 -15 0.5 -38t-3.5 -45q-3 -17 -7.5 -32t-12.5 -26t-21 -17t-33 -4q-44 3 -65.5 30.5t-23.5 68.5q-1 86 -1 173v174h-82q-5 0 -5 3.5
t5 3.5h116q20 0 22.5 -8t2.5 -19v-337zM-26 581l110 120h38l110 -120l-4 -5l-124 77l-126 -77z" />
    <glyph glyph-name="idieresis" unicode="&#xef;" horiz-adv-x="241" 
d="M131 89q0 -22 7.5 -44.5t26.5 -30.5q9 -3 21.5 -0.5t21.5 10.5q8 9 13 20.5t7.5 24t3.5 24.5t1 21q1 14 0.5 26t-0.5 22q0 5 3 5t3 -5q1 -15 0.5 -38t-3.5 -45q-3 -17 -7.5 -32t-12.5 -26t-21 -17t-33 -4q-44 3 -65.5 30.5t-23.5 68.5q-1 86 -1 173v174h-82q-5 0 -5 3.5
t5 3.5h116q20 0 22.5 -8t2.5 -19v-337zM136 602q0 18 13 31t33 13q19 0 32 -13t13 -31t-13 -31t-32 -13q-20 0 -33 13t-13 31zM-11 602q0 18 13 31t32 13q20 0 33 -13t13 -31t-13 -31t-33 -13q-19 0 -32 13t-13 31z" />
    <glyph glyph-name="eth" unicode="&#xf0;" horiz-adv-x="482" 
d="M375 325v59t-2 65.5t-7.5 67.5t-15.5 64l-115 -61l-4 7l116 62q-11 28 -30 52t-44.5 40.5t-56 23t-63.5 -0.5l-1 4q37 7 69 1.5t59.5 -20t50.5 -37t41 -50.5l105 57l3 -7l-104 -57q30 -48 45.5 -105t15.5 -110q0 -38 0.5 -76.5t-0.5 -76.5q1 -55 -14 -97t-43.5 -70.5
t-67.5 -43.5t-85 -16q-45 1 -84 16t-67.5 43.5t-44 70.5t-13.5 97q-2 54 13 95.5t42.5 70t65.5 44t82 17.5v-5q-74 -4 -108 -58t-33 -162q0 -39 5 -78.5t20.5 -71.5t44.5 -52.5t77 -21.5q48 1 77.5 21.5t45 52t20.5 70.5t5 78v98z" />
    <glyph glyph-name="ntilde" unicode="&#xf1;" horiz-adv-x="597" 
d="M146 7h49q6 0 6 -4q0 -3 -6 -3h-190q-3 0 -5 2q-3 5 5 5h83v439h-83q-5 0 -4.5 3.5t4.5 3.5h117q20 0 22 -7.5t2 -18.5v-123q6 25 21 50t35.5 45.5t45.5 33.5t53 15q33 2 66.5 -5t60.5 -24t43.5 -44.5t16.5 -66.5v-219q0 -22 7.5 -44.5t26.5 -30.5q9 -3 21.5 -0.5
t21.5 10.5q8 9 13 20.5t7.5 24t3.5 24.5t1 21q1 14 0.5 25.5t-0.5 21.5q0 5 3 5t3 -5v-34t-2.5 -40t-7.5 -38.5t-14 -29.5q-8 -10 -21 -15.5t-32 -3.5q-44 3 -65.5 30.5t-23.5 68.5l-1 208q0 60 -34.5 96t-94.5 34q-28 0 -53.5 -14t-46 -36t-35 -49.5t-19.5 -54.5v-276z
M445 714q-1 -26 -8 -47t-20.5 -34.5t-33.5 -17t-48 4.5q-26 8 -56 20.5t-55 16.5t-40.5 -6.5t-12.5 -48.5l-8 -1q-3 20 -1 38t11.5 32t28.5 21.5t49 6.5q14 -1 33 -8t39.5 -15.5t40.5 -14.5t36 -4t26.5 14.5t11.5 42.5h7z" />
    <glyph glyph-name="ograve" unicode="&#xf2;" horiz-adv-x="484" 
d="M242 454q46 -2 85 -16.5t67.5 -43t44 -70.5t13.5 -97q2 -55 -13.5 -97t-44 -70.5t-67.5 -43.5t-85 -16q-45 1 -84 16t-67.5 43.5t-44 70.5t-13.5 97q-2 55 13.5 97t44 70.5t67.5 43t84 16.5zM390 228q1 111 -34.5 165t-113.5 56q-77 -2 -112.5 -56t-34.5 -165
q0 -39 5 -78.5t20.5 -71t44.5 -52t77 -21.5q48 1 77.5 21.5t45 52t20.5 71t5 78.5zM336 557q5 -9 -5 -4q-26 15 -48 27q-19 11 -37.5 21.5t-27.5 16.5q-21 13 -34.5 27.5t-11.5 29.5q1 12 6.5 17.5t12 7.5t12 1.5t6.5 -0.5q18 -2 26 -11.5t20 -25.5z" />
    <glyph glyph-name="oacute" unicode="&#xf3;" horiz-adv-x="484" 
d="M242 454q46 -2 85 -16.5t67.5 -43t44 -70.5t13.5 -97q2 -55 -13.5 -97t-44 -70.5t-67.5 -43.5t-85 -16q-45 1 -84 16t-67.5 43.5t-44 70.5t-13.5 97q-2 55 13.5 97t44 70.5t67.5 43t84 16.5zM390 228q1 111 -34.5 165t-113.5 56q-77 -2 -112.5 -56t-34.5 -165
q0 -39 5 -78.5t20.5 -71t44.5 -52t77 -21.5q48 1 77.5 21.5t45 52t20.5 71t5 78.5zM264 662q12 16 20 25.5t26 11.5q1 0 6.5 0.5t12 -1.5t12 -7.5t6.5 -17.5q2 -15 -11.5 -29.5t-34.5 -27.5q-9 -6 -28 -16.5t-38 -21.5q-22 -12 -47 -27q-10 -5 -5 4z" />
    <glyph glyph-name="ocircumflex" unicode="&#xf4;" horiz-adv-x="484" 
d="M242 454q46 -2 85 -16.5t67.5 -43t44 -70.5t13.5 -97q2 -55 -13.5 -97t-44 -70.5t-67.5 -43.5t-85 -16q-45 1 -84 16t-67.5 43.5t-44 70.5t-13.5 97q-2 55 13.5 97t44 70.5t67.5 43t84 16.5zM390 228q1 111 -34.5 165t-113.5 56q-77 -2 -112.5 -56t-34.5 -165
q0 -39 5 -78.5t20.5 -71t44.5 -52t77 -21.5q48 1 77.5 21.5t45 52t20.5 71t5 78.5zM117 581l110 120h38l110 -120l-4 -5l-124 77l-126 -77z" />
    <glyph glyph-name="otilde" unicode="&#xf5;" horiz-adv-x="484" 
d="M242 454q46 -2 85 -16.5t67.5 -43t44 -70.5t13.5 -97q2 -55 -13.5 -97t-44 -70.5t-67.5 -43.5t-85 -16q-45 1 -84 16t-67.5 43.5t-44 70.5t-13.5 97q-2 55 13.5 97t44 70.5t67.5 43t84 16.5zM390 228q1 111 -34.5 165t-113.5 56q-77 -2 -112.5 -56t-34.5 -165
q0 -39 5 -78.5t20.5 -71t44.5 -52t77 -21.5q48 1 77.5 21.5t45 52t20.5 71t5 78.5zM388 713q-1 -26 -8 -47t-20.5 -34.5t-33.5 -17t-48 4.5q-26 8 -56 20.5t-55 16.5t-40.5 -6.5t-12.5 -48.5l-8 -1q-3 20 -1 38t11.5 32t28.5 21.5t49 6.5q14 -1 33 -8t39.5 -15.5t40.5 -14.5
t36 -4t26.5 14.5t11.5 42.5h7z" />
    <glyph glyph-name="odieresis" unicode="&#xf6;" horiz-adv-x="484" 
d="M242 454q46 -2 85 -16.5t67.5 -43t44 -70.5t13.5 -97q2 -55 -13.5 -97t-44 -70.5t-67.5 -43.5t-85 -16q-45 1 -84 16t-67.5 43.5t-44 70.5t-13.5 97q-2 55 13.5 97t44 70.5t67.5 43t84 16.5zM390 228q1 111 -34.5 165t-113.5 56q-77 -2 -112.5 -56t-34.5 -165
q0 -39 5 -78.5t20.5 -71t44.5 -52t77 -21.5q48 1 77.5 21.5t45 52t20.5 71t5 78.5zM273 602q0 18 13 31t33 13q19 0 32 -13t13 -31t-13 -31t-32 -13q-20 0 -33 13t-13 31zM126 602q0 18 13 31t32 13q20 0 33 -13t13 -31t-13 -31t-33 -13q-19 0 -32 13t-13 31z" />
    <glyph glyph-name="divide" unicode="&#xf7;" horiz-adv-x="407" 
d="M377 297h-347v6h347v-6zM199 424q13 0 22 -9t9 -23q0 -13 -9 -22t-22 -9q-14 0 -23 9t-9 22q0 14 9 23t23 9zM197 227q13 0 22 -9t9 -23q0 -13 -9 -22t-22 -9q-14 0 -23 9t-9 22q0 14 9 23t23 9z" />
    <glyph glyph-name="oslash" unicode="&#xf8;" horiz-adv-x="484" 
d="M158 -27l219 486h9l-219 -486h-9zM242 454q46 -2 85 -16.5t67.5 -43t44 -70.5t13.5 -97q2 -55 -13.5 -97t-44 -70.5t-67.5 -43.5t-85 -16q-45 1 -84 16t-67.5 43.5t-44 70.5t-13.5 97q-2 55 13.5 97t44 70.5t67.5 43t84 16.5zM390 228q1 111 -34.5 165t-113.5 56
q-77 -2 -112.5 -56t-34.5 -165q0 -39 5 -78.5t20.5 -71t44.5 -52t77 -21.5q48 1 77.5 21.5t45 52t20.5 71t5 78.5z" />
    <glyph glyph-name="ugrave" unicode="&#xf9;" horiz-adv-x="582" 
d="M574 157q0 5 3.5 5t3.5 -5q0 -15 -0.5 -38t-3.5 -45q-2 -17 -6.5 -32t-13 -26t-21.5 -17t-33 -4q-43 4 -65 31t-24 68v46q-10 -29 -26 -55t-38.5 -46.5t-51.5 -32.5t-65 -12q-76 -2 -118.5 34.5t-42.5 114.5v74.5t0.5 79t0.5 78v71.5h-83q-5 0 -5 3.5t5 3.5h116
q21 0 23 -7.5t2 -19.5v-287q0 -55 24.5 -86t82.5 -38q34 -5 64 7.5t53 36t38.5 54t20.5 62.5v271h-83q-5 0 -5 3.5t5 3.5h117q20 0 22 -7.5t2 -18.5v-343q0 -22 7.5 -44.5t27.5 -30.5q8 -3 21 -0.5t21 10.5q8 9 13 20.5t7.5 24t3.5 24.5t1 21q1 14 0.5 26t-0.5 22zM365 557
q5 -9 -5 -4q-26 15 -48 27q-19 11 -37.5 21.5t-27.5 16.5q-21 13 -34.5 27.5t-11.5 29.5q1 12 6.5 17.5t12 7.5t12 1.5t6.5 -0.5q18 -2 26 -11.5t20 -25.5z" />
    <glyph glyph-name="uacute" unicode="&#xfa;" horiz-adv-x="582" 
d="M574 157q0 5 3.5 5t3.5 -5q0 -15 -0.5 -38t-3.5 -45q-2 -17 -6.5 -32t-13 -26t-21.5 -17t-33 -4q-43 4 -65 31t-24 68v46q-10 -29 -26 -55t-38.5 -46.5t-51.5 -32.5t-65 -12q-76 -2 -118.5 34.5t-42.5 114.5v74.5t0.5 79t0.5 78v71.5h-83q-5 0 -5 3.5t5 3.5h116
q21 0 23 -7.5t2 -19.5v-287q0 -55 24.5 -86t82.5 -38q34 -5 64 7.5t53 36t38.5 54t20.5 62.5v271h-83q-5 0 -5 3.5t5 3.5h117q20 0 22 -7.5t2 -18.5v-343q0 -22 7.5 -44.5t27.5 -30.5q8 -3 21 -0.5t21 10.5q8 9 13 20.5t7.5 24t3.5 24.5t1 21q1 14 0.5 26t-0.5 22zM270 662
q12 16 20 25.5t26 11.5q1 0 6.5 0.5t12 -1.5t12 -7.5t6.5 -17.5q2 -15 -11.5 -29.5t-34.5 -27.5q-9 -6 -28 -16.5t-38 -21.5q-22 -12 -47 -27q-10 -5 -5 4z" />
    <glyph glyph-name="ucircumflex" unicode="&#xfb;" horiz-adv-x="582" 
d="M574 157q0 5 3.5 5t3.5 -5q0 -15 -0.5 -38t-3.5 -45q-2 -17 -6.5 -32t-13 -26t-21.5 -17t-33 -4q-43 4 -65 31t-24 68v46q-10 -29 -26 -55t-38.5 -46.5t-51.5 -32.5t-65 -12q-76 -2 -118.5 34.5t-42.5 114.5v74.5t0.5 79t0.5 78v71.5h-83q-5 0 -5 3.5t5 3.5h116
q21 0 23 -7.5t2 -19.5v-287q0 -55 24.5 -86t82.5 -38q34 -5 64 7.5t53 36t38.5 54t20.5 62.5v271h-83q-5 0 -5 3.5t5 3.5h117q20 0 22 -7.5t2 -18.5v-343q0 -22 7.5 -44.5t27.5 -30.5q8 -3 21 -0.5t21 10.5q8 9 13 20.5t7.5 24t3.5 24.5t1 21q1 14 0.5 26t-0.5 22zM139 582
l110 120h38l110 -120l-4 -5l-124 77l-126 -77z" />
    <glyph glyph-name="udieresis" unicode="&#xfc;" horiz-adv-x="582" 
d="M574 157q0 5 3.5 5t3.5 -5q0 -15 -0.5 -38t-3.5 -45q-2 -17 -6.5 -32t-13 -26t-21.5 -17t-33 -4q-43 4 -65 31t-24 68v46q-10 -29 -26 -55t-38.5 -46.5t-51.5 -32.5t-65 -12q-76 -2 -118.5 34.5t-42.5 114.5v74.5t0.5 79t0.5 78v71.5h-83q-5 0 -5 3.5t5 3.5h116
q21 0 23 -7.5t2 -19.5v-287q0 -55 24.5 -86t82.5 -38q34 -5 64 7.5t53 36t38.5 54t20.5 62.5v271h-83q-5 0 -5 3.5t5 3.5h117q20 0 22 -7.5t2 -18.5v-343q0 -22 7.5 -44.5t27.5 -30.5q8 -3 21 -0.5t21 10.5q8 9 13 20.5t7.5 24t3.5 24.5t1 21q1 14 0.5 26t-0.5 22zM297 602
q0 18 13 31t33 13q19 0 32 -13t13 -31t-13 -31t-32 -13q-20 0 -33 13t-13 31zM150 602q0 18 13 31t32 13q20 0 33 -13t13 -31t-13 -31t-33 -13q-19 0 -32 13t-13 31z" />
    <glyph glyph-name="yacute" unicode="&#xfd;" horiz-adv-x="490" 
d="M308 68l144 366q2 5 1 7.5t-3.5 3.5t-5 1h-3.5h-30q-8 0 -8.5 3.5t7.5 3.5h121q5 0 5 -3.5t-6 -3.5h-38q-19 0 -24 -3.5t-10 -14.5l-223 -573q-8 -21 -19 -41.5t-33 -31.5q-11 -6 -24.5 -8t-26.5 0t-24.5 8t-18.5 18q-8 12 -8.5 27.5t6 29t19.5 23t32 8.5q15 -1 25 -7.5
t14 -16.5t2 -20.5t-9 -19.5q-4 -4 -9.5 -1.5t-11.5 1.5q-7 -1 -11 -5.5t-5 -9.5t2 -10t11 -6q15 -3 28 3t23 16.5t17.5 23.5t12.5 25l69 176h-37l-190 382q-10 16 -19.5 21.5t-24.5 5.5h-36q-6 0 -5.5 3.5t7.5 3.5h180q5 0 6 -3.5t-6 -3.5h-33h-4t-5 -1.5t-3 -4.5t3 -8z
M272 661q12 16 20 25.5t26 11.5q1 0 6.5 0.5t12 -1.5t12 -7.5t6.5 -17.5q2 -15 -11.5 -29.5t-34.5 -27.5q-9 -6 -28 -16.5t-38 -21.5q-22 -12 -47 -27q-10 -5 -5 4z" />
    <glyph glyph-name="thorn" unicode="&#xfe;" horiz-adv-x="495" 
d="M133 165q3 -30 15 -58t32 -49.5t46.5 -34.5t59.5 -13q40 0 64.5 18t38 46t17.5 62.5t4 67.5v56q0 35 -4.5 68t-19 58.5t-40.5 41t-69 15.5q-33 0 -59 -15.5t-44.5 -40t-29 -55.5t-11.5 -62v-105zM133 311q5 25 17 50t30 45t42.5 33t53.5 14q51 1 88 -16t61 -48.5
t35 -75.5t10 -96q0 -49 -10 -88.5t-31.5 -68t-56.5 -44t-85 -16.5q-59 0 -98.5 38.5t-55.5 96.5v-366h78q3 0 3 -4l-1 -2q0 -1 -2 -1h-219h-1q-4 1 -4 4t5 3h83v924h-83q-4 0 -4.5 2t1.5 4q1 1 3 1h122q16 -1 16.5 -7t2.5 -17v-365z" />
    <glyph glyph-name="ydieresis" unicode="&#xff;" horiz-adv-x="491" 
d="M308 68l144 366q2 5 1 7.5t-3.5 3.5t-5 1h-3.5h-30q-8 0 -8.5 3.5t7.5 3.5h121q5 0 5 -3.5t-6 -3.5h-38q-19 0 -24 -3.5t-10 -14.5l-223 -573q-8 -21 -19 -41.5t-33 -31.5q-11 -6 -24.5 -8t-26.5 0t-24.5 8t-18.5 18q-8 12 -8.5 27.5t6 29t19.5 23t32 8.5q15 -1 25 -7.5
t14 -16.5t2 -20.5t-9 -19.5q-4 -4 -9.5 -1.5t-11.5 1.5q-7 -1 -11 -5.5t-5 -9.5t2 -10t11 -6q15 -3 28 3t23 16.5t17.5 23.5t12.5 25l69 176h-37l-190 382q-10 16 -19.5 21.5t-24.5 5.5h-36q-6 0 -5.5 3.5t7.5 3.5h180q5 0 6 -3.5t-6 -3.5h-33h-4t-5 -1.5t-3 -4.5t3 -8z
M307 602q0 18 13 31t33 13q19 0 32 -13t13 -31t-13 -31t-32 -13q-20 0 -33 13t-13 31zM160 602q0 18 13 31t32 13q20 0 33 -13t13 -31t-13 -31t-33 -13q-19 0 -32 13t-13 31z" />
    <glyph glyph-name="Amacron" unicode="&#x100;" horiz-adv-x="726" 
d="M45 7q29 0 42 12.5t22 34.5l274 646h21q7 0 8 -1.5t3 -5.5l269 -670q8 -16 27 -16h9q6 0 6 -4q0 -3 -6 -3h-196q-8 0 -7.5 3.5t7.5 3.5h72q8 0 12.5 3t0.5 11l-78 192l-346 -1l-66 -155q-11 -26 6.5 -38t51.5 -12h66q5 0 5 -3.5t-5 -3.5h-250q-5 0 -5 3.5t5 3.5h52z
M188 220h340l-164 416zM499 823h-242v31h242v-31z" />
    <glyph glyph-name="amacron" unicode="&#x101;" horiz-adv-x="509" 
d="M509 161q1 -21 0.5 -50t-7.5 -54.5t-23.5 -42.5t-46.5 -15q-44 4 -66 34t-24 71q-18 -32 -42.5 -52.5t-51 -33t-52.5 -17t-46 -2.5q-40 2 -67.5 13.5t-41.5 36.5q-8 15 -10 34t2 36q5 24 19.5 40.5t35.5 28.5t46 20t51 16q18 5 39.5 12t43 15.5t41 19.5t33.5 24v57
q0 19 -7.5 36t-20 30.5t-28.5 21.5t-32 8q-52 -1 -80.5 -17.5t-36.5 -37.5q-8 -22 1 -37t31 -3q3 2 5 2t5 -3q6 -7 6.5 -18.5t-4.5 -22.5t-15 -19.5t-26 -8.5q-24 0 -38 11.5t-19 28t-2.5 34.5t11.5 31q13 18 33 30t42.5 19.5t44.5 11t39 4.5q72 2 110.5 -31.5t38.5 -110.5
v-223q0 -22 7.5 -44.5t27.5 -30.5q8 -3 21 -0.5t21 10.5q8 9 13 20.5t7.5 24t3.5 24.5t1 21q1 14 0.5 26t-0.5 22q0 5 3.5 5t3.5 -5zM189 11q30 1 57 13t48 29t33.5 36t14.5 33l-1 167q-15 -12 -34 -23.5t-40 -21t-41.5 -17.5t-36.5 -14q-42 -14 -62.5 -32.5t-25.5 -54.5
q-2 -14 -1.5 -31t5.5 -31q8 -23 28.5 -39t55.5 -14zM357 532h-242v31h242v-31z" />
    <glyph glyph-name="Abreve" unicode="&#x102;" horiz-adv-x="726" 
d="M45 7q29 0 42 12.5t22 34.5l274 646h21q7 0 8 -1.5t3 -5.5l269 -670q8 -16 27 -16h9q6 0 6 -4q0 -3 -6 -3h-196q-8 0 -7.5 3.5t7.5 3.5h72q8 0 12.5 3t0.5 11l-78 192l-346 -1l-66 -155q-11 -26 6.5 -38t51.5 -12h66q5 0 5 -3.5t-5 -3.5h-250q-5 0 -5 3.5t5 3.5h52z
M188 220h340l-164 416zM291 923q5 -34 22 -57.5t39.5 -35.5t48 -12.5t48 10.5t39 34.5t21.5 60.5l5 -4q4 -45 -12.5 -75t-43.5 -44.5t-59 -14.5t-59 15t-44 44.5t-12 74.5l7 4v0z" />
    <glyph glyph-name="abreve" unicode="&#x103;" horiz-adv-x="509" 
d="M509 161q1 -21 0.5 -50t-7.5 -54.5t-23.5 -42.5t-46.5 -15q-44 4 -66 34t-24 71q-18 -32 -42.5 -52.5t-51 -33t-52.5 -17t-46 -2.5q-40 2 -67.5 13.5t-41.5 36.5q-8 15 -10 34t2 36q5 24 19.5 40.5t35.5 28.5t46 20t51 16q18 5 39.5 12t43 15.5t41 19.5t33.5 24v57
q0 19 -7.5 36t-20 30.5t-28.5 21.5t-32 8q-52 -1 -80.5 -17.5t-36.5 -37.5q-8 -22 1 -37t31 -3q3 2 5 2t5 -3q6 -7 6.5 -18.5t-4.5 -22.5t-15 -19.5t-26 -8.5q-24 0 -38 11.5t-19 28t-2.5 34.5t11.5 31q13 18 33 30t42.5 19.5t44.5 11t39 4.5q72 2 110.5 -31.5t38.5 -110.5
v-223q0 -22 7.5 -44.5t27.5 -30.5q8 -3 21 -0.5t21 10.5q8 9 13 20.5t7.5 24t3.5 24.5t1 21q1 14 0.5 26t-0.5 22q0 5 3.5 5t3.5 -5zM189 11q30 1 57 13t48 29t33.5 36t14.5 33l-1 167q-15 -12 -34 -23.5t-40 -21t-41.5 -17.5t-36.5 -14q-42 -14 -62.5 -32.5t-25.5 -54.5
q-2 -14 -1.5 -31t5.5 -31q8 -23 28.5 -39t55.5 -14zM143 704q5 -34 22 -57.5t39.5 -35.5t48 -12.5t48 10.5t39 34.5t21.5 60.5l5 -4q4 -45 -12.5 -75t-43.5 -44.5t-59 -14.5t-59 15t-44 44.5t-12 74.5l7 4v0z" />
    <glyph glyph-name="Aogonek" unicode="&#x104;" horiz-adv-x="726" 
d="M45 7q29 0 42 12.5t22 34.5l274 646h21q7 0 8 -1.5t3 -5.5l269 -670q8 -16 27 -16h9q6 0 6 -4q0 -3 -6 -3h-196q-8 0 -7.5 3.5t7.5 3.5h72q8 0 12.5 3t0.5 11l-78 192l-346 -1l-66 -155q-11 -26 6.5 -38t51.5 -12h66q5 0 5 -3.5t-5 -3.5h-250q-5 0 -5 3.5t5 3.5h52z
M188 220h340l-164 416zM699 2q-41 2 -66 -15t-35.5 -41.5t-7 -50.5t18.5 -43t41 -19t62 22l3 -2q-12 -27 -37 -38.5t-51 -8.5t-46 21.5t-21 51.5q-1 26 9 50t28.5 42t44 28t57.5 8v-5z" />
    <glyph glyph-name="aogonek" unicode="&#x105;" horiz-adv-x="509" 
d="M509 161q1 -21 0.5 -50t-7.5 -54.5t-23.5 -42.5t-46.5 -15q-44 4 -66 34t-24 71q-18 -32 -42.5 -52.5t-51 -33t-52.5 -17t-46 -2.5q-40 2 -67.5 13.5t-41.5 36.5q-8 15 -10 34t2 36q5 24 19.5 40.5t35.5 28.5t46 20t51 16q18 5 39.5 12t43 15.5t41 19.5t33.5 24v57
q0 19 -7.5 36t-20 30.5t-28.5 21.5t-32 8q-52 -1 -80.5 -17.5t-36.5 -37.5q-8 -22 1 -37t31 -3q3 2 5 2t5 -3q6 -7 6.5 -18.5t-4.5 -22.5t-15 -19.5t-26 -8.5q-24 0 -38 11.5t-19 28t-2.5 34.5t11.5 31q13 18 33 30t42.5 19.5t44.5 11t39 4.5q72 2 110.5 -31.5t38.5 -110.5
v-223q0 -22 7.5 -44.5t27.5 -30.5q8 -3 21 -0.5t21 10.5q8 9 13 20.5t7.5 24t3.5 24.5t1 21q1 14 0.5 26t-0.5 22q0 5 3.5 5t3.5 -5zM189 11q30 1 57 13t48 29t33.5 36t14.5 33l-1 167q-15 -12 -34 -23.5t-40 -21t-41.5 -17.5t-36.5 -14q-42 -14 -62.5 -32.5t-25.5 -54.5
q-2 -14 -1.5 -31t5.5 -31q8 -23 28.5 -39t55.5 -14zM454 3q-41 2 -66 -15t-35.5 -41.5t-7 -50.5t18.5 -43t41 -19t62 22l3 -2q-12 -27 -37 -38.5t-51 -8.5t-46 21.5t-21 51.5q-1 26 9 50t28.5 42t44 28t57.5 8v-5z" />
    <glyph glyph-name="Cacute" unicode="&#x106;" horiz-adv-x="607" 
d="M569 163q-10 -33 -30 -63t-49.5 -52t-66.5 -35t-82 -13q-81 -1 -139.5 28.5t-97 79t-57 113.5t-18.5 133q0 74 21 136.5t62.5 108.5t104.5 72.5t147 28.5q30 -1 64 -12t85 -46q8 -5 15 -7.5t12.5 0.5t8.5 13t3 30v31h7v-293q0 -4 -3 -4t-3 2v4q-1 1 -1 10v10
q-2 21 -2.5 44t-3.5 46t-9.5 45t-19.5 41q-22 32 -62 55t-91 22q-68 -2 -116 -31t-78 -74t-43 -98.5t-13 -104.5v-78q1 -58 19.5 -110t49.5 -91t72 -63t88 -25q37 -2 72 7.5t64 29t51 48t34 65.5l1 1q1 2 2.5 1t1.5 -3v-2v0zM315 881q12 16 20 25.5t26 11.5q1 0 6.5 0.5
t12 -1.5t12 -7.5t6.5 -17.5q2 -15 -11.5 -29.5t-34.5 -27.5q-9 -6 -28 -16.5t-38 -21.5q-22 -12 -47 -27q-10 -5 -5 4z" />
    <glyph glyph-name="cacute" unicode="&#x107;" horiz-adv-x="400" 
d="M240 452q23 0 47.5 -5t49.5 -20q15 -9 24.5 -21.5t14.5 -26t4.5 -27t-4.5 -24.5q-10 -20 -29 -27q-17 -5 -30.5 0t-21 15.5t-8 23t7.5 22.5q1 1 12.5 -2t22.5 5q6 4 7 11.5t-0.5 16.5t-6 17t-10.5 14q-15 15 -37.5 20t-42.5 4q-35 -1 -60 -13t-42 -31.5t-27.5 -45
t-15.5 -54.5q-3 -17 -4 -41t-1 -49t2 -48.5t7 -40.5q12 -45 42.5 -79.5t81.5 -37.5q46 -3 89.5 15.5t76.5 60.5l2.5 2.5t3.5 -0.5q1 -2 -1 -6q-38 -49 -83 -67t-105 -13q-45 3 -78 20.5t-54.5 46.5t-32 68t-10.5 85q1 115 55 174.5t154 57.5zM224 663q12 16 20 25.5t26 11.5
q1 0 6.5 0.5t12 -1.5t12 -7.5t6.5 -17.5q2 -15 -11.5 -29.5t-34.5 -27.5q-9 -6 -28 -16.5t-38 -21.5q-22 -12 -47 -27q-10 -5 -5 4z" />
    <glyph glyph-name="Ccircumflex" unicode="&#x108;" horiz-adv-x="607" 
d="M569 163q-10 -33 -30 -63t-49.5 -52t-66.5 -35t-82 -13q-81 -1 -139.5 28.5t-97 79t-57 113.5t-18.5 133q0 74 21 136.5t62.5 108.5t104.5 72.5t147 28.5q30 -1 64 -12t85 -46q8 -5 15 -7.5t12.5 0.5t8.5 13t3 30v31h7v-293q0 -4 -3 -4t-3 2v4q-1 1 -1 10v10
q-2 21 -2.5 44t-3.5 46t-9.5 45t-19.5 41q-22 32 -62 55t-91 22q-68 -2 -116 -31t-78 -74t-43 -98.5t-13 -104.5v-78q1 -58 19.5 -110t49.5 -91t72 -63t88 -25q37 -2 72 7.5t64 29t51 48t34 65.5l1 1q1 2 2.5 1t1.5 -3v-2v0zM210 812l110 120h38l110 -120l-4 -5l-124 77
l-126 -77z" />
    <glyph glyph-name="ccircumflex" unicode="&#x109;" horiz-adv-x="400" 
d="M240 452q23 0 47.5 -5t49.5 -20q15 -9 24.5 -21.5t14.5 -26t4.5 -27t-4.5 -24.5q-10 -20 -29 -27q-17 -5 -30.5 0t-21 15.5t-8 23t7.5 22.5q1 1 12.5 -2t22.5 5q6 4 7 11.5t-0.5 16.5t-6 17t-10.5 14q-15 15 -37.5 20t-42.5 4q-35 -1 -60 -13t-42 -31.5t-27.5 -45
t-15.5 -54.5q-3 -17 -4 -41t-1 -49t2 -48.5t7 -40.5q12 -45 42.5 -79.5t81.5 -37.5q46 -3 89.5 15.5t76.5 60.5l2.5 2.5t3.5 -0.5q1 -2 -1 -6q-38 -49 -83 -67t-105 -13q-45 3 -78 20.5t-54.5 46.5t-32 68t-10.5 85q1 115 55 174.5t154 57.5zM106 582l110 120h38l110 -120
l-4 -5l-124 77l-126 -77z" />
    <glyph glyph-name="Cdotaccent" unicode="&#x10a;" horiz-adv-x="607" 
d="M569 163q-10 -33 -30 -63t-49.5 -52t-66.5 -35t-82 -13q-81 -1 -139.5 28.5t-97 79t-57 113.5t-18.5 133q0 74 21 136.5t62.5 108.5t104.5 72.5t147 28.5q30 -1 64 -12t85 -46q8 -5 15 -7.5t12.5 0.5t8.5 13t3 30v31h7v-293q0 -4 -3 -4t-3 2v4q-1 1 -1 10v10
q-2 21 -2.5 44t-3.5 46t-9.5 45t-19.5 41q-22 32 -62 55t-91 22q-68 -2 -116 -31t-78 -74t-43 -98.5t-13 -104.5v-78q1 -58 19.5 -110t49.5 -91t72 -63t88 -25q37 -2 72 7.5t64 29t51 48t34 65.5l1 1q1 2 2.5 1t1.5 -3v-2v0zM341 900q17 0 27 -10.5t10 -26.5
q0 -15 -10 -25.5t-27 -10.5q-15 0 -25.5 10.5t-10.5 25.5q0 16 10.5 26.5t25.5 10.5z" />
    <glyph glyph-name="cdotaccent" unicode="&#x10b;" horiz-adv-x="400" 
d="M219 656q17 0 27 -10.5t10 -26.5q0 -15 -10 -25.5t-27 -10.5q-15 0 -25.5 10.5t-10.5 25.5q0 16 10.5 26.5t25.5 10.5zM240 452q23 0 47.5 -5t49.5 -20q15 -9 24.5 -21.5t14.5 -26t4.5 -27t-4.5 -24.5q-10 -20 -29 -27q-17 -5 -30.5 0t-21 15.5t-8 23t7.5 22.5
q1 1 12.5 -2t22.5 5q6 4 7 11.5t-0.5 16.5t-6 17t-10.5 14q-15 15 -37.5 20t-42.5 4q-35 -1 -60 -13t-42 -31.5t-27.5 -45t-15.5 -54.5q-3 -17 -4 -41t-1 -49t2 -48.5t7 -40.5q12 -45 42.5 -79.5t81.5 -37.5q46 -3 89.5 15.5t76.5 60.5l2.5 2.5t3.5 -0.5q1 -2 -1 -6
q-38 -49 -83 -67t-105 -13q-45 3 -78 20.5t-54.5 46.5t-32 68t-10.5 85q1 115 55 174.5t154 57.5z" />
    <glyph glyph-name="Ccaron" unicode="&#x10c;" horiz-adv-x="607" 
d="M569 163q-10 -33 -30 -63t-49.5 -52t-66.5 -35t-82 -13q-81 -1 -139.5 28.5t-97 79t-57 113.5t-18.5 133q0 74 21 136.5t62.5 108.5t104.5 72.5t147 28.5q30 -1 64 -12t85 -46q8 -5 15 -7.5t12.5 0.5t8.5 13t3 30v31h7v-293q0 -4 -3 -4t-3 2v4q-1 1 -1 10v10
q-2 21 -2.5 44t-3.5 46t-9.5 45t-19.5 41q-22 32 -62 55t-91 22q-68 -2 -116 -31t-78 -74t-43 -98.5t-13 -104.5v-78q1 -58 19.5 -110t49.5 -91t72 -63t88 -25q37 -2 72 7.5t64 29t51 48t34 65.5l1 1q1 2 2.5 1t1.5 -3v-2v0zM474 903l-110 -120h-38l-110 120l4 5l124 -77
l126 77z" />
    <glyph glyph-name="ccaron" unicode="&#x10d;" horiz-adv-x="400" 
d="M240 452q23 0 47.5 -5t49.5 -20q15 -9 24.5 -21.5t14.5 -26t4.5 -27t-4.5 -24.5q-10 -20 -29 -27q-17 -5 -30.5 0t-21 15.5t-8 23t7.5 22.5q1 1 12.5 -2t22.5 5q6 4 7 11.5t-0.5 16.5t-6 17t-10.5 14q-15 15 -37.5 20t-42.5 4q-35 -1 -60 -13t-42 -31.5t-27.5 -45
t-15.5 -54.5q-3 -17 -4 -41t-1 -49t2 -48.5t7 -40.5q12 -45 42.5 -79.5t81.5 -37.5q46 -3 89.5 15.5t76.5 60.5l2.5 2.5t3.5 -0.5q1 -2 -1 -6q-38 -49 -83 -67t-105 -13q-45 3 -78 20.5t-54.5 46.5t-32 68t-10.5 85q1 115 55 174.5t154 57.5zM356 693l-110 -120h-38
l-110 120l4 5l124 -77l126 77z" />
    <glyph glyph-name="Dcaron" unicode="&#x10e;" horiz-adv-x="659" 
d="M293 7q75 0 124 22.5t77.5 61t40 89t11.5 107.5q2 26 2 59t-2 59q-3 55 -14 106.5t-38.5 91.5t-75 64.5t-121.5 24.5q-25 1 -58 0.5t-57 -0.5q0 -99 0.5 -165t0.5 -115v-87.5v-81.5v-98v-137zM632 350q0 -77 -21.5 -141t-63.5 -110.5t-103.5 -72t-140.5 -26.5h-304h-5.5
t-2.5 3t3 3.5t5 0.5h65q15 0 24 0.5t14.5 3.5t7 10t1.5 20v616q0 25 -5.5 30.5t-28.5 5.5h-77q-11 0 -10 3q0 4 3.5 4h5.5h304q79 -1 140.5 -27t103.5 -72t63.5 -110t21.5 -141zM508 903l-110 -120h-38l-110 120l4 5l124 -77l126 77z" />
    <glyph glyph-name="dcaron" unicode="&#x10f;" horiz-adv-x="556" 
d="M374 130q-6 -26 -21 -49.5t-36.5 -41.5t-48 -28.5t-53.5 -10.5q-50 0 -84.5 15.5t-56 44t-32 67.5t-10.5 86q0 50 10 95t34 78.5t63.5 51.5t97.5 15q21 -2 42.5 -10.5t40 -23t32.5 -35t21 -44.5l1 353h-83q-5 0 -5 3.5t5 3.5h116q21 0 23 -7.5t2 -18.5v-586
q0 -22 7.5 -44.5t27.5 -30.5q8 -3 20.5 -0.5t21.5 11.5q17 17 20.5 44t4.5 46q1 13 0.5 25t-0.5 22q0 5 3 5t4 -5q0 -19 -0.5 -47.5t-7.5 -55t-23 -44t-47 -15.5q-37 3 -57.5 25.5t-28.5 54.5q-3 14 -2.5 25.5t-0.5 25.5zM373 148v44.5v34v34v44.5q-1 28 -12.5 51.5t-30 41
t-42.5 28t-49 12.5q-47 3 -75.5 -13.5t-45 -46.5t-22 -69.5t-5.5 -81.5v-45q0 -33 6 -62t21 -50.5t39.5 -35.5t60.5 -18q28 -3 55 7.5t48 29.5t35 44t17 51zM544.182 671.929q0 -12.4561 -3.77344 -24.4668q-3.77246 -12.0107 -10.4795 -21.3525t-17.6064 -14.6807
q-10.8984 -5.33789 -24.3125 -3.55859q-4.19141 0.889648 -3.35352 3.55859t3.35352 2.66895q20.959 -1.7793 33.9541 13.3457t11.3184 35.5889q-0.838867 2.66895 -2.51465 2.22363q-1.67773 -0.444336 -1.67773 -2.22363q0.838867 -8.00781 -3.77246 -17.3496
q-4.61035 -9.3418 -16.3486 -9.3418q-13.4141 0 -23.0547 10.2314q-9.6416 10.2314 -9.6416 25.3564t9.6416 25.8018q9.64062 10.6768 23.0547 10.6768q15.0918 0 25.1523 -10.6768t10.0605 -25.8018z" />
    <glyph glyph-name="Dcroat" unicode="&#x110;" horiz-adv-x="659" 
d="M9 354h335v-14h-335v14zM293 7q75 0 124 22.5t77.5 61t40 89t11.5 107.5q2 26 2 59t-2 59q-3 55 -14 106.5t-38.5 91.5t-75 64.5t-121.5 24.5q-25 1 -58 0.5t-57 -0.5q0 -99 0.5 -165t0.5 -115v-87.5v-81.5v-98v-137zM632 350q0 -77 -21.5 -141t-63.5 -110.5t-103.5 -72
t-140.5 -26.5h-304h-5.5t-2.5 3t3 3.5t5 0.5h65q15 0 24 0.5t14.5 3.5t7 10t1.5 20v616q0 25 -5.5 30.5t-28.5 5.5h-77q-11 0 -10 3q0 4 3.5 4h5.5h304q79 -1 140.5 -27t103.5 -72t63.5 -110t21.5 -141z" />
    <glyph glyph-name="dcroat" unicode="&#x111;" horiz-adv-x="542" 
d="M273 544h243v-10h-243v10zM374 130q-6 -26 -21 -49.5t-36.5 -41.5t-48 -28.5t-53.5 -10.5q-50 0 -84.5 15.5t-56 44t-32 67.5t-10.5 86q0 50 10 95t34 78.5t63.5 51.5t97.5 15q21 -2 42.5 -10.5t40 -23t32.5 -35t21 -44.5l1 353h-83q-5 0 -5 3.5t5 3.5h116q21 0 23 -7.5
t2 -18.5v-586q0 -22 7.5 -44.5t27.5 -30.5q8 -3 20.5 -0.5t21.5 11.5q17 17 20.5 44t4.5 46q1 13 0.5 25t-0.5 22q0 5 3 5t4 -5q0 -19 -0.5 -47.5t-7.5 -55t-23 -44t-47 -15.5q-37 3 -57.5 25.5t-28.5 54.5q-3 14 -2.5 25.5t-0.5 25.5zM373 148v44.5v34v34v44.5
q-1 28 -12.5 51.5t-30 41t-42.5 28t-49 12.5q-47 3 -75.5 -13.5t-45 -46.5t-22 -69.5t-5.5 -81.5v-45q0 -33 6 -62t21 -50.5t39.5 -35.5t60.5 -18q28 -3 55 7.5t48 29.5t35 44t17 51z" />
    <glyph glyph-name="Emacron" unicode="&#x112;" horiz-adv-x="603" 
d="M560 282q0 7 4 7.5t4 -7.5v-252q0 -22 -4 -26t-24 -4h-527q-7 0 -8 3q0 3 3 3.5t5 0.5h65q15 0 24 0.5t14.5 3.5t7 10t1.5 20v616q0 25 -5.5 30.5t-28.5 5.5h-85q-5 2 -4 4.5t6 2.5h525q10 0 12.5 -6t2.5 -17v-174q0 -5 -4 -5q-2 1 -2.5 1.5t-0.5 5.5l-1 103
q0 44 -23.5 64.5t-85.5 20.5h-235l1 -324h91q44 0 62 25.5t16 66.5v36q0 7 4 6t4 -8v-256q0 -7 -4 -8t-4 6v36q2 41 -16 66.5t-62 25.5h-91v-358h266q30 2 52.5 8t33.5 26q8 15 9.5 31.5t1.5 36.5v173v0zM428 823h-242v31h242v-31z" />
    <glyph glyph-name="emacron" unicode="&#x113;" horiz-adv-x="427" 
d="M413 102q2 3 5 0l-2 -5q-18 -27 -41.5 -46t-50.5 -31t-56 -17t-57 -3q-45 3 -78 20.5t-54.5 46.5t-32 68t-10.5 85q0 50 11.5 92.5t36 73.5t62.5 48.5t90 17.5q49 0 84.5 -17t58 -47.5t32.5 -72t7 -89.5q0 -10 -11 -10h-312q0 -26 2 -50t7 -41q12 -45 42.5 -79t81.5 -38
q27 -2 54.5 5t53 20t45.5 31t32 38zM100 304q-2 -16 -3.5 -37t-1.5 -44h274q1 35 -1.5 74t-15 72t-39.5 55t-75 22q-30 0 -53.5 -11.5t-40.5 -31t-28 -45.5t-16 -54zM358 532h-242v31h242v-31z" />
    <glyph glyph-name="Ebreve" unicode="&#x114;" horiz-adv-x="603" 
d="M560 282q0 7 4 7.5t4 -7.5v-252q0 -22 -4 -26t-24 -4h-527q-7 0 -8 3q0 3 3 3.5t5 0.5h65q15 0 24 0.5t14.5 3.5t7 10t1.5 20v616q0 25 -5.5 30.5t-28.5 5.5h-85q-5 2 -4 4.5t6 2.5h525q10 0 12.5 -6t2.5 -17v-174q0 -5 -4 -5q-2 1 -2.5 1.5t-0.5 5.5l-1 103
q0 44 -23.5 64.5t-85.5 20.5h-235l1 -324h91q44 0 62 25.5t16 66.5v36q0 7 4 6t4 -8v-256q0 -7 -4 -8t-4 6v36q2 41 -16 66.5t-62 25.5h-91v-358h266q30 2 52.5 8t33.5 26q8 15 9.5 31.5t1.5 36.5v173v0zM220 923q5 -34 22 -57.5t39.5 -35.5t48 -12.5t48 10.5t39 34.5
t21.5 60.5l5 -4q4 -45 -12.5 -75t-43.5 -44.5t-59 -14.5t-59 15t-44 44.5t-12 74.5l7 4v0z" />
    <glyph glyph-name="ebreve" unicode="&#x115;" horiz-adv-x="427" 
d="M413 102q2 3 5 0l-2 -5q-18 -27 -41.5 -46t-50.5 -31t-56 -17t-57 -3q-45 3 -78 20.5t-54.5 46.5t-32 68t-10.5 85q0 50 11.5 92.5t36 73.5t62.5 48.5t90 17.5q49 0 84.5 -17t58 -47.5t32.5 -72t7 -89.5q0 -10 -11 -10h-312q0 -26 2 -50t7 -41q12 -45 42.5 -79t81.5 -38
q27 -2 54.5 5t53 20t45.5 31t32 38zM100 304q-2 -16 -3.5 -37t-1.5 -44h274q1 35 -1.5 74t-15 72t-39.5 55t-75 22q-30 0 -53.5 -11.5t-40.5 -31t-28 -45.5t-16 -54zM122 703q5 -34 22 -57.5t39.5 -35.5t48 -12.5t48 10.5t39 34.5t21.5 60.5l5 -4q4 -45 -12.5 -75
t-43.5 -44.5t-59 -14.5t-59 15t-44 44.5t-12 74.5l7 4v0z" />
    <glyph glyph-name="Edotaccent" unicode="&#x116;" horiz-adv-x="603" 
d="M560 282q0 7 4 7.5t4 -7.5v-252q0 -22 -4 -26t-24 -4h-527q-7 0 -8 3q0 3 3 3.5t5 0.5h65q15 0 24 0.5t14.5 3.5t7 10t1.5 20v616q0 25 -5.5 30.5t-28.5 5.5h-85q-5 2 -4 4.5t6 2.5h525q10 0 12.5 -6t2.5 -17v-174q0 -5 -4 -5q-2 1 -2.5 1.5t-0.5 5.5l-1 103
q0 44 -23.5 64.5t-85.5 20.5h-235l1 -324h91q44 0 62 25.5t16 66.5v36q0 7 4 6t4 -8v-256q0 -7 -4 -8t-4 6v36q2 41 -16 66.5t-62 25.5h-91v-358h266q30 2 52.5 8t33.5 26q8 15 9.5 31.5t1.5 36.5v173v0zM343 900q17 0 27 -10.5t10 -26.5q0 -15 -10 -25.5t-27 -10.5
q-15 0 -25.5 10.5t-10.5 25.5q0 16 10.5 26.5t25.5 10.5z" />
    <glyph glyph-name="edotaccent" unicode="&#x117;" horiz-adv-x="427" 
d="M413 102q2 3 5 0l-2 -5q-18 -27 -41.5 -46t-50.5 -31t-56 -17t-57 -3q-45 3 -78 20.5t-54.5 46.5t-32 68t-10.5 85q0 50 11.5 92.5t36 73.5t62.5 48.5t90 17.5q49 0 84.5 -17t58 -47.5t32.5 -72t7 -89.5q0 -10 -11 -10h-312q0 -26 2 -50t7 -41q12 -45 42.5 -79t81.5 -38
q27 -2 54.5 5t53 20t45.5 31t32 38zM100 304q-2 -16 -3.5 -37t-1.5 -44h274q1 35 -1.5 74t-15 72t-39.5 55t-75 22q-30 0 -53.5 -11.5t-40.5 -31t-28 -45.5t-16 -54zM253 658q17 0 27 -10.5t10 -26.5q0 -15 -10 -25.5t-27 -10.5q-15 0 -25.5 10.5t-10.5 25.5q0 16 10.5 26.5
t25.5 10.5z" />
    <glyph glyph-name="Eogonek" unicode="&#x118;" horiz-adv-x="603" 
d="M560 282q0 7 4 7.5t4 -7.5v-252q0 -22 -4 -26t-24 -4h-527q-7 0 -8 3q0 3 3 3.5t5 0.5h65q15 0 24 0.5t14.5 3.5t7 10t1.5 20v616q0 25 -5.5 30.5t-28.5 5.5h-85q-5 2 -4 4.5t6 2.5h525q10 0 12.5 -6t2.5 -17v-174q0 -5 -4 -5q-2 1 -2.5 1.5t-0.5 5.5l-1 103
q0 44 -23.5 64.5t-85.5 20.5h-235l1 -324h91q44 0 62 25.5t16 66.5v36q0 7 4 6t4 -8v-256q0 -7 -4 -8t-4 6v36q2 41 -16 66.5t-62 25.5h-91v-358h266q30 2 52.5 8t33.5 26q8 15 9.5 31.5t1.5 36.5v173v0zM447 2q-41 2 -66 -15t-35.5 -41.5t-7 -50.5t18.5 -43t41 -19t62 22
l3 -2q-12 -27 -37 -38.5t-51 -8.5t-46 21.5t-21 51.5q-1 26 9 50t28.5 42t44 28t57.5 8v-5z" />
    <glyph glyph-name="eogonek" unicode="&#x119;" horiz-adv-x="427" 
d="M413 102q2 3 5 0l-2 -5q-18 -27 -41.5 -46t-50.5 -31t-56 -17t-57 -3q-45 3 -78 20.5t-54.5 46.5t-32 68t-10.5 85q0 50 11.5 92.5t36 73.5t62.5 48.5t90 17.5q49 0 84.5 -17t58 -47.5t32.5 -72t7 -89.5q0 -10 -11 -10h-312q0 -26 2 -50t7 -41q12 -45 42.5 -79t81.5 -38
q27 -2 54.5 5t53 20t45.5 31t32 38zM100 304q-2 -16 -3.5 -37t-1.5 -44h274q1 35 -1.5 74t-15 72t-39.5 55t-75 22q-30 0 -53.5 -11.5t-40.5 -31t-28 -45.5t-16 -54zM257 3q-41 2 -66 -15t-35.5 -41.5t-7 -50.5t18.5 -43t41 -19t62 22l3 -2q-12 -27 -37 -38.5t-51 -8.5
t-46 21.5t-21 51.5q-1 26 9 50t28.5 42t44 28t57.5 8v-5z" />
    <glyph glyph-name="Ecaron" unicode="&#x11a;" horiz-adv-x="603" 
d="M560 282q0 7 4 7.5t4 -7.5v-252q0 -22 -4 -26t-24 -4h-527q-7 0 -8 3q0 3 3 3.5t5 0.5h65q15 0 24 0.5t14.5 3.5t7 10t1.5 20v616q0 25 -5.5 30.5t-28.5 5.5h-85q-5 2 -4 4.5t6 2.5h525q10 0 12.5 -6t2.5 -17v-174q0 -5 -4 -5q-2 1 -2.5 1.5t-0.5 5.5l-1 103
q0 44 -23.5 64.5t-85.5 20.5h-235l1 -324h91q44 0 62 25.5t16 66.5v36q0 7 4 6t4 -8v-256q0 -7 -4 -8t-4 6v36q2 41 -16 66.5t-62 25.5h-91v-358h266q30 2 52.5 8t33.5 26q8 15 9.5 31.5t1.5 36.5v173v0zM467 903l-110 -120h-38l-110 120l4 5l124 -77l126 77z" />
    <glyph glyph-name="ecaron" unicode="&#x11b;" horiz-adv-x="427" 
d="M413 102q2 3 5 0l-2 -5q-18 -27 -41.5 -46t-50.5 -31t-56 -17t-57 -3q-45 3 -78 20.5t-54.5 46.5t-32 68t-10.5 85q0 50 11.5 92.5t36 73.5t62.5 48.5t90 17.5q49 0 84.5 -17t58 -47.5t32.5 -72t7 -89.5q0 -10 -11 -10h-312q0 -26 2 -50t7 -41q12 -45 42.5 -79t81.5 -38
q27 -2 54.5 5t53 20t45.5 31t32 38zM100 304q-2 -16 -3.5 -37t-1.5 -44h274q1 35 -1.5 74t-15 72t-39.5 55t-75 22q-30 0 -53.5 -11.5t-40.5 -31t-28 -45.5t-16 -54zM378 697l-110 -120h-38l-110 120l4 5l124 -77l126 77z" />
    <glyph glyph-name="Gcircumflex" unicode="&#x11c;" horiz-adv-x="619" 
d="M405 21q37 8 64 32.5t27 65.5v177q0 13 -1.5 20t-7 10t-14.5 3.5t-24 0.5h-65q-2 0 -5.5 0.5t-2.5 3.5q0 3 8 3h244q8 0 9 -3q0 -3 -3 -3.5t-5 -0.5h-15q-15 0 -24 -0.5t-14.5 -3.5t-7 -10t-1.5 -20v-291q0 -5 -3 -5q-4 0 -4 2.5t-1 5.5q-1 12 -3 23t-7 18t-15 8.5
t-28 -4.5q-25 -9 -41.5 -18t-33.5 -17t-37.5 -13t-52.5 -5q-81 -1 -139.5 28.5t-96.5 79t-56.5 113.5t-18.5 133q0 74 20.5 136.5t62.5 108.5t104.5 72.5t146.5 28.5q30 -1 64.5 -12.5t84.5 -45.5q8 -5 15 -7.5t12.5 0.5t9 13t3.5 30v31h7v-293q0 -4 -4 -4q-3 0 -3 2v4v20
q-2 21 -3 44t-4 46t-9.5 45t-19.5 41q-21 32 -61.5 55t-91.5 22q-68 -2 -116 -31t-78 -74t-43 -98.5t-13 -104.5v-78q1 -58 19.5 -110t49.5 -91t72.5 -63t88.5 -25q29 -1 61 5zM233 812l110 120h38l110 -120l-4 -5l-124 77l-126 -77z" />
    <glyph glyph-name="gcircumflex" unicode="&#x11d;" horiz-adv-x="512" 
d="M37 282q-2 49 17.5 82.5t49.5 54t66.5 29t70.5 6.5q13 0 29 -2q29 -3 66 -18q-4 6 -7 14q-10 26 -1.5 53.5t34.5 40.5q23 10 44 6.5t32 -17.5q9 -11 10 -24.5t-5 -24.5t-17.5 -17t-25.5 -3q-3 0 -5 1l-4 2q-2 2 -1 3.5t2 3.5q10 22 -0.5 33.5t-26.5 10.5
q-16 0 -24.5 -10.5t-10.5 -25t2 -28.5t14 -22q14 -7 30 -18t29.5 -27t22 -37t8.5 -47q1 -58 -20 -92.5t-52 -53t-65.5 -24t-61.5 -5.5q-16 0 -26 0.5t-18.5 2t-18.5 3.5t-27 4q-30 -2 -52.5 -17.5t-29.5 -33.5t5 -32.5t51 -14.5q25 0 58 3t69.5 4.5t73.5 0t69 -11t56.5 -29
t37.5 -52.5q16 -40 2 -79t-44 -71q-51 -53 -110.5 -70.5t-129.5 -19.5q-55 -2 -96 13.5t-64.5 40t-30 55.5t6.5 61t45.5 56t87.5 40q-17 -3 -39.5 -1.5t-42.5 7.5t-35 17.5t-18 29.5q-3 17 7.5 34.5t28.5 32.5t40.5 26t43.5 14q-42 11 -71 46.5t-29 96.5zM174 -19
q-43 -11 -70.5 -34t-39.5 -50.5t-8.5 -57.5t21 -55t50 -42.5t78.5 -20.5q30 -2 62.5 2.5t62.5 16t56.5 29.5t44.5 44q18 25 22.5 54.5t-11.5 61.5q-14 29 -47 41.5t-72.5 16t-80 0.5t-68.5 -6zM242 449q-77 1 -112.5 -33.5t-36.5 -110.5v-36.5t5 -35.5q4 -16 13.5 -33.5
t25.5 -32.5t40.5 -24t60.5 -9q66 4 97.5 27.5t39.5 77.5q3 22 3 48t-1 48q-2 60 -38.5 86t-96.5 28zM109 580l110 120h38l110 -120l-4 -5l-124 77l-126 -77z" />
    <glyph glyph-name="Gbreve" unicode="&#x11e;" horiz-adv-x="619" 
d="M405 21q37 8 64 32.5t27 65.5v177q0 13 -1.5 20t-7 10t-14.5 3.5t-24 0.5h-65q-2 0 -5.5 0.5t-2.5 3.5q0 3 8 3h244q8 0 9 -3q0 -3 -3 -3.5t-5 -0.5h-15q-15 0 -24 -0.5t-14.5 -3.5t-7 -10t-1.5 -20v-291q0 -5 -3 -5q-4 0 -4 2.5t-1 5.5q-1 12 -3 23t-7 18t-15 8.5
t-28 -4.5q-25 -9 -41.5 -18t-33.5 -17t-37.5 -13t-52.5 -5q-81 -1 -139.5 28.5t-96.5 79t-56.5 113.5t-18.5 133q0 74 20.5 136.5t62.5 108.5t104.5 72.5t146.5 28.5q30 -1 64.5 -12.5t84.5 -45.5q8 -5 15 -7.5t12.5 0.5t9 13t3.5 30v31h7v-293q0 -4 -4 -4q-3 0 -3 2v4v20
q-2 21 -3 44t-4 46t-9.5 45t-19.5 41q-21 32 -61.5 55t-91.5 22q-68 -2 -116 -31t-78 -74t-43 -98.5t-13 -104.5v-78q1 -58 19.5 -110t49.5 -91t72.5 -63t88.5 -25q29 -1 61 5zM231 923q5 -34 22 -57.5t39.5 -35.5t48 -12.5t48 10.5t39 34.5t21.5 60.5l5 -4q4 -45 -12.5 -75
t-43.5 -44.5t-59 -14.5t-59 15t-44 44.5t-12 74.5l7 4v0z" />
    <glyph glyph-name="gbreve" unicode="&#x11f;" horiz-adv-x="512" 
d="M37 282q-2 49 17.5 82.5t49.5 54t66.5 29t70.5 6.5q13 0 29 -2q29 -3 66 -18q-4 6 -7 14q-10 26 -1.5 53.5t34.5 40.5q23 10 44 6.5t32 -17.5q9 -11 10 -24.5t-5 -24.5t-17.5 -17t-25.5 -3q-3 0 -5 1l-4 2q-2 2 -1 3.5t2 3.5q10 22 -0.5 33.5t-26.5 10.5
q-16 0 -24.5 -10.5t-10.5 -25t2 -28.5t14 -22q14 -7 30 -18t29.5 -27t22 -37t8.5 -47q1 -58 -20 -92.5t-52 -53t-65.5 -24t-61.5 -5.5q-16 0 -26 0.5t-18.5 2t-18.5 3.5t-27 4q-30 -2 -52.5 -17.5t-29.5 -33.5t5 -32.5t51 -14.5q25 0 58 3t69.5 4.5t73.5 0t69 -11t56.5 -29
t37.5 -52.5q16 -40 2 -79t-44 -71q-51 -53 -110.5 -70.5t-129.5 -19.5q-55 -2 -96 13.5t-64.5 40t-30 55.5t6.5 61t45.5 56t87.5 40q-17 -3 -39.5 -1.5t-42.5 7.5t-35 17.5t-18 29.5q-3 17 7.5 34.5t28.5 32.5t40.5 26t43.5 14q-42 11 -71 46.5t-29 96.5zM174 -19
q-43 -11 -70.5 -34t-39.5 -50.5t-8.5 -57.5t21 -55t50 -42.5t78.5 -20.5q30 -2 62.5 2.5t62.5 16t56.5 29.5t44.5 44q18 25 22.5 54.5t-11.5 61.5q-14 29 -47 41.5t-72.5 16t-80 0.5t-68.5 -6zM242 449q-77 1 -112.5 -33.5t-36.5 -110.5v-36.5t5 -35.5q4 -16 13.5 -33.5
t25.5 -32.5t40.5 -24t60.5 -9q66 4 97.5 27.5t39.5 77.5q3 22 3 48t-1 48q-2 60 -38.5 86t-96.5 28zM126 704q5 -34 22 -57.5t39.5 -35.5t48 -12.5t48 10.5t39 34.5t21.5 60.5l5 -4q4 -45 -12.5 -75t-43.5 -44.5t-59 -14.5t-59 15t-44 44.5t-12 74.5l7 4v0z" />
    <glyph glyph-name="Gdotaccent" unicode="&#x120;" horiz-adv-x="619" 
d="M405 21q37 8 64 32.5t27 65.5v177q0 13 -1.5 20t-7 10t-14.5 3.5t-24 0.5h-65q-2 0 -5.5 0.5t-2.5 3.5q0 3 8 3h244q8 0 9 -3q0 -3 -3 -3.5t-5 -0.5h-15q-15 0 -24 -0.5t-14.5 -3.5t-7 -10t-1.5 -20v-291q0 -5 -3 -5q-4 0 -4 2.5t-1 5.5q-1 12 -3 23t-7 18t-15 8.5
t-28 -4.5q-25 -9 -41.5 -18t-33.5 -17t-37.5 -13t-52.5 -5q-81 -1 -139.5 28.5t-96.5 79t-56.5 113.5t-18.5 133q0 74 20.5 136.5t62.5 108.5t104.5 72.5t146.5 28.5q30 -1 64.5 -12.5t84.5 -45.5q8 -5 15 -7.5t12.5 0.5t9 13t3.5 30v31h7v-293q0 -4 -4 -4q-3 0 -3 2v4v20
q-2 21 -3 44t-4 46t-9.5 45t-19.5 41q-21 32 -61.5 55t-91.5 22q-68 -2 -116 -31t-78 -74t-43 -98.5t-13 -104.5v-78q1 -58 19.5 -110t49.5 -91t72.5 -63t88.5 -25q29 -1 61 5zM335 850q17 0 27 -10.5t10 -26.5q0 -15 -10 -25.5t-27 -10.5q-15 0 -25.5 10.5t-10.5 25.5
q0 16 10.5 26.5t25.5 10.5z" />
    <glyph glyph-name="gdotaccent" unicode="&#x121;" horiz-adv-x="512" 
d="M37 282q-2 49 17.5 82.5t49.5 54t66.5 29t70.5 6.5q13 0 29 -2q29 -3 66 -18q-4 6 -7 14q-10 26 -1.5 53.5t34.5 40.5q23 10 44 6.5t32 -17.5q9 -11 10 -24.5t-5 -24.5t-17.5 -17t-25.5 -3q-3 0 -5 1l-4 2q-2 2 -1 3.5t2 3.5q10 22 -0.5 33.5t-26.5 10.5
q-16 0 -24.5 -10.5t-10.5 -25t2 -28.5t14 -22q14 -7 30 -18t29.5 -27t22 -37t8.5 -47q1 -58 -20 -92.5t-52 -53t-65.5 -24t-61.5 -5.5q-16 0 -26 0.5t-18.5 2t-18.5 3.5t-27 4q-30 -2 -52.5 -17.5t-29.5 -33.5t5 -32.5t51 -14.5q25 0 58 3t69.5 4.5t73.5 0t69 -11t56.5 -29
t37.5 -52.5q16 -40 2 -79t-44 -71q-51 -53 -110.5 -70.5t-129.5 -19.5q-55 -2 -96 13.5t-64.5 40t-30 55.5t6.5 61t45.5 56t87.5 40q-17 -3 -39.5 -1.5t-42.5 7.5t-35 17.5t-18 29.5q-3 17 7.5 34.5t28.5 32.5t40.5 26t43.5 14q-42 11 -71 46.5t-29 96.5zM174 -19
q-43 -11 -70.5 -34t-39.5 -50.5t-8.5 -57.5t21 -55t50 -42.5t78.5 -20.5q30 -2 62.5 2.5t62.5 16t56.5 29.5t44.5 44q18 25 22.5 54.5t-11.5 61.5q-14 29 -47 41.5t-72.5 16t-80 0.5t-68.5 -6zM242 449q-77 1 -112.5 -33.5t-36.5 -110.5v-36.5t5 -35.5q4 -16 13.5 -33.5
t25.5 -32.5t40.5 -24t60.5 -9q66 4 97.5 27.5t39.5 77.5q3 22 3 48t-1 48q-2 60 -38.5 86t-96.5 28zM233 659q17 0 27 -10.5t10 -26.5q0 -15 -10 -25.5t-27 -10.5q-15 0 -25.5 10.5t-10.5 25.5q0 16 10.5 26.5t25.5 10.5z" />
    <glyph glyph-name="uni0122" unicode="&#x122;" horiz-adv-x="619" 
d="M405 21q37 8 64 32.5t27 65.5v177q0 13 -1.5 20t-7 10t-14.5 3.5t-24 0.5h-65q-2 0 -5.5 0.5t-2.5 3.5q0 3 8 3h244q8 0 9 -3q0 -3 -3 -3.5t-5 -0.5h-15q-15 0 -24 -0.5t-14.5 -3.5t-7 -10t-1.5 -20v-291q0 -5 -3 -5q-4 0 -4 2.5t-1 5.5q-1 12 -3 23t-7 18t-15 8.5
t-28 -4.5q-25 -9 -41.5 -18t-33.5 -17t-37.5 -13t-52.5 -5q-81 -1 -139.5 28.5t-96.5 79t-56.5 113.5t-18.5 133q0 74 20.5 136.5t62.5 108.5t104.5 72.5t146.5 28.5q30 -1 64.5 -12.5t84.5 -45.5q8 -5 15 -7.5t12.5 0.5t9 13t3.5 30v31h7v-293q0 -4 -4 -4q-3 0 -3 2v4v20
q-2 21 -3 44t-4 46t-9.5 45t-19.5 41q-21 32 -61.5 55t-91.5 22q-68 -2 -116 -31t-78 -74t-43 -98.5t-13 -104.5v-78q1 -58 19.5 -110t49.5 -91t72.5 -63t88.5 -25q29 -1 61 5zM365 -135q0 -27 -16.5 -44.5t-45.5 -18.5q-5 0 -4.5 2.5t3.5 2.5q25 -2 40.5 15t13.5 40
q-1 3 -3 2.5t-2 -2.5q2 -11 -7 -18.5t-22 -7.5q-16 0 -24.5 11t-9.5 25q-1 17 11 27t28 10q18 0 28 -13.5t10 -30.5z" />
    <glyph glyph-name="uni0123" unicode="&#x123;" horiz-adv-x="512" 
d="M37 282q-2 49 17.5 82.5t49.5 54t66.5 29t70.5 6.5q13 0 29 -2q29 -3 66 -18q-4 6 -7 14q-10 26 -1.5 53.5t34.5 40.5q23 10 44 6.5t32 -17.5q9 -11 10 -24.5t-5 -24.5t-17.5 -17t-25.5 -3q-3 0 -5 1l-4 2q-2 2 -1 3.5t2 3.5q10 22 -0.5 33.5t-26.5 10.5
q-16 0 -24.5 -10.5t-10.5 -25t2 -28.5t14 -22q14 -7 30 -18t29.5 -27t22 -37t8.5 -47q1 -58 -20 -92.5t-52 -53t-65.5 -24t-61.5 -5.5q-16 0 -26 0.5t-18.5 2t-18.5 3.5t-27 4q-30 -2 -52.5 -17.5t-29.5 -33.5t5 -32.5t51 -14.5q25 0 58 3t69.5 4.5t73.5 0t69 -11t56.5 -29
t37.5 -52.5q16 -40 2 -79t-44 -71q-51 -53 -110.5 -70.5t-129.5 -19.5q-55 -2 -96 13.5t-64.5 40t-30 55.5t6.5 61t45.5 56t87.5 40q-17 -3 -39.5 -1.5t-42.5 7.5t-35 17.5t-18 29.5q-3 17 7.5 34.5t28.5 32.5t40.5 26t43.5 14q-42 11 -71 46.5t-29 96.5zM174 -19
q-43 -11 -70.5 -34t-39.5 -50.5t-8.5 -57.5t21 -55t50 -42.5t78.5 -20.5q30 -2 62.5 2.5t62.5 16t56.5 29.5t44.5 44q18 25 22.5 54.5t-11.5 61.5q-14 29 -47 41.5t-72.5 16t-80 0.5t-68.5 -6zM242 449q-77 1 -112.5 -33.5t-36.5 -110.5v-36.5t5 -35.5q4 -16 13.5 -33.5
t25.5 -32.5t40.5 -24t60.5 -9q66 4 97.5 27.5t39.5 77.5q3 22 3 48t-1 48q-2 60 -38.5 86t-96.5 28zM200.006 601.992q0 26.998 16.499 44.4971t45.498 18.499q4.99902 0 4.49902 -2.5t-3.5 -2.5q-24.998 2 -40.4971 -14.999t-13.499 -39.998q1 -2.99902 3 -2.49902
t2 2.49902q-2 11 6.99902 18.499q9 7.5 21.999 7.5q15.999 0 24.498 -11q8.5 -10.999 9.5 -24.998q1 -16.999 -11 -26.998q-11.999 -10 -27.998 -10q-17.999 0 -27.998 13.499q-10 13.5 -10 30.499z" />
    <glyph glyph-name="Hcircumflex" unicode="&#x124;" horiz-adv-x="795" 
d="M207 41q0 -13 1.5 -20t7 -10t14.5 -3.5t24 -0.5h21q2 0 5.5 -0.5t3.5 -3.5q-1 -3 -9 -3h-251q-8 0 -8 3q-1 3 2.5 3.5t5.5 0.5h65q15 0 24 0.5t14.5 3.5t7 10t1.5 20v618q0 13 -1.5 20t-7 10t-14.5 3.5t-24 0.5h-65h-5.5t-2.5 4q0 3 8 3h251q8 0 9 -3q0 -4 -3.5 -4h-5.5
h-21q-15 0 -24 -0.5t-14.5 -3.5t-7 -10t-1.5 -20v-290h385v290q0 13 -1.5 20t-7 10t-14.5 3.5t-24 0.5h-22h-5t-3 4q1 3 9 3h251q8 0 8 -3q1 -4 -2.5 -4h-5.5h-65q-15 0 -24 -0.5t-14.5 -3.5t-7 -10t-1.5 -20v-618q0 -13 1.5 -20t7 -10t14.5 -3.5t24 -0.5h65q2 0 5.5 -0.5
t2.5 -3.5q0 -3 -8 -3h-251q-8 0 -9 3q0 3 3 3.5t5 0.5h22q15 0 24 0.5t14.5 3.5t7 10t1.5 20v321h-385v-321v0zM268 801l110 120h38l110 -120l-4 -5l-124 77l-126 -77z" />
    <glyph glyph-name="hcircumflex" unicode="&#x125;" horiz-adv-x="592" 
d="M592 163q1 -15 0.5 -38t-3.5 -45q-3 -17 -7.5 -32t-12.5 -26t-21 -17t-33 -4q-44 3 -65.5 30.5t-23.5 68.5l-1 210q0 60 -34.5 96t-94.5 34q-28 0 -53.5 -14t-46 -36t-35 -49.5t-19.5 -54.5v-279h49q5 0 5 -4q0 -3 -5 -3h-197q-3 0 -5 2q-3 5 5 5h90v686h-83
q-5 0 -4.5 3.5t4.5 3.5h117q20 0 22 -7.5t2 -19.5v-366q6 25 21 50t35.5 45.5t45.5 33.5t53 15q33 2 66.5 -5t60.5 -24t43.5 -44.5t16.5 -66.5v-221q0 -22 7.5 -44.5t26.5 -30.5q9 -3 21.5 -0.5t20.5 10.5q9 9 14 20.5t7.5 24t3.5 24.5t1 21q1 14 0.5 26t-0.5 22q0 5 3 5
t3 -5zM-8 767l110 120h38l110 -120l-4 -5l-124 77l-126 -77z" />
    <glyph glyph-name="Hbar" unicode="&#x126;" horiz-adv-x="795" 
d="M98 513h612v-8h-612v8zM207 41q0 -13 1.5 -20t7 -10t14.5 -3.5t24 -0.5h21q2 0 5.5 -0.5t3.5 -3.5q-1 -3 -9 -3h-251q-8 0 -8 3q-1 3 2.5 3.5t5.5 0.5h65q15 0 24 0.5t14.5 3.5t7 10t1.5 20v618q0 13 -1.5 20t-7 10t-14.5 3.5t-24 0.5h-65h-5.5t-2.5 4q0 3 8 3h251
q8 0 9 -3q0 -4 -3.5 -4h-5.5h-21q-15 0 -24 -0.5t-14.5 -3.5t-7 -10t-1.5 -20v-290h385v290q0 13 -1.5 20t-7 10t-14.5 3.5t-24 0.5h-22h-5t-3 4q1 3 9 3h251q8 0 8 -3q1 -4 -2.5 -4h-5.5h-65q-15 0 -24 -0.5t-14.5 -3.5t-7 -10t-1.5 -20v-618q0 -13 1.5 -20t7 -10
t14.5 -3.5t24 -0.5h65q2 0 5.5 -0.5t2.5 -3.5q0 -3 -8 -3h-251q-8 0 -9 3q0 3 3 3.5t5 0.5h22q15 0 24 0.5t14.5 3.5t7 10t1.5 20v321h-385v-321z" />
    <glyph glyph-name="hbar" unicode="&#x127;" horiz-adv-x="592" 
d="M5 549h242v-8h-242v8zM592 163q1 -15 0.5 -38t-3.5 -45q-3 -17 -7.5 -32t-12.5 -26t-21 -17t-33 -4q-44 3 -65.5 30.5t-23.5 68.5l-1 210q0 60 -34.5 96t-94.5 34q-28 0 -53.5 -14t-46 -36t-35 -49.5t-19.5 -54.5v-279h49q5 0 5 -4q0 -3 -5 -3h-197q-3 0 -5 2q-3 5 5 5
h90v686h-83q-5 0 -4.5 3.5t4.5 3.5h117q20 0 22 -7.5t2 -19.5v-366q6 25 21 50t35.5 45.5t45.5 33.5t53 15q33 2 66.5 -5t60.5 -24t43.5 -44.5t16.5 -66.5v-221q0 -22 7.5 -44.5t26.5 -30.5q9 -3 21.5 -0.5t20.5 10.5q9 9 14 20.5t7.5 24t3.5 24.5t1 21q1 14 0.5 26t-0.5 22
q0 5 3 5t3 -5z" />
    <glyph glyph-name="Itilde" unicode="&#x128;" horiz-adv-x="342" 
d="M319 700q7 0 8 -3q0 -4 -3 -4h-5h-65q-15 0 -24 -0.5t-14.5 -3.5t-7 -10t-1.5 -20v-618q0 -13 1.5 -20t7 -10t14.5 -3.5t24 -0.5h65q2 0 5 -0.5t3 -3.5q-1 -3 -8 -3h-295q-8 0 -8 3q-1 3 2.5 3.5t5.5 0.5h64q15 0 24.5 0.5t14.5 3.5t6.5 10t1.5 20v618q0 13 -1.5 20
t-6.5 10t-14.5 3.5t-24.5 0.5h-64h-5.5t-2.5 4q0 3 8 3h295zM318 922q-1 -26 -8 -47t-20.5 -34.5t-33.5 -17t-48 4.5q-26 8 -56 20.5t-55 16.5t-40.5 -6.5t-12.5 -48.5l-8 -1q-3 20 -1 38t11.5 32t28.5 21.5t49 6.5q14 -1 33 -8t39.5 -15.5t40.5 -14.5t36 -4t26.5 14.5
t11.5 42.5h7z" />
    <glyph glyph-name="itilde" unicode="&#x129;" horiz-adv-x="241" 
d="M131 89q0 -22 7.5 -44.5t26.5 -30.5q9 -3 21.5 -0.5t21.5 10.5q8 9 13 20.5t7.5 24t3.5 24.5t1 21q1 14 0.5 26t-0.5 22q0 5 3 5t3 -5q1 -15 0.5 -38t-3.5 -45q-3 -17 -7.5 -32t-12.5 -26t-21 -17t-33 -4q-44 3 -65.5 30.5t-23.5 68.5q-1 86 -1 173v174h-82q-5 0 -5 3.5
t5 3.5h116q20 0 22.5 -8t2.5 -19v-337zM248 714q-1 -26 -8 -47t-20.5 -34.5t-33.5 -17t-48 4.5q-26 8 -56 20.5t-55 16.5t-40.5 -6.5t-12.5 -48.5l-8 -1q-3 20 -1 38t11.5 32t28.5 21.5t49 6.5q14 -1 33 -8t39.5 -15.5t40.5 -14.5t36 -4t26.5 14.5t11.5 42.5h7z" />
    <glyph glyph-name="Imacron" unicode="&#x12a;" horiz-adv-x="342" 
d="M319 700q7 0 8 -3q0 -4 -3 -4h-5h-65q-15 0 -24 -0.5t-14.5 -3.5t-7 -10t-1.5 -20v-618q0 -13 1.5 -20t7 -10t14.5 -3.5t24 -0.5h65q2 0 5 -0.5t3 -3.5q-1 -3 -8 -3h-295q-8 0 -8 3q-1 3 2.5 3.5t5.5 0.5h64q15 0 24.5 0.5t14.5 3.5t6.5 10t1.5 20v618q0 13 -1.5 20
t-6.5 10t-14.5 3.5t-24.5 0.5h-64h-5.5t-2.5 4q0 3 8 3h295zM295 823h-242v31h242v-31z" />
    <glyph glyph-name="imacron" unicode="&#x12b;" horiz-adv-x="241" 
d="M131 89q0 -22 7.5 -44.5t26.5 -30.5q9 -3 21.5 -0.5t21.5 10.5q8 9 13 20.5t7.5 24t3.5 24.5t1 21q1 14 0.5 26t-0.5 22q0 5 3 5t3 -5q1 -15 0.5 -38t-3.5 -45q-3 -17 -7.5 -32t-12.5 -26t-21 -17t-33 -4q-44 3 -65.5 30.5t-23.5 68.5q-1 86 -1 173v174h-82q-5 0 -5 3.5
t5 3.5h116q20 0 22.5 -8t2.5 -19v-337zM212 531h-242v31h242v-31z" />
    <glyph glyph-name="Ibreve" unicode="&#x12c;" horiz-adv-x="342" 
d="M319 700q7 0 8 -3q0 -4 -3 -4h-5h-65q-15 0 -24 -0.5t-14.5 -3.5t-7 -10t-1.5 -20v-618q0 -13 1.5 -20t7 -10t14.5 -3.5t24 -0.5h65q2 0 5 -0.5t3 -3.5q-1 -3 -8 -3h-295q-8 0 -8 3q-1 3 2.5 3.5t5.5 0.5h64q15 0 24.5 0.5t14.5 3.5t6.5 10t1.5 20v618q0 13 -1.5 20
t-6.5 10t-14.5 3.5t-24.5 0.5h-64h-5.5t-2.5 4q0 3 8 3h295zM67 923q5 -34 22 -57.5t39.5 -35.5t48 -12.5t48 10.5t39 34.5t21.5 60.5l5 -4q4 -45 -12.5 -75t-43.5 -44.5t-59 -14.5t-59 15t-44 44.5t-12 74.5l7 4v0z" />
    <glyph glyph-name="ibreve" unicode="&#x12d;" horiz-adv-x="241" 
d="M131 89q0 -22 7.5 -44.5t26.5 -30.5q9 -3 21.5 -0.5t21.5 10.5q8 9 13 20.5t7.5 24t3.5 24.5t1 21q1 14 0.5 26t-0.5 22q0 5 3 5t3 -5q1 -15 0.5 -38t-3.5 -45q-3 -17 -7.5 -32t-12.5 -26t-21 -17t-33 -4q-44 3 -65.5 30.5t-23.5 68.5q-1 86 -1 173v174h-82q-5 0 -5 3.5
t5 3.5h116q20 0 22.5 -8t2.5 -19v-337zM-5 704q5 -34 22 -57.5t39.5 -35.5t48 -12.5t48 10.5t39 34.5t21.5 60.5l5 -4q4 -45 -12.5 -75t-43.5 -44.5t-59 -14.5t-59 15t-44 44.5t-12 74.5l7 4v0z" />
    <glyph glyph-name="Iogonek" unicode="&#x12e;" horiz-adv-x="342" 
d="M319 700q7 0 8 -3q0 -4 -3 -4h-5h-65q-15 0 -24 -0.5t-14.5 -3.5t-7 -10t-1.5 -20v-618q0 -13 1.5 -20t7 -10t14.5 -3.5t24 -0.5h65q2 0 5 -0.5t3 -3.5q-1 -3 -8 -3h-295q-8 0 -8 3q-1 3 2.5 3.5t5.5 0.5h64q15 0 24.5 0.5t14.5 3.5t6.5 10t1.5 20v618q0 13 -1.5 20
t-6.5 10t-14.5 3.5t-24.5 0.5h-64h-5.5t-2.5 4q0 3 8 3h295zM301 2q-41 2 -66 -15t-35.5 -41.5t-7 -50.5t18.5 -43t41 -19t62 22l3 -2q-12 -27 -37 -38.5t-51 -8.5t-46 21.5t-21 51.5q-1 26 9 50t28.5 42t44 28t57.5 8v-5z" />
    <glyph glyph-name="iogonek" unicode="&#x12f;" horiz-adv-x="241" 
d="M131 89q0 -22 7.5 -44.5t26.5 -30.5q9 -3 21.5 -0.5t21.5 10.5q8 9 13 20.5t7.5 24t3.5 24.5t1 21q1 14 0.5 26t-0.5 22q0 5 3 5t3 -5q1 -15 0.5 -38t-3.5 -45q-3 -17 -7.5 -32t-12.5 -26t-21 -17t-33 -4q-44 3 -65.5 30.5t-23.5 68.5q-1 86 -1 173v174h-82q-5 0 -5 3.5
t5 3.5h116q20 0 22.5 -8t2.5 -19v-337zM99 604q-13 0 -21.5 9t-8.5 22t8.5 21.5t21.5 8.5t22 -8.5t9 -21.5t-9 -22t-22 -9zM194 6q-41 2 -66 -15t-35.5 -41.5t-7 -50.5t18.5 -43t41 -19t62 22l3 -2q-12 -27 -37 -38.5t-51 -8.5t-46 21.5t-21 51.5q-1 26 9 50t28.5 42t44 28
t57.5 8v-5z" />
    <glyph glyph-name="Idotaccent" unicode="&#x130;" horiz-adv-x="342" 
d="M319 700q7 0 8 -3q0 -4 -3 -4h-5h-65q-15 0 -24 -0.5t-14.5 -3.5t-7 -10t-1.5 -20v-618q0 -13 1.5 -20t7 -10t14.5 -3.5t24 -0.5h65q2 0 5 -0.5t3 -3.5q-1 -3 -8 -3h-295q-8 0 -8 3q-1 3 2.5 3.5t5.5 0.5h64q15 0 24.5 0.5t14.5 3.5t6.5 10t1.5 20v618q0 13 -1.5 20
t-6.5 10t-14.5 3.5t-24.5 0.5h-64h-5.5t-2.5 4q0 3 8 3h295zM170 900q17 0 27 -10.5t10 -26.5q0 -15 -10 -25.5t-27 -10.5q-15 0 -25.5 10.5t-10.5 25.5q0 16 10.5 26.5t25.5 10.5z" />
    <glyph glyph-name="dotlessi" unicode="&#x131;" horiz-adv-x="241" 
d="M131 89q0 -22 7.5 -44.5t26.5 -30.5q9 -3 21.5 -0.5t21.5 10.5q8 9 13 20.5t7.5 24t3.5 24.5t1 21q1 14 0.5 26t-0.5 22q0 5 3 5t3 -5q1 -15 0.5 -38t-3.5 -45q-3 -17 -7.5 -32t-12.5 -26t-21 -17t-33 -4q-44 3 -65.5 30.5t-23.5 68.5q-1 86 -1 173v174h-82q-5 0 -5 3.5
t5 3.5h116q20 0 22.5 -8t2.5 -19v-337z" />
    <glyph glyph-name="IJ" unicode="&#x132;" horiz-adv-x="649" 
d="M319 700q7 0 8 -3q0 -4 -3 -4h-5h-65q-15 0 -24 -0.5t-14.5 -3.5t-7 -10t-1.5 -20v-618q0 -13 1.5 -20t7 -10t14.5 -3.5t24 -0.5h65q2 0 5 -0.5t3 -3.5q-1 -3 -8 -3h-295q-8 0 -8 3q-1 3 2.5 3.5t5.5 0.5h64q15 0 24.5 0.5t14.5 3.5t6.5 10t1.5 20v618q0 13 -1.5 20
t-6.5 10t-14.5 3.5t-24.5 0.5h-64h-5.5t-2.5 4q0 3 8 3h295zM566 659v-473q0 -41 -4 -76t-16.5 -60.5t-35.5 -41t-62 -16.5q-16 -1 -32 2.5t-30.5 11t-25 19.5t-14.5 29q-9 34 3.5 57t34.5 32q23 10 43.5 4.5t30.5 -20.5q8 -12 7 -27t-14 -29q-4 -4 -9 1q-4 4 -9 8.5
t-19 2.5q-12 -2 -19 -9.5t-9 -17t1 -20t10 -19.5q9 -11 23 -16.5t28 -4.5q30 2 48.5 20.5t23.5 41.5q5 22 1.5 40t-18.5 46q-7 12 -8 17.5t-1 19.5v478q0 13 -1.5 20t-6.5 10t-14.5 3.5t-24.5 0.5h-64h-5.5t-3.5 4q1 3 9 3h251q8 0 8 -3q1 -4 -2.5 -4h-5.5h-21
q-15 0 -24 -0.5t-14.5 -3.5t-7 -10t-1.5 -20z" />
    <glyph glyph-name="ij" unicode="&#x133;" horiz-adv-x="442" 
d="M131 89q0 -22 7.5 -44.5t26.5 -30.5q9 -3 21.5 -0.5t21.5 10.5q8 9 13 20.5t7.5 24t3.5 24.5t1 21q1 14 0.5 26t-0.5 22q0 5 3 5t3 -5q1 -15 0.5 -38t-3.5 -45q-3 -17 -7.5 -32t-12.5 -26t-21 -17t-33 -4q-44 3 -65.5 30.5t-23.5 68.5q-1 86 -1 173v174h-82q-5 0 -5 3.5
t5 3.5h116q20 0 22.5 -8t2.5 -19v-337zM99 604q-13 0 -21.5 9t-8.5 22t8.5 21.5t21.5 8.5t22 -8.5t9 -21.5t-9 -22t-22 -9zM256 -285q21 2 35.5 11t24 22.5t14 29t4.5 30.5q1 18 -2.5 34.5t-8 33t-8.5 33t-4 34.5v503h-83q-5 0 -4.5 3.5t4.5 3.5h117q20 0 22 -8t2 -19
l1 -502q0 -27 -2.5 -63.5t-14 -69.5t-34.5 -56.5t-64 -25.5q-34 1 -55 13t-31 29t-10 36t8 35t24 26t37 9q20 -1 29 -9.5t11 -19.5t-1 -21.5t-6 -14.5q-3 -3 -6.5 -2t-6.5 2q-17 5 -33 -4.5t-15 -29.5q2 -20 16.5 -32.5t39.5 -10.5zM337 604q-13 0 -21.5 9t-8.5 22t8.5 21.5
t21.5 8.5t22 -8.5t9 -21.5t-9 -22t-22 -9z" />
    <glyph glyph-name="Jcircumflex" unicode="&#x134;" horiz-adv-x="296" 
d="M215 659v-473q0 -41 -4 -76t-16.5 -60.5t-35.5 -41t-62 -16.5q-16 -1 -32 2.5t-30.5 11t-25 19.5t-14.5 29q-9 34 3.5 57t34.5 32q23 10 43.5 4.5t30.5 -20.5q8 -12 7 -27t-14 -29q-4 -4 -9 1q-4 4 -9 8.5t-19 2.5q-12 -2 -19 -9.5t-9 -17t1 -20t10 -19.5q9 -11 23 -16.5
t28 -4.5q30 2 48.5 20.5t23.5 41.5q5 22 1.5 40t-18.5 46q-7 12 -8 17.5t-1 19.5v478q0 13 -1.5 20t-6.5 10t-14.5 3.5t-24.5 0.5h-64h-5.5t-3.5 4q1 3 9 3h251q8 0 8 -3q1 -4 -2.5 -4h-5.5h-21q-15 0 -24 -0.5t-14.5 -3.5t-7 -10t-1.5 -20zM50 773l110 120h38l110 -120
l-4 -5l-124 77l-126 -77z" />
    <glyph glyph-name="jcircumflex" unicode="&#x135;" horiz-adv-x="216" 
d="M32 -285q21 2 35.5 11t24 22.5t14 29t4.5 30.5q1 18 -2.5 34.5t-8 33t-8.5 33t-4 34.5v503h-83q-5 0 -4.5 3.5t4.5 3.5h117q20 0 22 -8t2 -19l1 -502q0 -27 -2.5 -63.5t-14 -69.5t-34.5 -56.5t-64 -25.5q-34 1 -55 13t-31 29t-10 36t8 35t24 26t37 9q20 -1 29 -9.5
t11 -19.5t-1 -21.5t-6 -14.5q-3 -3 -6.5 -2t-6.5 2q-17 5 -33 -4.5t-15 -29.5q2 -20 16.5 -32.5t39.5 -10.5zM-12 528l110 120h38l110 -120l-4 -5l-124 77l-126 -77z" />
    <glyph glyph-name="uni0136" unicode="&#x136;" 
d="M318 700q8 0 9 -3q0 -4 -3.5 -4h-5.5h-64q-15 0 -24.5 -0.5t-14.5 -3.5t-6.5 -10t-1.5 -20v-367l323 366q11 12 9 23.5t-22 11.5h-79q-5 0 -4.5 3.5t5.5 3.5h251q5 0 5.5 -3.5t-4.5 -3.5h-73q-24 0 -41.5 -7.5t-33.5 -25.5l-232 -263q50 17 81 -26q22 -32 53.5 -73.5
t64.5 -85t62 -83.5t46 -68q9 -14 15 -24.5t12.5 -17t14.5 -9.5t20 -3h36q7 0 7 -4q0 -3 -6 -3h-193q-5 0 -5 3q0 4 5 4h29q11 0 16.5 7.5t-1.5 13.5l-238 325q-5 8 -14.5 18.5t-23.5 3.5l-85 -96v-238q0 -13 1.5 -20t6.5 -10t14.5 -3.5t24.5 -0.5h64q2 0 5.5 -0.5t3.5 -3.5
q-1 -3 -9 -3h-294q-8 0 -9 3q0 3 3 3.5t5 0.5h65q15 0 24.5 0.5t14.5 3.5t6.5 10t1.5 20v618q0 13 -1.5 20t-6.5 10t-14.5 3.5t-24.5 0.5h-65h-5t-3 4q1 3 9 3h294zM420 -135q0 -27 -16.5 -44.5t-45.5 -18.5q-5 0 -4.5 2.5t3.5 2.5q25 -2 40.5 15t13.5 40q-1 3 -3 2.5
t-2 -2.5q2 -11 -7 -18.5t-22 -7.5q-16 0 -24.5 11t-9.5 25q-1 17 11 27t28 10q18 0 28 -13.5t10 -30.5z" />
    <glyph glyph-name="uni0137" unicode="&#x137;" horiz-adv-x="584" 
d="M148 7h49q5 0 5.5 -3.5t-5.5 -3.5h-197q-5 0 -5 3.5t5 3.5h90v686h-83q-5 0 -4.5 3.5t4.5 3.5h117q20 0 22 -7.5t2 -19.5v-497l253 236q12 11 12.5 22.5t-27.5 11.5h-103q-5 0 -5 3.5t6 3.5h247q6 0 6 -3.5t-5 -3.5h-63q-17 0 -31 -12.5t-24 -22.5l-154 -144
q33 10 70.5 10t70 -12.5t53.5 -39t21 -69.5v-67q0 -22 7.5 -44.5t27.5 -30.5q8 -3 21 -0.5t21 10.5q8 9 13 20.5t7.5 24t3.5 24.5t1 21q1 14 0.5 25.5t-0.5 21.5q0 5 3.5 5t3.5 -5v-35t-3 -40.5t-8.5 -39t-15.5 -29.5q-8 -9 -20.5 -14t-30.5 -3q-43 4 -65 27.5t-24 64.5v56
q2 46 -13.5 73t-41 38t-57.5 8t-63 -16l-94 -88v-156zM344 -135q0 -27 -16.5 -44.5t-45.5 -18.5q-5 0 -4.5 2.5t3.5 2.5q25 -2 40.5 15t13.5 40q-1 3 -3 2.5t-2 -2.5q2 -11 -7 -18.5t-22 -7.5q-16 0 -24.5 11t-9.5 25q-1 17 11 27t28 10q18 0 28 -13.5t10 -30.5z" />
    <glyph glyph-name="kgreenlandic" unicode="&#x138;" horiz-adv-x="584" 
d="M148 6h49q5 0 5.5 -3t-5.5 -3h-197q-5 0 -5 3t5 3h90v440h-83q-5 0 -4.5 3.5t4.5 3.5h117q20 0 22 -7.5t2 -19.5v-250l254 238q12 11 12.5 22.5t-27.5 11.5h-103q-5 0 -5 3.5t6 3.5h247q6 0 6 -3.5t-5 -3.5h-63q-17 0 -31 -12.5t-24 -22.5l-155 -146q33 10 70.5 10
t70 -12.5t53.5 -39t21 -69.5v-67q0 -22 7.5 -44.5t27.5 -30.5q8 -3 21 -0.5t21 10.5q8 9 13 20.5t7.5 24t3.5 24.5t1 21q1 14 0.5 25.5t-0.5 21.5q0 5 3.5 5t3.5 -5v-35t-3 -40.5t-8.5 -39t-15.5 -29.5q-8 -9 -20.5 -14t-30.5 -3q-43 4 -65 27.5t-24 64.5v56q2 46 -13.5 73
t-41 38t-57.5 8t-63 -16l-94 -88v-157z" />
    <glyph glyph-name="Lacute" unicode="&#x139;" horiz-adv-x="569" 
d="M546 282q0 7 4 7.5t4 -7.5v-252q0 -22 -4 -26t-24 -4h-526q-8 0 -9 3q0 3 3.5 3.5t5.5 0.5h64q15 0 24.5 0.5t14.5 3.5t6.5 10t1.5 20v618q0 13 -1.5 20t-6.5 10t-14.5 3.5t-24.5 0.5h-64h-5.5t-3.5 4q1 3 9 3h251q8 0 8 -3q1 -4 -2.5 -4h-5.5h-21q-15 0 -24.5 -0.5
t-14.5 -3.5t-6.5 -10t-1.5 -20v-652h266q31 2 53 8t33 26q8 15 10 31.5t2 36.5l-1 173v0zM308 881q12 16 20 25.5t26 11.5q1 0 6.5 0.5t12 -1.5t12 -7.5t6.5 -17.5q2 -15 -11.5 -29.5t-34.5 -27.5q-9 -6 -28 -16.5t-38 -21.5q-22 -12 -47 -27q-10 -5 -5 4z" />
    <glyph glyph-name="lacute" unicode="&#x13a;" horiz-adv-x="236" 
d="M223 161q0 5 3 5t4 -5q0 -15 -0.5 -38.5t-3.5 -44.5q-3 -17 -7.5 -32t-12.5 -26t-21 -17t-33 -4q-44 3 -65.5 30.5t-23.5 68.5v595h-83q-5 0 -5 3.5t5 3.5h116q21 0 23 -8t2 -19v-586q0 -22 7.5 -44t27.5 -30q8 -4 20.5 -1t21.5 11q17 17 20.5 44t4.5 46q1 14 0.5 26
t-0.5 22zM117 866q12 16 20 25.5t26 11.5q1 0 6.5 0.5t12 -1.5t12 -7.5t6.5 -17.5q2 -15 -11.5 -29.5t-34.5 -27.5q-9 -6 -28 -16.5t-38 -21.5q-22 -12 -47 -27q-10 -5 -5 4z" />
    <glyph glyph-name="uni013B" unicode="&#x13b;" horiz-adv-x="569" 
d="M546 282q0 7 4 7.5t4 -7.5v-252q0 -22 -4 -26t-24 -4h-526q-8 0 -9 3q0 3 3.5 3.5t5.5 0.5h64q15 0 24.5 0.5t14.5 3.5t6.5 10t1.5 20v618q0 13 -1.5 20t-6.5 10t-14.5 3.5t-24.5 0.5h-64h-5.5t-3.5 4q1 3 9 3h251q8 0 8 -3q1 -4 -2.5 -4h-5.5h-21q-15 0 -24.5 -0.5
t-14.5 -3.5t-6.5 -10t-1.5 -20v-652h266q31 2 53 8t33 26q8 15 10 31.5t2 36.5l-1 173v0zM335 -135q0 -27 -16.5 -44.5t-45.5 -18.5q-5 0 -4.5 2.5t3.5 2.5q25 -2 40.5 15t13.5 40q-1 3 -3 2.5t-2 -2.5q2 -11 -7 -18.5t-22 -7.5q-16 0 -24.5 11t-9.5 25q-1 17 11 27t28 10
q18 0 28 -13.5t10 -30.5z" />
    <glyph glyph-name="uni013C" unicode="&#x13c;" horiz-adv-x="235" 
d="M223 161q0 5 3 5t4 -5q0 -15 -0.5 -38.5t-3.5 -44.5q-3 -17 -7.5 -32t-12.5 -26t-21 -17t-33 -4q-44 3 -65.5 30.5t-23.5 68.5v595h-83q-5 0 -5 3.5t5 3.5h116q21 0 23 -8t2 -19v-586q0 -22 7.5 -44t27.5 -30q8 -4 20.5 -1t21.5 11q17 17 20.5 44t4.5 46q1 14 0.5 26
t-0.5 22zM184 -135q0 -27 -16.5 -44.5t-45.5 -18.5q-5 0 -4.5 2.5t3.5 2.5q25 -2 40.5 15t13.5 40q-1 3 -3 2.5t-2 -2.5q2 -11 -7 -18.5t-22 -7.5q-16 0 -24.5 11t-9.5 25q-1 17 11 27t28 10q18 0 28 -13.5t10 -30.5z" />
    <glyph glyph-name="Lcaron" unicode="&#x13d;" horiz-adv-x="569" 
d="M546 282q0 7 4 7.5t4 -7.5v-252q0 -22 -4 -26t-24 -4h-526q-8 0 -9 3q0 3 3.5 3.5t5.5 0.5h64q15 0 24.5 0.5t14.5 3.5t6.5 10t1.5 20v618q0 13 -1.5 20t-6.5 10t-14.5 3.5t-24.5 0.5h-64h-5.5t-3.5 4q1 3 9 3h251q8 0 8 -3q1 -4 -2.5 -4h-5.5h-21q-15 0 -24.5 -0.5
t-14.5 -3.5t-6.5 -10t-1.5 -20v-652h266q31 2 53 8t33 26q8 15 10 31.5t2 36.5l-1 173v0zM404.329 671.354q0 -12.4453 -3.77734 -24.4453q-3.77734 -12.001 -10.4932 -21.334q-6.71582 -9.33398 -17.6289 -14.668q-10.9141 -5.33301 -24.3457 -3.55469
q-4.19727 0.888672 -3.35742 3.55469q0.839844 2.66699 3.35742 2.66699q20.9873 -1.77734 33.999 13.334q13.0127 15.1113 11.333 35.5566q-0.838867 2.66699 -2.51855 2.22266q-1.67871 -0.444336 -1.67871 -2.22266q0.839844 -8 -3.77734 -17.334
q-4.61719 -9.33301 -16.3701 -9.33301q-13.4316 0 -23.0859 10.2217q-9.65332 10.2227 -9.65332 25.335q0 15.1113 9.65332 25.7783q9.6543 10.667 23.0859 10.667q15.1104 0 25.1846 -10.667q10.0732 -10.667 10.0732 -25.7783z" />
    <glyph glyph-name="lcaron" unicode="&#x13e;" horiz-adv-x="235" 
d="M223 161q0 5 3 5t4 -5q0 -15 -0.5 -38.5t-3.5 -44.5q-3 -17 -7.5 -32t-12.5 -26t-21 -17t-33 -4q-44 3 -65.5 30.5t-23.5 68.5v595h-83q-5 0 -5 3.5t5 3.5h116q21 0 23 -8t2 -19v-586q0 -22 7.5 -44t27.5 -30q8 -4 20.5 -1t21.5 11q17 17 20.5 44t4.5 46q1 14 0.5 26
t-0.5 22zM256.182 671.929q0 -12.4561 -3.77344 -24.4668q-3.77246 -12.0107 -10.4795 -21.3525t-17.6064 -14.6807q-10.8984 -5.33789 -24.3125 -3.55859q-4.19141 0.889648 -3.35352 3.55859t3.35352 2.66895q20.959 -1.7793 33.9541 13.3457t11.3184 35.5889
q-0.838867 2.66895 -2.51465 2.22363q-1.67773 -0.444336 -1.67773 -2.22363q0.838867 -8.00781 -3.77246 -17.3496q-4.61035 -9.3418 -16.3486 -9.3418q-13.4141 0 -23.0547 10.2314q-9.6416 10.2314 -9.6416 25.3564t9.6416 25.8018q9.64062 10.6768 23.0547 10.6768
q15.0918 0 25.1523 -10.6768t10.0605 -25.8018z" />
    <glyph glyph-name="Ldot" unicode="&#x13f;" horiz-adv-x="569" 
d="M546 282q0 7 4 7.5t4 -7.5v-252q0 -22 -4 -26t-24 -4h-526q-8 0 -9 3q0 3 3.5 3.5t5.5 0.5h64q15 0 24.5 0.5t14.5 3.5t6.5 10t1.5 20v618q0 13 -1.5 20t-6.5 10t-14.5 3.5t-24.5 0.5h-64h-5.5t-3.5 4q1 3 9 3h251q8 0 8 -3q1 -4 -2.5 -4h-5.5h-21q-15 0 -24.5 -0.5
t-14.5 -3.5t-6.5 -10t-1.5 -20v-652h266q31 2 53 8t33 26q8 15 10 31.5t2 36.5l-1 173v0zM374 302q0 -15 -12 -26.5t-31 -11.5q-15 0 -26.5 11.5t-11.5 26.5q0 19 11.5 31t26.5 12q19 0 31 -12t12 -31z" />
    <glyph glyph-name="ldot" unicode="&#x140;" horiz-adv-x="243" 
d="M223 161q0 5 3 5t4 -5q0 -15 -0.5 -38.5t-3.5 -44.5q-3 -17 -7.5 -32t-12.5 -26t-21 -17t-33 -4q-44 3 -65.5 30.5t-23.5 68.5v595h-83q-5 0 -5 3.5t5 3.5h116q21 0 23 -8t2 -19v-586q0 -22 7.5 -44t27.5 -30q8 -4 20.5 -1t21.5 11q17 17 20.5 44t4.5 46q1 14 0.5 26
t-0.5 22zM223 301q0 -15 -12 -26.5t-31 -11.5q-15 0 -26.5 11.5t-11.5 26.5q0 19 11.5 31t26.5 12q19 0 31 -12t12 -31z" />
    <glyph glyph-name="Lslash" unicode="&#x141;" horiz-adv-x="569" 
d="M40 119v8l250 150v-8zM546 282q0 7 4 7.5t4 -7.5v-252q0 -22 -4 -26t-24 -4h-526q-8 0 -9 3q0 3 3.5 3.5t5.5 0.5h64q15 0 24.5 0.5t14.5 3.5t6.5 10t1.5 20v618q0 13 -1.5 20t-6.5 10t-14.5 3.5t-24.5 0.5h-64h-5.5t-3.5 4q1 3 9 3h251q8 0 8 -3q1 -4 -2.5 -4h-5.5h-21
q-15 0 -24.5 -0.5t-14.5 -3.5t-6.5 -10t-1.5 -20v-652h266q31 2 53 8t33 26q8 15 10 31.5t2 36.5z" />
    <glyph glyph-name="lslash" unicode="&#x142;" horiz-adv-x="233" 
d="M24 227v8l155 95v-8zM223 161q0 5 3 5t4 -5q0 -15 -0.5 -38.5t-3.5 -44.5q-3 -17 -7.5 -32t-12.5 -26t-21 -17t-33 -4q-44 3 -65.5 30.5t-23.5 68.5v595h-83q-5 0 -5 3.5t5 3.5h116q21 0 23 -8t2 -19v-586q0 -22 7.5 -44t27.5 -30q8 -4 20.5 -1t21.5 11q17 17 20.5 44
t4.5 46q1 14 0.5 26t-0.5 22z" />
    <glyph glyph-name="Nacute" unicode="&#x143;" horiz-adv-x="738" 
d="M91 647l-23 29q-14 17 -34 17h-17q-6 0 -6 3q0 4 5 4h104q17 0 22 -4.5t16 -17.5l471 -624v624q-3 11 -12.5 13t-32.5 2h-51h-5t-3 4q1 3 9 3h200q8 0 8 -3q0 -4 -3 -4h-5h-51q-23 0 -33 -2t-12 -13v-678h-39q-16 0 -22 6.5t-16 19.5l-462 610v-615q3 -11 13 -12.5
t33 -1.5h51q2 0 5 -0.5t3 -3.5t-6 -3h-2h-10h-191q-7 0 -8 3q0 3 3 3.5t5 0.5h51q23 0 32.5 1.5t12.5 12.5v626zM364 881q12 16 20 25.5t26 11.5q1 0 6.5 0.5t12 -1.5t12 -7.5t6.5 -17.5q2 -15 -11.5 -29.5t-34.5 -27.5q-9 -6 -28 -16.5t-38 -21.5q-22 -12 -47 -27
q-10 -5 -5 4z" />
    <glyph glyph-name="nacute" unicode="&#x144;" horiz-adv-x="595" 
d="M146 7h49q6 0 6 -4q0 -3 -6 -3h-190q-3 0 -5 2q-3 5 5 5h83v439h-83q-5 0 -4.5 3.5t4.5 3.5h117q20 0 22 -7.5t2 -18.5v-123q6 25 21 50t35.5 45.5t45.5 33.5t53 15q33 2 66.5 -5t60.5 -24t43.5 -44.5t16.5 -66.5v-219q0 -22 7.5 -44.5t26.5 -30.5q9 -3 21.5 -0.5
t21.5 10.5q8 9 13 20.5t7.5 24t3.5 24.5t1 21q1 14 0.5 25.5t-0.5 21.5q0 5 3 5t3 -5v-34t-2.5 -40t-7.5 -38.5t-14 -29.5q-8 -10 -21 -15.5t-32 -3.5q-44 3 -65.5 30.5t-23.5 68.5l-1 208q0 60 -34.5 96t-94.5 34q-28 0 -53.5 -14t-46 -36t-35 -49.5t-19.5 -54.5v-276z
M311 662q12 16 20 25.5t26 11.5q1 0 6.5 0.5t12 -1.5t12 -7.5t6.5 -17.5q2 -15 -11.5 -29.5t-34.5 -27.5q-9 -6 -28 -16.5t-38 -21.5q-22 -12 -47 -27q-10 -5 -5 4z" />
    <glyph glyph-name="uni0145" unicode="&#x145;" horiz-adv-x="738" 
d="M91 647l-23 29q-14 17 -34 17h-17q-6 0 -6 3q0 4 5 4h104q17 0 22 -4.5t16 -17.5l471 -624v624q-3 11 -12.5 13t-32.5 2h-51h-5t-3 4q1 3 9 3h200q8 0 8 -3q0 -4 -3 -4h-5h-51q-23 0 -33 -2t-12 -13v-678h-39q-16 0 -22 6.5t-16 19.5l-462 610v-615q3 -11 13 -12.5
t33 -1.5h51q2 0 5 -0.5t3 -3.5t-6 -3h-2h-10h-191q-7 0 -8 3q0 3 3 3.5t5 0.5h51q23 0 32.5 1.5t12.5 12.5v626zM391 -135q0 -27 -16.5 -44.5t-45.5 -18.5q-5 0 -4.5 2.5t3.5 2.5q25 -2 40.5 15t13.5 40q-1 3 -3 2.5t-2 -2.5q2 -11 -7 -18.5t-22 -7.5q-16 0 -24.5 11
t-9.5 25q-1 17 11 27t28 10q18 0 28 -13.5t10 -30.5z" />
    <glyph glyph-name="uni0146" unicode="&#x146;" horiz-adv-x="596" 
d="M146 7h49q6 0 6 -4q0 -3 -6 -3h-190q-3 0 -5 2q-3 5 5 5h83v439h-83q-5 0 -4.5 3.5t4.5 3.5h117q20 0 22 -7.5t2 -18.5v-123q6 25 21 50t35.5 45.5t45.5 33.5t53 15q33 2 66.5 -5t60.5 -24t43.5 -44.5t16.5 -66.5v-219q0 -22 7.5 -44.5t26.5 -30.5q9 -3 21.5 -0.5
t21.5 10.5q8 9 13 20.5t7.5 24t3.5 24.5t1 21q1 14 0.5 25.5t-0.5 21.5q0 5 3 5t3 -5v-34t-2.5 -40t-7.5 -38.5t-14 -29.5q-8 -10 -21 -15.5t-32 -3.5q-44 3 -65.5 30.5t-23.5 68.5l-1 208q0 60 -34.5 96t-94.5 34q-28 0 -53.5 -14t-46 -36t-35 -49.5t-19.5 -54.5v-276z
M344 -135q0 -27 -16.5 -44.5t-45.5 -18.5q-5 0 -4.5 2.5t3.5 2.5q25 -2 40.5 15t13.5 40q-1 3 -3 2.5t-2 -2.5q2 -11 -7 -18.5t-22 -7.5q-16 0 -24.5 11t-9.5 25q-1 17 11 27t28 10q18 0 28 -13.5t10 -30.5z" />
    <glyph glyph-name="Ncaron" unicode="&#x147;" horiz-adv-x="738" 
d="M91 647l-23 29q-14 17 -34 17h-17q-6 0 -6 3q0 4 5 4h104q17 0 22 -4.5t16 -17.5l471 -624v624q-3 11 -12.5 13t-32.5 2h-51h-5t-3 4q1 3 9 3h200q8 0 8 -3q0 -4 -3 -4h-5h-51q-23 0 -33 -2t-12 -13v-678h-39q-16 0 -22 6.5t-16 19.5l-462 610v-615q3 -11 13 -12.5
t33 -1.5h51q2 0 5 -0.5t3 -3.5t-6 -3h-2h-10h-191q-7 0 -8 3q0 3 3 3.5t5 0.5h51q23 0 32.5 1.5t12.5 12.5v626zM513 903l-110 -120h-38l-110 120l4 5l124 -77l126 77z" />
    <glyph glyph-name="ncaron" unicode="&#x148;" horiz-adv-x="597" 
d="M146 7h49q6 0 6 -4q0 -3 -6 -3h-190q-3 0 -5 2q-3 5 5 5h83v439h-83q-5 0 -4.5 3.5t4.5 3.5h117q20 0 22 -7.5t2 -18.5v-123q6 25 21 50t35.5 45.5t45.5 33.5t53 15q33 2 66.5 -5t60.5 -24t43.5 -44.5t16.5 -66.5v-219q0 -22 7.5 -44.5t26.5 -30.5q9 -3 21.5 -0.5
t21.5 10.5q8 9 13 20.5t7.5 24t3.5 24.5t1 21q1 14 0.5 25.5t-0.5 21.5q0 5 3 5t3 -5v-34t-2.5 -40t-7.5 -38.5t-14 -29.5q-8 -10 -21 -15.5t-32 -3.5q-44 3 -65.5 30.5t-23.5 68.5l-1 208q0 60 -34.5 96t-94.5 34q-28 0 -53.5 -14t-46 -36t-35 -49.5t-19.5 -54.5v-276z
M426 697l-110 -120h-38l-110 120l4 5l124 -77l126 77z" />
    <glyph glyph-name="Omacron" unicode="&#x14c;" 
d="M556 374q0 67 -13 125.5t-40.5 101.5t-70 67.5t-100.5 23.5q-59 1 -101 -23.5t-69.5 -67.5t-40.5 -101.5t-13 -125.5v-48q0 -68 13 -126t40.5 -101t69.5 -67.5t101 -23.5q58 -1 100.5 23.5t70 67.5t40.5 101t13 126v48zM30 350q-3 65 17 128t59.5 112.5t97 79.5t128.5 30
t128 -30t97 -79.5t60 -112.5t17 -128q0 -67 -20 -130.5t-58 -112t-94.5 -78t-129.5 -29.5q-71 0 -128.5 30t-97 79.5t-59.5 112.5t-17 128zM445 823h-242v31h242v-31z" />
    <glyph glyph-name="omacron" unicode="&#x14d;" horiz-adv-x="484" 
d="M242 454q46 -2 85 -16.5t67.5 -43t44 -70.5t13.5 -97q2 -55 -13.5 -97t-44 -70.5t-67.5 -43.5t-85 -16q-45 1 -84 16t-67.5 43.5t-44 70.5t-13.5 97q-2 55 13.5 97t44 70.5t67.5 43t84 16.5zM390 228q1 111 -34.5 165t-113.5 56q-77 -2 -112.5 -56t-34.5 -165
q0 -39 5 -78.5t20.5 -71t44.5 -52t77 -21.5q48 1 77.5 21.5t45 52t20.5 71t5 78.5zM361 530h-242v31h242v-31z" />
    <glyph glyph-name="Obreve" unicode="&#x14e;" 
d="M556 374q0 67 -13 125.5t-40.5 101.5t-70 67.5t-100.5 23.5q-59 1 -101 -23.5t-69.5 -67.5t-40.5 -101.5t-13 -125.5v-48q0 -68 13 -126t40.5 -101t69.5 -67.5t101 -23.5q58 -1 100.5 23.5t70 67.5t40.5 101t13 126v48zM30 350q-3 65 17 128t59.5 112.5t97 79.5t128.5 30
t128 -30t97 -79.5t60 -112.5t17 -128q0 -67 -20 -130.5t-58 -112t-94.5 -78t-129.5 -29.5q-71 0 -128.5 30t-97 79.5t-59.5 112.5t-17 128zM218 923q5 -34 22 -57.5t39.5 -35.5t48 -12.5t48 10.5t39 34.5t21.5 60.5l5 -4q4 -45 -12.5 -75t-43.5 -44.5t-59 -14.5t-59 15
t-44 44.5t-12 74.5l7 4v0z" />
    <glyph glyph-name="obreve" unicode="&#x14f;" horiz-adv-x="484" 
d="M242 454q46 -2 85 -16.5t67.5 -43t44 -70.5t13.5 -97q2 -55 -13.5 -97t-44 -70.5t-67.5 -43.5t-85 -16q-45 1 -84 16t-67.5 43.5t-44 70.5t-13.5 97q-2 55 13.5 97t44 70.5t67.5 43t84 16.5zM390 228q1 111 -34.5 165t-113.5 56q-77 -2 -112.5 -56t-34.5 -165
q0 -39 5 -78.5t20.5 -71t44.5 -52t77 -21.5q48 1 77.5 21.5t45 52t20.5 71t5 78.5zM138 696q5 -34 22 -57.5t39.5 -35.5t48 -12.5t48 10.5t39 34.5t21.5 60.5l5 -4q4 -45 -12.5 -75t-43.5 -44.5t-59 -14.5t-59 15t-44 44.5t-12 74.5l7 4v0z" />
    <glyph glyph-name="Ohungarumlaut" unicode="&#x150;" 
d="M556 374q0 67 -13 125.5t-40.5 101.5t-70 67.5t-100.5 23.5q-59 1 -101 -23.5t-69.5 -67.5t-40.5 -101.5t-13 -125.5v-48q0 -68 13 -126t40.5 -101t69.5 -67.5t101 -23.5q58 -1 100.5 23.5t70 67.5t40.5 101t13 126v48zM30 350q-3 65 17 128t59.5 112.5t97 79.5t128.5 30
t128 -30t97 -79.5t60 -112.5t17 -128q0 -67 -20 -130.5t-58 -112t-94.5 -78t-129.5 -29.5q-71 0 -128.5 30t-97 79.5t-59.5 112.5t-17 128zM260 885q11 17 20.5 29.5t27.5 14.5q1 0 6.5 0.5t12 -1.5t12 -7.5t6.5 -17.5q2 -15 -12.5 -28t-35.5 -26q-9 -6 -25 -17.5t-32 -22.5
q-18 -13 -39 -28q-10 -5 -5 4zM430 885q11 17 20.5 29.5t27.5 14.5q1 0 6.5 0.5t12 -1.5t12 -7.5t6.5 -17.5q2 -15 -12.5 -28t-35.5 -26q-9 -6 -25 -17.5t-32 -22.5q-18 -13 -39 -28q-10 -5 -5 4z" />
    <glyph glyph-name="ohungarumlaut" unicode="&#x151;" horiz-adv-x="484" 
d="M242 454q46 -2 85 -16.5t67.5 -43t44 -70.5t13.5 -97q2 -55 -13.5 -97t-44 -70.5t-67.5 -43.5t-85 -16q-45 1 -84 16t-67.5 43.5t-44 70.5t-13.5 97q-2 55 13.5 97t44 70.5t67.5 43t84 16.5zM390 228q1 111 -34.5 165t-113.5 56q-77 -2 -112.5 -56t-34.5 -165
q0 -39 5 -78.5t20.5 -71t44.5 -52t77 -21.5q48 1 77.5 21.5t45 52t20.5 71t5 78.5zM161 655q11 17 20.5 29.5t27.5 14.5q1 0 6.5 0.5t12 -1.5t12 -7.5t6.5 -17.5q2 -15 -12.5 -28t-35.5 -26q-9 -6 -25 -17.5t-32 -22.5q-18 -13 -39 -28q-10 -5 -5 4zM331 655
q11 17 20.5 29.5t27.5 14.5q1 0 6.5 0.5t12 -1.5t12 -7.5t6.5 -17.5q2 -15 -12.5 -28t-35.5 -26q-9 -6 -25 -17.5t-32 -22.5q-18 -13 -39 -28q-10 -5 -5 4z" />
    <glyph glyph-name="OE" unicode="&#x152;" horiz-adv-x="942" 
d="M430 7h24.5t14.5 3.5t6.5 10.5t1.5 20v616q0 25 -5.5 30.5t-28.5 5.5l-110 -1q-59 0 -101 -24.5t-70 -67t-41 -101t-13 -125.5v-48q0 -68 13 -126t41 -101t70 -67.5t101 -24.5h97zM886 700q9 0 11.5 -6t2.5 -17v-174q0 -5 -4 -5q-2 1 -2.5 1.5t-0.5 5.5v103
q0 44 -24 64.5t-86 20.5l-235 -1l1 -323h91q44 0 62 25.5t16 66.5v36q0 7 4 6t4 -8v-256q0 -7 -4 -8t-4 6v36q2 41 -16 66.5t-62 25.5h-91v-5v-353h266q31 2 53 8t33 26q8 15 10 31.5t1 36.5v173q0 7 4 7.5t4 -7.5v-252q0 -22 -4 -26t-24 -4q-140 0 -279.5 -1t-279.5 1
q-71 -1 -128.5 29t-97 79.5t-59.5 113t-17 128.5q-3 65 17 128t59.5 112.5t97 79.5t128.5 30h553z" />
    <glyph glyph-name="oe" unicode="&#x153;" horiz-adv-x="782" 
d="M390 228q0 -39 -5 -78.5t-20.5 -71t-44.5 -52t-77 -21.5q-48 1 -77.5 21.5t-45 52t-20.5 71t-5 78.5q-1 111 34.5 165t113.5 56q77 -2 112.5 -56t34.5 -165zM243 454q-46 -2 -85 -16.5t-67.5 -43t-44 -70.5t-13.5 -97q-2 -55 13.5 -97t44 -70.5t67.5 -43.5t85 -16
q57 2 102.5 24t73.5 66q20 -38 56 -61.5t90 -26.5q57 -4 113 19.5t93 77.5q2 4 1 5q-2 4 -4 0q-12 -20 -32.5 -38t-45.5 -31t-53 -20t-54 -5q-52 4 -82.5 38t-42.5 79q-5 17 -7 41t-2 50h313q6 0 8 2.5t3 7.5q3 48 -7 89.5t-33 72t-58.5 47.5t-83.5 17q-63 -1 -105 -25.5
t-65 -67.5q-28 45 -74.5 68t-103.5 25zM449 225q0 23 1.5 44t4.5 37q6 39 22 70.5t45 50.5q43 28 93 19q39 -6 61.5 -27.5t33.5 -52t12.5 -67.5t0.5 -74h-274z" />
    <glyph glyph-name="Racute" unicode="&#x154;" horiz-adv-x="723" 
d="M367 700q98 0 148.5 -38t49.5 -125q0 -38 -12.5 -65t-33.5 -46t-49 -31t-61 -19q-3 0 -2.5 -1t2.5 -1q50 -3 81.5 -14.5t49.5 -30.5t25.5 -43.5t11 -53.5t5.5 -61t9 -66q7 -32 25.5 -54.5t44.5 -30.5q16 -5 30 -1.5t24.5 10.5t17 14t8.5 10q3 5 5 3t0 -6q-5 -7 -12 -17
t-19.5 -19.5t-30.5 -16t-43 -6.5q-59 1 -87.5 28.5t-39.5 83.5q-6 27 -7.5 57t-4.5 60t-9 56.5t-21 47.5t-40 33t-66 12h-169v-328q0 -13 1.5 -20t6.5 -10t14.5 -3.5t24.5 -0.5h64q2 0 5.5 -0.5t2.5 -3.5q0 -3 -8 -3h-295q-7 0 -8 3q0 3 3 3.5t5 0.5h65q15 0 24 0.5
t14.5 3.5t7 10t1.5 20v618q0 13 -1.5 20t-7 10t-14.5 3.5t-24 0.5h-65h-5t-3 4q1 3 8 3h354zM367 377q29 0 53.5 12.5t42.5 34t28 49.5t10 59q0 45 -10.5 76t-27 50t-37.5 27t-43 8h-186v-316v-1zM374 881q12 16 20 25.5t26 11.5q1 0 6.5 0.5t12 -1.5t12 -7.5t6.5 -17.5
q2 -15 -11.5 -29.5t-34.5 -27.5q-9 -6 -28 -16.5t-38 -21.5q-22 -12 -47 -27q-10 -5 -5 4z" />
    <glyph glyph-name="racute" unicode="&#x155;" horiz-adv-x="381" 
d="M153 7h49q5 0 5.5 -1t0.5 -3t-0.5 -2.5t-5.5 -0.5h-196q-5 0 -5 2q-3 5 4 5h90l1 439h-91q-5 0 -5 3.5t5 3.5h124q21 0 23 -8t2 -19v-119q3 30 15 61t31.5 55t47 37.5t61.5 9.5q39 -5 61.5 -32.5t16.5 -65.5q-2 -11 -8 -21.5t-15 -18.5t-21.5 -12.5t-27.5 -3.5
q-12 1 -21 7.5t-13 16t-3 20.5t8 21q2 3 5.5 3h8.5q21 -2 30.5 6.5t9.5 20.5t-8.5 24.5t-23.5 18.5q-23 8 -51 -2.5t-55 -45.5q-14 -18 -23 -39t-14.5 -42.5t-8 -42t-2.5 -37.5q-1 -17 -1 -47v-64.5v-68v-58.5zM239 681q12 16 20 25.5t26 11.5q1 0 6.5 0.5t12 -1.5t12 -7.5
t6.5 -17.5q2 -15 -11.5 -29.5t-34.5 -27.5q-9 -6 -28 -16.5t-38 -21.5q-22 -12 -47 -27q-10 -5 -5 4z" />
    <glyph glyph-name="uni0156" unicode="&#x156;" horiz-adv-x="723" 
d="M367 700q98 0 148.5 -38t49.5 -125q0 -38 -12.5 -65t-33.5 -46t-49 -31t-61 -19q-3 0 -2.5 -1t2.5 -1q50 -3 81.5 -14.5t49.5 -30.5t25.5 -43.5t11 -53.5t5.5 -61t9 -66q7 -32 25.5 -54.5t44.5 -30.5q16 -5 30 -1.5t24.5 10.5t17 14t8.5 10q3 5 5 3t0 -6q-5 -7 -12 -17
t-19.5 -19.5t-30.5 -16t-43 -6.5q-59 1 -87.5 28.5t-39.5 83.5q-6 27 -7.5 57t-4.5 60t-9 56.5t-21 47.5t-40 33t-66 12h-169v-328q0 -13 1.5 -20t6.5 -10t14.5 -3.5t24.5 -0.5h64q2 0 5.5 -0.5t2.5 -3.5q0 -3 -8 -3h-295q-7 0 -8 3q0 3 3 3.5t5 0.5h65q15 0 24 0.5
t14.5 3.5t7 10t1.5 20v618q0 13 -1.5 20t-7 10t-14.5 3.5t-24 0.5h-65h-5t-3 4q1 3 8 3h354zM367 377q29 0 53.5 12.5t42.5 34t28 49.5t10 59q0 45 -10.5 76t-27 50t-37.5 27t-43 8h-186v-316v-1zM401 -135q0 -27 -16.5 -44.5t-45.5 -18.5q-5 0 -4.5 2.5t3.5 2.5
q25 -2 40.5 15t13.5 40q-1 3 -3 2.5t-2 -2.5q2 -11 -7 -18.5t-22 -7.5q-16 0 -24.5 11t-9.5 25q-1 17 11 27t28 10q18 0 28 -13.5t10 -30.5z" />
    <glyph glyph-name="uni0157" unicode="&#x157;" horiz-adv-x="381" 
d="M153 7h49q5 0 5.5 -1t0.5 -3t-0.5 -2.5t-5.5 -0.5h-196q-5 0 -5 2q-3 5 4 5h90l1 439h-91q-5 0 -5 3.5t5 3.5h124q21 0 23 -8t2 -19v-119q3 30 15 61t31.5 55t47 37.5t61.5 9.5q39 -5 61.5 -32.5t16.5 -65.5q-2 -11 -8 -21.5t-15 -18.5t-21.5 -12.5t-27.5 -3.5
q-12 1 -21 7.5t-13 16t-3 20.5t8 21q2 3 5.5 3h8.5q21 -2 30.5 6.5t9.5 20.5t-8.5 24.5t-23.5 18.5q-23 8 -51 -2.5t-55 -45.5q-14 -18 -23 -39t-14.5 -42.5t-8 -42t-2.5 -37.5q-1 -17 -1 -47v-64.5v-68v-58.5zM165 -135q0 -27 -16.5 -44.5t-45.5 -18.5q-5 0 -4.5 2.5
t3.5 2.5q25 -2 40.5 15t13.5 40q-1 3 -3 2.5t-2 -2.5q2 -11 -7 -18.5t-22 -7.5q-16 0 -24.5 11t-9.5 25q-1 17 11 27t28 10q18 0 28 -13.5t10 -30.5z" />
    <glyph glyph-name="Rcaron" unicode="&#x158;" horiz-adv-x="723" 
d="M367 700q98 0 148.5 -38t49.5 -125q0 -38 -12.5 -65t-33.5 -46t-49 -31t-61 -19q-3 0 -2.5 -1t2.5 -1q50 -3 81.5 -14.5t49.5 -30.5t25.5 -43.5t11 -53.5t5.5 -61t9 -66q7 -32 25.5 -54.5t44.5 -30.5q16 -5 30 -1.5t24.5 10.5t17 14t8.5 10q3 5 5 3t0 -6q-5 -7 -12 -17
t-19.5 -19.5t-30.5 -16t-43 -6.5q-59 1 -87.5 28.5t-39.5 83.5q-6 27 -7.5 57t-4.5 60t-9 56.5t-21 47.5t-40 33t-66 12h-169v-328q0 -13 1.5 -20t6.5 -10t14.5 -3.5t24.5 -0.5h64q2 0 5.5 -0.5t2.5 -3.5q0 -3 -8 -3h-295q-7 0 -8 3q0 3 3 3.5t5 0.5h65q15 0 24 0.5
t14.5 3.5t7 10t1.5 20v618q0 13 -1.5 20t-7 10t-14.5 3.5t-24 0.5h-65h-5t-3 4q1 3 8 3h354zM367 377q29 0 53.5 12.5t42.5 34t28 49.5t10 59q0 45 -10.5 76t-27 50t-37.5 27t-43 8h-186v-316v-1zM453 903l-110 -120h-38l-110 120l4 5l124 -77l126 77z" />
    <glyph glyph-name="rcaron" unicode="&#x159;" horiz-adv-x="382" 
d="M153 7h49q5 0 5.5 -1t0.5 -3t-0.5 -2.5t-5.5 -0.5h-196q-5 0 -5 2q-3 5 4 5h90l1 439h-91q-5 0 -5 3.5t5 3.5h124q21 0 23 -8t2 -19v-119q3 30 15 61t31.5 55t47 37.5t61.5 9.5q39 -5 61.5 -32.5t16.5 -65.5q-2 -11 -8 -21.5t-15 -18.5t-21.5 -12.5t-27.5 -3.5
q-12 1 -21 7.5t-13 16t-3 20.5t8 21q2 3 5.5 3h8.5q21 -2 30.5 6.5t9.5 20.5t-8.5 24.5t-23.5 18.5q-23 8 -51 -2.5t-55 -45.5q-14 -18 -23 -39t-14.5 -42.5t-8 -42t-2.5 -37.5q-1 -17 -1 -47v-64.5v-68v-58.5zM333 703l-110 -120h-38l-110 120l4 5l124 -77l126 77z" />
    <glyph glyph-name="Sacute" unicode="&#x15a;" horiz-adv-x="534" 
d="M282 690q-18 1 -40 -2t-43 -10t-40.5 -19t-33.5 -29q-16 -19 -22 -39t-3.5 -40.5t13 -39.5t28.5 -35q27 -25 67 -46.5t83 -42.5t85 -43.5t73.5 -50.5t48.5 -63t11 -80q-6 -39 -29.5 -69.5t-56.5 -51.5t-70.5 -31.5t-70.5 -10.5q-55 2 -100 21t-90 49q-16 11 -28.5 -0.5
t-11.5 -40.5v-16h-7v262q0 4 4 4q3 0 3 -2v-4v-4q1 -21 2.5 -42.5t5 -42.5t10 -41.5t19.5 -39.5q14 -21 37 -38t49.5 -29.5t54.5 -19.5t53 -7q34 0 64.5 11t54 30.5t37.5 47t14 60.5q1 41 -28.5 72t-74 57t-97 50t-99 51.5t-78.5 61.5t-36 81q-4 51 18 87t58.5 57.5
t80.5 30.5t85 6q30 0 64.5 -10t85.5 -44q8 -5 15 -8.5t12.5 -2t9 10.5t3.5 29v31h7v-277q0 -4 -3 -4t-3 2t-1 4v4q-2 21 -3 45t-4.5 48t-10 47t-19.5 42q-21 32 -61.5 51.5t-91.5 22.5zM266 881q12 16 20 25.5t26 11.5q1 0 6.5 0.5t12 -1.5t12 -7.5t6.5 -17.5
q2 -15 -11.5 -29.5t-34.5 -27.5q-9 -6 -28 -16.5t-38 -21.5q-22 -12 -47 -27q-10 -5 -5 4z" />
    <glyph glyph-name="sacute" unicode="&#x15b;" horiz-adv-x="407" 
d="M102 327q19 -15 47 -28.5t58.5 -28t60.5 -30t54 -33.5t38.5 -38.5t14.5 -45.5q0 -34 -17.5 -58t-43 -39t-55.5 -21.5t-56 -6.5q-42 0 -80 14t-70 37q-14 10 -14 -7v-40q0 -5 -4 -5q-3 0 -3 6v157q0 6 3 6q4 0 4 -6q-1 -42 19.5 -79t58.5 -56q37 -18 77 -19.5t77 15.5
q28 13 41.5 40.5t3.5 57.5q-9 26 -34.5 45t-58.5 35t-69 31.5t-65 33.5t-47 40.5t-16 53.5q2 27 19 45.5t42 29.5t53.5 16t54.5 4q9 0 25 -1t34.5 -5t38.5 -13t38 -24q4 -3 7 -2t3 5v47v3.5t3 1.5q4 0 4 -6v-157q0 -6 -3 -6q-4 0 -4 6q0 41 -13 68.5t-34 44t-47 24t-52 8.5
q-20 1 -50 -6.5t-50 -23.5q-26 -21 -21.5 -46.5t28.5 -43.5zM210 662q12 16 20 25.5t26 11.5q1 0 6.5 0.5t12 -1.5t12 -7.5t6.5 -17.5q2 -15 -11.5 -29.5t-34.5 -27.5q-9 -6 -28 -16.5t-38 -21.5q-22 -12 -47 -27q-10 -5 -5 4z" />
    <glyph glyph-name="Scircumflex" unicode="&#x15c;" horiz-adv-x="534" 
d="M282 690q-18 1 -40 -2t-43 -10t-40.5 -19t-33.5 -29q-16 -19 -22 -39t-3.5 -40.5t13 -39.5t28.5 -35q27 -25 67 -46.5t83 -42.5t85 -43.5t73.5 -50.5t48.5 -63t11 -80q-6 -39 -29.5 -69.5t-56.5 -51.5t-70.5 -31.5t-70.5 -10.5q-55 2 -100 21t-90 49q-16 11 -28.5 -0.5
t-11.5 -40.5v-16h-7v262q0 4 4 4q3 0 3 -2v-4v-4q1 -21 2.5 -42.5t5 -42.5t10 -41.5t19.5 -39.5q14 -21 37 -38t49.5 -29.5t54.5 -19.5t53 -7q34 0 64.5 11t54 30.5t37.5 47t14 60.5q1 41 -28.5 72t-74 57t-97 50t-99 51.5t-78.5 61.5t-36 81q-4 51 18 87t58.5 57.5
t80.5 30.5t85 6q30 0 64.5 -10t85.5 -44q8 -5 15 -8.5t12.5 -2t9 10.5t3.5 29v31h7v-277q0 -4 -3 -4t-3 2t-1 4v4q-2 21 -3 45t-4.5 48t-10 47t-19.5 42q-21 32 -61.5 51.5t-91.5 22.5zM161 812l110 120h38l110 -120l-4 -5l-124 77l-126 -77z" />
    <glyph glyph-name="scircumflex" unicode="&#x15d;" horiz-adv-x="408" 
d="M102 327q19 -15 47 -28.5t58.5 -28t60.5 -30t54 -33.5t38.5 -38.5t14.5 -45.5q0 -34 -17.5 -58t-43 -39t-55.5 -21.5t-56 -6.5q-42 0 -80 14t-70 37q-14 10 -14 -7v-40q0 -5 -4 -5q-3 0 -3 6v157q0 6 3 6q4 0 4 -6q-1 -42 19.5 -79t58.5 -56q37 -18 77 -19.5t77 15.5
q28 13 41.5 40.5t3.5 57.5q-9 26 -34.5 45t-58.5 35t-69 31.5t-65 33.5t-47 40.5t-16 53.5q2 27 19 45.5t42 29.5t53.5 16t54.5 4q9 0 25 -1t34.5 -5t38.5 -13t38 -24q4 -3 7 -2t3 5v47v3.5t3 1.5q4 0 4 -6v-157q0 -6 -3 -6q-4 0 -4 6q0 41 -13 68.5t-34 44t-47 24t-52 8.5
q-20 1 -50 -6.5t-50 -23.5q-26 -21 -21.5 -46.5t28.5 -43.5zM67 581l110 120h38l110 -120l-4 -5l-124 77l-126 -77z" />
    <glyph glyph-name="Scedilla" unicode="&#x15e;" horiz-adv-x="534" 
d="M282 690q-18 1 -40 -2t-43 -10t-40.5 -19t-33.5 -29q-16 -19 -22 -39t-3.5 -40.5t13 -39.5t28.5 -35q27 -25 67 -46.5t83 -42.5t85 -43.5t73.5 -50.5t48.5 -63t11 -80q-6 -39 -29.5 -69.5t-56.5 -51.5t-70.5 -31.5t-70.5 -10.5q-55 2 -100 21t-90 49q-16 11 -28.5 -0.5
t-11.5 -40.5v-16h-7v262q0 4 4 4q3 0 3 -2v-4v-4q1 -21 2.5 -42.5t5 -42.5t10 -41.5t19.5 -39.5q14 -21 37 -38t49.5 -29.5t54.5 -19.5t53 -7q34 0 64.5 11t54 30.5t37.5 47t14 60.5q1 41 -28.5 72t-74 57t-97 50t-99 51.5t-78.5 61.5t-36 81q-4 51 18 87t58.5 57.5
t80.5 30.5t85 6q30 0 64.5 -10t85.5 -44q8 -5 15 -8.5t12.5 -2t9 10.5t3.5 29v31h7v-277q0 -4 -3 -4t-3 2t-1 4v4q-2 21 -3 45t-4.5 48t-10 47t-19.5 42q-21 32 -61.5 51.5t-91.5 22.5zM213 -199q28 -9 47.5 -3.5t30.5 19t13.5 32t-3 35.5t-19.5 28.5t-35 11.5
q-9 0 -19 -1.5t-19 -12.5h-7v10l61 78h5l-56 -73q-2 -2 0 -2.5t3 0.5q12 9 32 9.5t39.5 -7t34 -24t15.5 -42.5q1 -30 -13.5 -46.5t-35.5 -22.5t-42.5 -3.5t-33.5 11.5z" />
    <glyph glyph-name="scedilla" unicode="&#x15f;" horiz-adv-x="408" 
d="M102 327q19 -15 47 -28.5t58.5 -28t60.5 -30t54 -33.5t38.5 -38.5t14.5 -45.5q0 -34 -17.5 -58t-43 -39t-55.5 -21.5t-56 -6.5q-42 0 -80 14t-70 37q-14 10 -14 -7v-40q0 -5 -4 -5q-3 0 -3 6v157q0 6 3 6q4 0 4 -6q-1 -42 19.5 -79t58.5 -56q37 -18 77 -19.5t77 15.5
q28 13 41.5 40.5t3.5 57.5q-9 26 -34.5 45t-58.5 35t-69 31.5t-65 33.5t-47 40.5t-16 53.5q2 27 19 45.5t42 29.5t53.5 16t54.5 4q9 0 25 -1t34.5 -5t38.5 -13t38 -24q4 -3 7 -2t3 5v47v3.5t3 1.5q4 0 4 -6v-157q0 -6 -3 -6q-4 0 -4 6q0 41 -13 68.5t-34 44t-47 24t-52 8.5
q-20 1 -50 -6.5t-50 -23.5q-26 -21 -21.5 -46.5t28.5 -43.5zM158 -195q28 -9 47.5 -3.5t30.5 19t13.5 32t-3 35.5t-19.5 28.5t-35 11.5q-9 0 -19 -1.5t-19 -12.5h-7v10l61 78h5l-56 -73q-2 -2 0 -2.5t3 0.5q12 9 32 9.5t39.5 -7t34 -24t15.5 -42.5q1 -30 -13.5 -46.5
t-35.5 -22.5t-42.5 -3.5t-33.5 11.5z" />
    <glyph glyph-name="Scaron" unicode="&#x160;" horiz-adv-x="534" 
d="M282 690q-18 1 -40 -2t-43 -10t-40.5 -19t-33.5 -29q-16 -19 -22 -39t-3.5 -40.5t13 -39.5t28.5 -35q27 -25 67 -46.5t83 -42.5t85 -43.5t73.5 -50.5t48.5 -63t11 -80q-6 -39 -29.5 -69.5t-56.5 -51.5t-70.5 -31.5t-70.5 -10.5q-55 2 -100 21t-90 49q-16 11 -28.5 -0.5
t-11.5 -40.5v-16h-7v262q0 4 4 4q3 0 3 -2v-4v-4q1 -21 2.5 -42.5t5 -42.5t10 -41.5t19.5 -39.5q14 -21 37 -38t49.5 -29.5t54.5 -19.5t53 -7q34 0 64.5 11t54 30.5t37.5 47t14 60.5q1 41 -28.5 72t-74 57t-97 50t-99 51.5t-78.5 61.5t-36 81q-4 51 18 87t58.5 57.5
t80.5 30.5t85 6q30 0 64.5 -10t85.5 -44q8 -5 15 -8.5t12.5 -2t9 10.5t3.5 29v31h7v-277q0 -4 -3 -4t-3 2t-1 4v4q-2 21 -3 45t-4.5 48t-10 47t-19.5 42q-21 32 -61.5 51.5t-91.5 22.5zM415 903l-110 -120h-38l-110 120l4 5l124 -77l126 77z" />
    <glyph glyph-name="scaron" unicode="&#x161;" horiz-adv-x="408" 
d="M102 327q19 -15 47 -28.5t58.5 -28t60.5 -30t54 -33.5t38.5 -38.5t14.5 -45.5q0 -34 -17.5 -58t-43 -39t-55.5 -21.5t-56 -6.5q-42 0 -80 14t-70 37q-14 10 -14 -7v-40q0 -5 -4 -5q-3 0 -3 6v157q0 6 3 6q4 0 4 -6q-1 -42 19.5 -79t58.5 -56q37 -18 77 -19.5t77 15.5
q28 13 41.5 40.5t3.5 57.5q-9 26 -34.5 45t-58.5 35t-69 31.5t-65 33.5t-47 40.5t-16 53.5q2 27 19 45.5t42 29.5t53.5 16t54.5 4q9 0 25 -1t34.5 -5t38.5 -13t38 -24q4 -3 7 -2t3 5v47v3.5t3 1.5q4 0 4 -6v-157q0 -6 -3 -6q-4 0 -4 6q0 41 -13 68.5t-34 44t-47 24t-52 8.5
q-20 1 -50 -6.5t-50 -23.5q-26 -21 -21.5 -46.5t28.5 -43.5zM336 699l-110 -120h-38l-110 120l4 5l124 -77l126 77z" />
    <glyph glyph-name="uni0162" unicode="&#x162;" horiz-adv-x="626" 
d="M138 693q-38 0 -62 -10.5t-37.5 -29.5t-19 -47t-5.5 -62v-40q0 -7 -4 -7.5t-4 7.5v165q0 23 4 27t24 4h541q20 0 23.5 -4t3.5 -27v-165q0 -8 -3.5 -7.5t-3.5 7.5v40q0 34 -5.5 62t-19 47t-38 29.5t-61.5 10.5h-84q-15 0 -24 -0.5t-14.5 -3.5t-7 -10t-1.5 -20v-618
q0 -13 1.5 -20t7 -10t14.5 -3.5t24 -0.5h65q2 0 5.5 -0.5t2.5 -3.5q0 -3 -8 -3h-295q-8 0 -8 3q-1 3 2.5 3.5t5.5 0.5h65q15 0 24 0.5t14.5 3.5t7 10t1.5 20v618q0 13 -1.5 20t-7 10t-14.5 3.5t-24 0.5h-84zM344 -135q0 -27 -16.5 -44.5t-45.5 -18.5q-5 0 -4.5 2.5t3.5 2.5
q25 -2 40.5 15t13.5 40q-1 3 -3 2.5t-2 -2.5q2 -11 -7 -18.5t-22 -7.5q-16 0 -24.5 11t-9.5 25q-1 17 11 27t28 10q18 0 28 -13.5t10 -30.5z" />
    <glyph glyph-name="uni0163" unicode="&#x163;" horiz-adv-x="236" 
d="M230 161q1 -15 0 -38t-3 -45q-3 -17 -7.5 -32t-12.5 -26t-21 -17t-33 -4q-44 3 -65.5 30.5t-24.5 68.5v348h-83q-4 0 -4 3.5t4 3.5h34q55 6 78 54t23 139v20q0 3 3 3q4 0 4 -3v-213h66q5 0 5 -3.5t-5 -3.5h-66v-358q0 -22 7.5 -44.5t26.5 -30.5q9 -4 21.5 -1t20.5 11
q9 9 14 20.5t7.5 24t3.5 24.5t1 21q1 14 0.5 26t-0.5 22q0 5 3 5t3 -5zM185 -135q0 -27 -16.5 -44.5t-45.5 -18.5q-5 0 -4.5 2.5t3.5 2.5q25 -2 40.5 15t13.5 40q-1 3 -3 2.5t-2 -2.5q2 -11 -7 -18.5t-22 -7.5q-16 0 -24.5 11t-9.5 25q-1 17 11 27t28 10q18 0 28 -13.5
t10 -30.5z" />
    <glyph glyph-name="Tcaron" unicode="&#x164;" horiz-adv-x="626" 
d="M138 693q-38 0 -62 -10.5t-37.5 -29.5t-19 -47t-5.5 -62v-40q0 -7 -4 -7.5t-4 7.5v165q0 23 4 27t24 4h541q20 0 23.5 -4t3.5 -27v-165q0 -8 -3.5 -7.5t-3.5 7.5v40q0 34 -5.5 62t-19 47t-38 29.5t-61.5 10.5h-84q-15 0 -24 -0.5t-14.5 -3.5t-7 -10t-1.5 -20v-618
q0 -13 1.5 -20t7 -10t14.5 -3.5t24 -0.5h65q2 0 5.5 -0.5t2.5 -3.5q0 -3 -8 -3h-295q-8 0 -8 3q-1 3 2.5 3.5t5.5 0.5h65q15 0 24 0.5t14.5 3.5t7 10t1.5 20v618q0 13 -1.5 20t-7 10t-14.5 3.5t-24 0.5h-84zM433 893l-110 -120h-38l-110 120l4 5l124 -77l126 77z" />
    <glyph glyph-name="tcaron" unicode="&#x165;" horiz-adv-x="236" 
d="M230 161q1 -15 0 -38t-3 -45q-3 -17 -7.5 -32t-12.5 -26t-21 -17t-33 -4q-44 3 -65.5 30.5t-24.5 68.5v348h-83q-4 0 -4 3.5t4 3.5h34q55 6 78 54t23 139v20q0 3 3 3q4 0 4 -3v-213h66q5 0 5 -3.5t-5 -3.5h-66v-358q0 -22 7.5 -44.5t26.5 -30.5q9 -4 21.5 -1t20.5 11
q9 9 14 20.5t7.5 24t3.5 24.5t1 21q1 14 0.5 26t-0.5 22q0 5 3 5t3 -5zM248.182 671.929q0 -12.4561 -3.77344 -24.4668q-3.77246 -12.0107 -10.4795 -21.3525t-17.6064 -14.6807q-10.8984 -5.33789 -24.3125 -3.55859q-4.19141 0.889648 -3.35352 3.55859t3.35352 2.66895
q20.959 -1.7793 33.9541 13.3457t11.3184 35.5889q-0.838867 2.66895 -2.51465 2.22363q-1.67773 -0.444336 -1.67773 -2.22363q0.838867 -8.00781 -3.77246 -17.3496q-4.61035 -9.3418 -16.3486 -9.3418q-13.4141 0 -23.0547 10.2314q-9.6416 10.2314 -9.6416 25.3564
t9.6416 25.8018q9.64062 10.6768 23.0547 10.6768q15.0918 0 25.1523 -10.6768t10.0605 -25.8018z" />
    <glyph glyph-name="Tbar" unicode="&#x166;" horiz-adv-x="626" 
d="M114 499h382v-13h-382v13zM138 693q-38 0 -62 -10.5t-37.5 -29.5t-19 -47t-5.5 -62v-40q0 -7 -4 -7.5t-4 7.5v165q0 23 4 27t24 4h541q20 0 23.5 -4t3.5 -27v-165q0 -8 -3.5 -7.5t-3.5 7.5v40q0 34 -5.5 62t-19 47t-38 29.5t-61.5 10.5h-84q-15 0 -24 -0.5t-14.5 -3.5
t-7 -10t-1.5 -20v-618q0 -13 1.5 -20t7 -10t14.5 -3.5t24 -0.5h65q2 0 5.5 -0.5t2.5 -3.5q0 -3 -8 -3h-295q-8 0 -8 3q-1 3 2.5 3.5t5.5 0.5h65q15 0 24 0.5t14.5 3.5t7 10t1.5 20v618q0 13 -1.5 20t-7 10t-14.5 3.5t-24 0.5h-84z" />
    <glyph glyph-name="tbar" unicode="&#x167;" horiz-adv-x="236" 
d="M6 313h181v-8h-181v8zM230 161q1 -15 0 -38t-3 -45q-3 -17 -7.5 -32t-12.5 -26t-21 -17t-33 -4q-44 3 -65.5 30.5t-24.5 68.5v348h-83q-4 0 -4 3.5t4 3.5h34q55 6 78 54t23 139v20q0 3 3 3q4 0 4 -3v-213h66q5 0 5 -3.5t-5 -3.5h-66v-358q0 -22 7.5 -44.5t26.5 -30.5
q9 -4 21.5 -1t20.5 11q9 9 14 20.5t7.5 24t3.5 24.5t1 21q1 14 0.5 26t-0.5 22q0 5 3 5t3 -5z" />
    <glyph glyph-name="Utilde" unicode="&#x168;" horiz-adv-x="648" 
d="M663 700q7 0 8 -3q0 -3 -3 -3.5t-5 -0.5h-51q-23 0 -33 -1.5t-13 -12.5v-465q-2 -100 -54 -156t-150 -58q-77 -1 -125.5 18t-76 50.5t-37.5 72t-10 82.5v436q0 13 -1.5 20t-7 10t-14.5 3.5t-24 0.5h-65h-5t-3 3q0 4 8 4h295q8 0 8 -3t-3 -3.5t-5 -0.5h-64
q-15 0 -24.5 -0.5t-14.5 -3.5t-6.5 -10t-1.5 -20v-441q0 -27 6.5 -63t25.5 -68t53.5 -54t90.5 -23q45 -1 82 13.5t62.5 41t39.5 64.5t13 84v466q-3 11 -12.5 12.5t-32.5 1.5h-51q-2 0 -5 0.5t-3 3.5q1 3 8 3h201v0zM498 922q-1 -26 -8 -47t-20.5 -34.5t-33.5 -17t-48 4.5
q-26 8 -56 20.5t-55 16.5t-40.5 -6.5t-12.5 -48.5l-8 -1q-3 20 -1 38t11.5 32t28.5 21.5t49 6.5q14 -1 33 -8t39.5 -15.5t40.5 -14.5t36 -4t26.5 14.5t11.5 42.5h7z" />
    <glyph glyph-name="utilde" unicode="&#x169;" horiz-adv-x="582" 
d="M574 157q0 5 3.5 5t3.5 -5q0 -15 -0.5 -38t-3.5 -45q-2 -17 -6.5 -32t-13 -26t-21.5 -17t-33 -4q-43 4 -65 31t-24 68v46q-10 -29 -26 -55t-38.5 -46.5t-51.5 -32.5t-65 -12q-76 -2 -118.5 34.5t-42.5 114.5v74.5t0.5 79t0.5 78v71.5h-83q-5 0 -5 3.5t5 3.5h116
q21 0 23 -7.5t2 -19.5v-287q0 -55 24.5 -86t82.5 -38q34 -5 64 7.5t53 36t38.5 54t20.5 62.5v271h-83q-5 0 -5 3.5t5 3.5h117q20 0 22 -7.5t2 -18.5v-343q0 -22 7.5 -44.5t27.5 -30.5q8 -3 21 -0.5t21 10.5q8 9 13 20.5t7.5 24t3.5 24.5t1 21q1 14 0.5 26t-0.5 22zM413 683
q-1 -26 -8 -47t-20.5 -34.5t-33.5 -17t-48 4.5q-26 8 -56 20.5t-55 16.5t-40.5 -6.5t-12.5 -48.5l-8 -1q-3 20 -1 38t11.5 32t28.5 21.5t49 6.5q14 -1 33 -8t39.5 -15.5t40.5 -14.5t36 -4t26.5 14.5t11.5 42.5h7z" />
    <glyph glyph-name="Umacron" unicode="&#x16a;" horiz-adv-x="648" 
d="M663 700q7 0 8 -3q0 -3 -3 -3.5t-5 -0.5h-51q-23 0 -33 -1.5t-13 -12.5v-465q-2 -100 -54 -156t-150 -58q-77 -1 -125.5 18t-76 50.5t-37.5 72t-10 82.5v436q0 13 -1.5 20t-7 10t-14.5 3.5t-24 0.5h-65h-5t-3 3q0 4 8 4h295q8 0 8 -3t-3 -3.5t-5 -0.5h-64
q-15 0 -24.5 -0.5t-14.5 -3.5t-6.5 -10t-1.5 -20v-441q0 -27 6.5 -63t25.5 -68t53.5 -54t90.5 -23q45 -1 82 13.5t62.5 41t39.5 64.5t13 84v466q-3 11 -12.5 12.5t-32.5 1.5h-51q-2 0 -5 0.5t-3 3.5q1 3 8 3h201v0zM465 823h-242v31h242v-31z" />
    <glyph glyph-name="umacron" unicode="&#x16b;" horiz-adv-x="579" 
d="M574 157q0 5 3.5 5t3.5 -5q0 -15 -0.5 -38t-3.5 -45q-2 -17 -6.5 -32t-13 -26t-21.5 -17t-33 -4q-43 4 -65 31t-24 68v46q-10 -29 -26 -55t-38.5 -46.5t-51.5 -32.5t-65 -12q-76 -2 -118.5 34.5t-42.5 114.5v74.5t0.5 79t0.5 78v71.5h-83q-5 0 -5 3.5t5 3.5h116
q21 0 23 -7.5t2 -19.5v-287q0 -55 24.5 -86t82.5 -38q34 -5 64 7.5t53 36t38.5 54t20.5 62.5v271h-83q-5 0 -5 3.5t5 3.5h117q20 0 22 -7.5t2 -18.5v-343q0 -22 7.5 -44.5t27.5 -30.5q8 -3 21 -0.5t21 10.5q8 9 13 20.5t7.5 24t3.5 24.5t1 21q1 14 0.5 26t-0.5 22zM390 532
h-242v31h242v-31z" />
    <glyph glyph-name="Ubreve" unicode="&#x16c;" horiz-adv-x="648" 
d="M663 700q7 0 8 -3q0 -3 -3 -3.5t-5 -0.5h-51q-23 0 -33 -1.5t-13 -12.5v-465q-2 -100 -54 -156t-150 -58q-77 -1 -125.5 18t-76 50.5t-37.5 72t-10 82.5v436q0 13 -1.5 20t-7 10t-14.5 3.5t-24 0.5h-65h-5t-3 3q0 4 8 4h295q8 0 8 -3t-3 -3.5t-5 -0.5h-64
q-15 0 -24.5 -0.5t-14.5 -3.5t-6.5 -10t-1.5 -20v-441q0 -27 6.5 -63t25.5 -68t53.5 -54t90.5 -23q45 -1 82 13.5t62.5 41t39.5 64.5t13 84v466q-3 11 -12.5 12.5t-32.5 1.5h-51q-2 0 -5 0.5t-3 3.5q1 3 8 3h201v0zM257 923q5 -34 22 -57.5t39.5 -35.5t48 -12.5t48 10.5
t39 34.5t21.5 60.5l5 -4q4 -45 -12.5 -75t-43.5 -44.5t-59 -14.5t-59 15t-44 44.5t-12 74.5l7 4v0z" />
    <glyph glyph-name="ubreve" unicode="&#x16d;" horiz-adv-x="582" 
d="M574 157q0 5 3.5 5t3.5 -5q0 -15 -0.5 -38t-3.5 -45q-2 -17 -6.5 -32t-13 -26t-21.5 -17t-33 -4q-43 4 -65 31t-24 68v46q-10 -29 -26 -55t-38.5 -46.5t-51.5 -32.5t-65 -12q-76 -2 -118.5 34.5t-42.5 114.5v74.5t0.5 79t0.5 78v71.5h-83q-5 0 -5 3.5t5 3.5h116
q21 0 23 -7.5t2 -19.5v-287q0 -55 24.5 -86t82.5 -38q34 -5 64 7.5t53 36t38.5 54t20.5 62.5v271h-83q-5 0 -5 3.5t5 3.5h117q20 0 22 -7.5t2 -18.5v-343q0 -22 7.5 -44.5t27.5 -30.5q8 -3 21 -0.5t21 10.5q8 9 13 20.5t7.5 24t3.5 24.5t1 21q1 14 0.5 26t-0.5 22zM139 702
q5 -34 22 -57.5t39.5 -35.5t48 -12.5t48 10.5t39 34.5t21.5 60.5l5 -4q4 -45 -12.5 -75t-43.5 -44.5t-59 -14.5t-59 15t-44 44.5t-12 74.5l7 4v0z" />
    <glyph glyph-name="Uring" unicode="&#x16e;" horiz-adv-x="648" 
d="M663 700q7 0 8 -3q0 -3 -3 -3.5t-5 -0.5h-51q-23 0 -33 -1.5t-13 -12.5v-465q-2 -100 -54 -156t-150 -58q-77 -1 -125.5 18t-76 50.5t-37.5 72t-10 82.5v436q0 13 -1.5 20t-7 10t-14.5 3.5t-24 0.5h-65h-5t-3 3q0 4 8 4h295q8 0 8 -3t-3 -3.5t-5 -0.5h-64
q-15 0 -24.5 -0.5t-14.5 -3.5t-6.5 -10t-1.5 -20v-441q0 -27 6.5 -63t25.5 -68t53.5 -54t90.5 -23q45 -1 82 13.5t62.5 41t39.5 64.5t13 84v466q-3 11 -12.5 12.5t-32.5 1.5h-51q-2 0 -5 0.5t-3 3.5q1 3 8 3h201v0zM283 848q0 41 26 70t72 29q45 0 71.5 -27.5t26.5 -68.5
q0 -42 -26.5 -69t-71.5 -27q-46 0 -72 25.5t-26 67.5zM315 846q0 -34 15.5 -59t50.5 -25q17 0 29 7.5t20 20t12 28.5t4 33q0 15 -3.5 31t-11 29t-20 21t-30.5 8q-19 0 -32 -9t-20.5 -22.5t-10.5 -30t-3 -32.5z" />
    <glyph glyph-name="uring" unicode="&#x16f;" horiz-adv-x="582" 
d="M574 157q0 5 3.5 5t3.5 -5q0 -15 -0.5 -38t-3.5 -45q-2 -17 -6.5 -32t-13 -26t-21.5 -17t-33 -4q-43 4 -65 31t-24 68v46q-10 -29 -26 -55t-38.5 -46.5t-51.5 -32.5t-65 -12q-76 -2 -118.5 34.5t-42.5 114.5v74.5t0.5 79t0.5 78v71.5h-83q-5 0 -5 3.5t5 3.5h116
q21 0 23 -7.5t2 -19.5v-287q0 -55 24.5 -86t82.5 -38q34 -5 64 7.5t53 36t38.5 54t20.5 62.5v271h-83q-5 0 -5 3.5t5 3.5h117q20 0 22 -7.5t2 -18.5v-343q0 -22 7.5 -44.5t27.5 -30.5q8 -3 21 -0.5t21 10.5q8 9 13 20.5t7.5 24t3.5 24.5t1 21q1 14 0.5 26t-0.5 22zM148 599
q0 41 26 70t72 29q45 0 71.5 -27.5t26.5 -68.5q0 -42 -26.5 -69t-71.5 -27q-46 0 -72 25.5t-26 67.5zM180 597q0 -34 15.5 -59t50.5 -25q17 0 29 7.5t20 20t12 28.5t4 33q0 15 -3.5 31t-11 29t-20 21t-30.5 8q-19 0 -32 -9t-20.5 -22.5t-10.5 -30t-3 -32.5z" />
    <glyph glyph-name="Uhungarumlaut" unicode="&#x170;" horiz-adv-x="648" 
d="M663 700q7 0 8 -3q0 -3 -3 -3.5t-5 -0.5h-51q-23 0 -33 -1.5t-13 -12.5v-465q-2 -100 -54 -156t-150 -58q-77 -1 -125.5 18t-76 50.5t-37.5 72t-10 82.5v436q0 13 -1.5 20t-7 10t-14.5 3.5t-24 0.5h-65h-5t-3 3q0 4 8 4h295q8 0 8 -3t-3 -3.5t-5 -0.5h-64
q-15 0 -24.5 -0.5t-14.5 -3.5t-6.5 -10t-1.5 -20v-441q0 -27 6.5 -63t25.5 -68t53.5 -54t90.5 -23q45 -1 82 13.5t62.5 41t39.5 64.5t13 84v466q-3 11 -12.5 12.5t-32.5 1.5h-51q-2 0 -5 0.5t-3 3.5q1 3 8 3h201v0zM250 885q11 17 20.5 29.5t27.5 14.5q1 0 6.5 0.5t12 -1.5
t12 -7.5t6.5 -17.5q2 -15 -12.5 -28t-35.5 -26q-9 -6 -25 -17.5t-32 -22.5q-18 -13 -39 -28q-10 -5 -5 4zM420 885q11 17 20.5 29.5t27.5 14.5q1 0 6.5 0.5t12 -1.5t12 -7.5t6.5 -17.5q2 -15 -12.5 -28t-35.5 -26q-9 -6 -25 -17.5t-32 -22.5q-18 -13 -39 -28q-10 -5 -5 4z
" />
    <glyph glyph-name="uhungarumlaut" unicode="&#x171;" horiz-adv-x="582" 
d="M574 157q0 5 3.5 5t3.5 -5q0 -15 -0.5 -38t-3.5 -45q-2 -17 -6.5 -32t-13 -26t-21.5 -17t-33 -4q-43 4 -65 31t-24 68v46q-10 -29 -26 -55t-38.5 -46.5t-51.5 -32.5t-65 -12q-76 -2 -118.5 34.5t-42.5 114.5v74.5t0.5 79t0.5 78v71.5h-83q-5 0 -5 3.5t5 3.5h116
q21 0 23 -7.5t2 -19.5v-287q0 -55 24.5 -86t82.5 -38q34 -5 64 7.5t53 36t38.5 54t20.5 62.5v271h-83q-5 0 -5 3.5t5 3.5h117q20 0 22 -7.5t2 -18.5v-343q0 -22 7.5 -44.5t27.5 -30.5q8 -3 21 -0.5t21 10.5q8 9 13 20.5t7.5 24t3.5 24.5t1 21q1 14 0.5 26t-0.5 22zM181 660
q11 17 20.5 29.5t27.5 14.5q1 0 6.5 0.5t12 -1.5t12 -7.5t6.5 -17.5q2 -15 -12.5 -28t-35.5 -26q-9 -6 -25 -17.5t-32 -22.5q-18 -13 -39 -28q-10 -5 -5 4zM351 660q11 17 20.5 29.5t27.5 14.5q1 0 6.5 0.5t12 -1.5t12 -7.5t6.5 -17.5q2 -15 -12.5 -28t-35.5 -26
q-9 -6 -25 -17.5t-32 -22.5q-18 -13 -39 -28q-10 -5 -5 4z" />
    <glyph glyph-name="Uogonek" unicode="&#x172;" horiz-adv-x="648" 
d="M663 700q7 0 8 -3q0 -3 -3 -3.5t-5 -0.5h-51q-23 0 -33 -1.5t-13 -12.5v-465q-2 -100 -54 -156t-150 -58q-77 -1 -125.5 18t-76 50.5t-37.5 72t-10 82.5v436q0 13 -1.5 20t-7 10t-14.5 3.5t-24 0.5h-65h-5t-3 3q0 4 8 4h295q8 0 8 -3t-3 -3.5t-5 -0.5h-64
q-15 0 -24.5 -0.5t-14.5 -3.5t-6.5 -10t-1.5 -20v-441q0 -27 6.5 -63t25.5 -68t53.5 -54t90.5 -23q45 -1 82 13.5t62.5 41t39.5 64.5t13 84v466q-3 11 -12.5 12.5t-32.5 1.5h-51q-2 0 -5 0.5t-3 3.5q1 3 8 3h201v0zM416 7q-41 2 -66 -15t-35.5 -41.5t-7 -50.5t18.5 -43
t41 -19t62 22l3 -2q-12 -27 -37 -38.5t-51 -8.5t-46 21.5t-21 51.5q-1 26 9 50t28.5 42t44 28t57.5 8v-5z" />
    <glyph glyph-name="uogonek" unicode="&#x173;" horiz-adv-x="582" 
d="M574 157q0 5 3.5 5t3.5 -5q0 -15 -0.5 -38t-3.5 -45q-2 -17 -6.5 -32t-13 -26t-21.5 -17t-33 -4q-43 4 -65 31t-24 68v46q-10 -29 -26 -55t-38.5 -46.5t-51.5 -32.5t-65 -12q-76 -2 -118.5 34.5t-42.5 114.5v74.5t0.5 79t0.5 78v71.5h-83q-5 0 -5 3.5t5 3.5h116
q21 0 23 -7.5t2 -19.5v-287q0 -55 24.5 -86t82.5 -38q34 -5 64 7.5t53 36t38.5 54t20.5 62.5v271h-83q-5 0 -5 3.5t5 3.5h117q20 0 22 -7.5t2 -18.5v-343q0 -22 7.5 -44.5t27.5 -30.5q8 -3 21 -0.5t21 10.5q8 9 13 20.5t7.5 24t3.5 24.5t1 21q1 14 0.5 26t-0.5 22zM533 2
q-41 2 -66 -15t-35.5 -41.5t-7 -50.5t18.5 -43t41 -19t62 22l3 -2q-12 -27 -37 -38.5t-51 -8.5t-46 21.5t-21 51.5q-1 26 9 50t28.5 42t44 28t57.5 8v-5z" />
    <glyph glyph-name="Wcircumflex" unicode="&#x174;" horiz-adv-x="934" 
d="M367 677q-2 8 -9.5 12t-15.5 4h-9q-7 0 -7 4q1 3 7 3h195q8 0 7.5 -3.5t-7.5 -3.5h-71q-19 0 -14 -14l233 -582l229 546q11 27 -5 38.5t-51 11.5h-52q-5 0 -4.5 3.5t5.5 3.5h235q5 0 5.5 -3.5t-5.5 -3.5h-47q-29 0 -42.5 -12.5t-23.5 -34.5l-272 -639q-5 -11 -8 1
l-171 421l-176 -422q-4 -10 -9 1l-269 669q-3 8 -10.5 12t-15.5 4h-9q-7 0 -7 4q0 3 7 3h195q8 0 7.5 -3.5t-7.5 -3.5h-71q-9 0 -13 -3t0 -11l232 -575l140 340zM345 812l110 120h38l110 -120l-4 -5l-124 77l-126 -77z" />
    <glyph glyph-name="wcircumflex" unicode="&#x175;" horiz-adv-x="858" 
d="M281 17l137 336l-27 66q-11 16 -20 21.5t-25 5.5h-35q-7 0 -6.5 3.5t7.5 3.5h192q5 0 6 -3.5t-6 -3.5h-44h-4t-5.5 -1.5t-3 -4.5t2.5 -8l173 -415l170 416q2 5 1 8t-3.5 4t-5 1h-3.5h-101q-8 0 -8.5 3.5t7.5 3.5h212q6 0 6 -3.5t-6 -3.5h-59q-19 0 -24 -3.5t-10 -14.5
l-173 -428h-57l-146 343l-139 -343h-57l-178 419q-11 16 -20 21.5t-25 5.5h-35q-7 0 -6.5 3.5t7.5 3.5h192q5 0 6 -3.5t-6 -3.5h-44h-4t-5.5 -1.5t-3 -4.5t2.5 -8zM300 578l110 120h38l110 -120l-4 -5l-124 77l-126 -77z" />
    <glyph glyph-name="Ycircumflex" unicode="&#x176;" horiz-adv-x="559" 
d="M60 677q-8 11 -16 13.5t-16 2.5h-18q-7 0 -7 4q0 3 7 3h214q8 0 7.5 -3.5t-7.5 -3.5h-67q-19 0 -14 -14l216 -370l165 348q12 26 2 31t-34 5h-85q-5 0 -5 3.5t5 3.5h236q5 0 5 -3.5t-5 -3.5h-48q-28 0 -40.5 -13t-22.5 -34l-166 -349v-256q0 -13 1.5 -20t7 -10t14.5 -3.5
t24 -0.5h65h5t3 -4q-1 -3 -8 -3h-295q-8 0 -8 3q-1 4 2.5 4h5.5h64q15 0 24.5 0.5t14.5 3.5t6.5 10t1.5 20v235zM237 812l110 120h38l110 -120l-4 -5l-124 77l-126 -77z" />
    <glyph glyph-name="ycircumflex" unicode="&#x177;" horiz-adv-x="491" 
d="M308 68l144 366q2 5 1 7.5t-3.5 3.5t-5 1h-3.5h-30q-8 0 -8.5 3.5t7.5 3.5h121q5 0 5 -3.5t-6 -3.5h-38q-19 0 -24 -3.5t-10 -14.5l-223 -573q-8 -21 -19 -41.5t-33 -31.5q-11 -6 -24.5 -8t-26.5 0t-24.5 8t-18.5 18q-8 12 -8.5 27.5t6 29t19.5 23t32 8.5q15 -1 25 -7.5
t14 -16.5t2 -20.5t-9 -19.5q-4 -4 -9.5 -1.5t-11.5 1.5q-7 -1 -11 -5.5t-5 -9.5t2 -10t11 -6q15 -3 28 3t23 16.5t17.5 23.5t12.5 25l69 176h-37l-190 382q-10 16 -19.5 21.5t-24.5 5.5h-36q-6 0 -5.5 3.5t7.5 3.5h180q5 0 6 -3.5t-6 -3.5h-33h-4t-5 -1.5t-3 -4.5t3 -8z
M160 581l110 120h38l110 -120l-4 -5l-124 77l-126 -77z" />
    <glyph glyph-name="Ydieresis" unicode="&#x178;" horiz-adv-x="559" 
d="M60 677q-8 11 -16 13.5t-16 2.5h-18q-7 0 -7 4q0 3 7 3h214q8 0 7.5 -3.5t-7.5 -3.5h-67q-19 0 -14 -14l216 -370l165 348q12 26 2 31t-34 5h-85q-5 0 -5 3.5t5 3.5h236q5 0 5 -3.5t-5 -3.5h-48q-28 0 -40.5 -13t-22.5 -34l-166 -349v-256q0 -13 1.5 -20t7 -10t14.5 -3.5
t24 -0.5h65h5t3 -4q-1 -3 -8 -3h-295q-8 0 -8 3q-1 4 2.5 4h5.5h64q15 0 24.5 0.5t14.5 3.5t6.5 10t1.5 20v235zM359 802q0 18 13 31t33 13q19 0 32 -13t13 -31t-13 -31t-32 -13q-20 0 -33 13t-13 31zM212 802q0 18 13 31t32 13q20 0 33 -13t13 -31t-13 -31t-33 -13
q-19 0 -32 13t-13 31z" />
    <glyph glyph-name="Zacute" unicode="&#x179;" horiz-adv-x="615" 
d="M167 693q-31 0 -55.5 -10.5t-41 -28t-25.5 -39t-9 -43.5v-115q0 -6 -3 -6q-4 -2 -4 5v221q0 11 2.5 17t11.5 6h531q5 0 4 -3.5t-3 -6.5l-494 -683h372q37 0 62.5 15t40.5 39t21.5 54.5t6.5 62.5v112q0 6 4 6q4 2 4 -5v-268q0 -11 -3 -17t-12 -6h-578q-5 0 -5.5 3t1.5 7
l490 683h-318zM349 881q12 16 20 25.5t26 11.5q1 0 6.5 0.5t12 -1.5t12 -7.5t6.5 -17.5q2 -15 -11.5 -29.5t-34.5 -27.5q-9 -6 -28 -16.5t-38 -21.5q-22 -12 -47 -27q-10 -5 -5 4z" />
    <glyph glyph-name="zacute" unicode="&#x17a;" horiz-adv-x="477" 
d="M321 6q21 0 47.5 6t40.5 18q15 13 20.5 30.5t6.5 36.5l1 83q0 3 0.5 6t3.5 3t3 -7v-139v-21.5t-3 -13.5t-10 -7t-20 -2l-371 1q-11 0 -13 9t3 13l349 424h-200q-56 0 -83 -12t-38 -29t-11 -37.5t-2 -36.5v-72q0 -7 -3 -7t-3 7v178q1 5 4.5 11t17.5 5h389q4 0 4.5 -3
t-1.5 -5l-355 -439h223zM252 663q12 16 20 25.5t26 11.5q1 0 6.5 0.5t12 -1.5t12 -7.5t6.5 -17.5q2 -15 -11.5 -29.5t-34.5 -27.5q-9 -6 -28 -16.5t-38 -21.5q-22 -12 -47 -27q-10 -5 -5 4z" />
    <glyph glyph-name="Zdotaccent" unicode="&#x17b;" horiz-adv-x="615" 
d="M167 693q-31 0 -55.5 -10.5t-41 -28t-25.5 -39t-9 -43.5v-115q0 -6 -3 -6q-4 -2 -4 5v221q0 11 2.5 17t11.5 6h531q5 0 4 -3.5t-3 -6.5l-494 -683h372q37 0 62.5 15t40.5 39t21.5 54.5t6.5 62.5v112q0 6 4 6q4 2 4 -5v-268q0 -11 -3 -17t-12 -6h-578q-5 0 -5.5 3t1.5 7
l490 683h-318zM374 900q17 0 27 -10.5t10 -26.5q0 -15 -10 -25.5t-27 -10.5q-15 0 -25.5 10.5t-10.5 25.5q0 16 10.5 26.5t25.5 10.5z" />
    <glyph glyph-name="zdotaccent" unicode="&#x17c;" horiz-adv-x="477" 
d="M321 6q21 0 47.5 6t40.5 18q15 13 20.5 30.5t6.5 36.5l1 83q0 3 0.5 6t3.5 3t3 -7v-139v-21.5t-3 -13.5t-10 -7t-20 -2l-371 1q-11 0 -13 9t3 13l349 424h-200q-56 0 -83 -12t-38 -29t-11 -37.5t-2 -36.5v-72q0 -7 -3 -7t-3 7v178q1 5 4.5 11t17.5 5h389q4 0 4.5 -3
t-1.5 -5l-355 -439h223zM250 658q17 0 27 -10.5t10 -26.5q0 -15 -10 -25.5t-27 -10.5q-15 0 -25.5 10.5t-10.5 25.5q0 16 10.5 26.5t25.5 10.5z" />
    <glyph glyph-name="Zcaron" unicode="&#x17d;" horiz-adv-x="615" 
d="M167 693q-31 0 -55.5 -10.5t-41 -28t-25.5 -39t-9 -43.5v-115q0 -6 -3 -6q-4 -2 -4 5v221q0 11 2.5 17t11.5 6h531q5 0 4 -3.5t-3 -6.5l-494 -683h372q37 0 62.5 15t40.5 39t21.5 54.5t6.5 62.5v112q0 6 4 6q4 2 4 -5v-268q0 -11 -3 -17t-12 -6h-578q-5 0 -5.5 3t1.5 7
l490 683h-318zM498 903l-110 -120h-38l-110 120l4 5l124 -77l126 77z" />
    <glyph glyph-name="zcaron" unicode="&#x17e;" horiz-adv-x="477" 
d="M321 6q21 0 47.5 6t40.5 18q15 13 20.5 30.5t6.5 36.5l1 83q0 3 0.5 6t3.5 3t3 -7v-139v-21.5t-3 -13.5t-10 -7t-20 -2l-371 1q-11 0 -13 9t3 13l349 424h-200q-56 0 -83 -12t-38 -29t-11 -37.5t-2 -36.5v-72q0 -7 -3 -7t-3 7v178q1 5 4.5 11t17.5 5h389q4 0 4.5 -3
t-1.5 -5l-355 -439h223zM386 693l-110 -120h-38l-110 120l4 5l124 -77l126 77z" />
    <glyph glyph-name="florin" unicode="&#x192;" horiz-adv-x="479" 
d="M385 595h5q31 -4 45.5 10.5t14 34t-16 36t-44.5 17.5q-38 0 -65 -22.5t-42.5 -56t-20.5 -71t1 -66.5q1 -4 1 -4.5t-1 -5.5l-3 -14h105h6t2 -3t-4 -3.5t-6 -0.5h-105l-99 -464q-11 -51 -32 -100t-51.5 -87t-70 -60.5t-86.5 -20.5q-36 1 -59 14t-34.5 32t-11.5 41t9 42.5
t27 36t43 20.5q19 4 32 -2t19.5 -17.5t5 -26t-10.5 -27.5q-7 -10 -11.5 -9.5t-10 4t-13.5 8t-22 1.5q-21 -3 -31 -21t-6 -38.5t22 -37t53 -17.5q32 -1 57 13.5t44 38.5t33 54.5t24 62.5t17 62t12 53q12 60 23.5 114.5t23 108.5t23 108.5t24.5 114.5h-89q-7 -1 -6 2.5t6 3.5
h90l7 36q5 28 17.5 64t34.5 68t54 54t76 22q19 0 34 -8.5t24.5 -23.5t11 -34t-6.5 -40q-7 -17 -21.5 -32.5t-39.5 -12.5q-16 2 -21 10t-3.5 17t7 16t10.5 6z" />
    <glyph glyph-name="AEacute" unicode="&#x1fc;" horiz-adv-x="969" 
d="M46 7q28 0 41 12.5t22 34.5l274 646h529q10 0 12.5 -6t2.5 -17v-174q0 -5 -4 -5q-2 1 -2.5 1.5t-0.5 5.5l-1 103q0 44 -23.5 64.5t-85.5 20.5l-235 -1l1 -323h91q43 0 61.5 25t16.5 66v36q0 7 4 6.5t4 -7.5v-256q0 -7 -4 -8t-4 6v36q2 41 -16.5 66t-61.5 25h-91v-4v-353
h266q30 2 52 8t33 26q8 15 10 31.5t2 36.5v172q0 8 4 8t4 -8v-251q0 -22 -4 -26t-24 -4h-527h-5t-3 3q0 3 3 3.5t5 0.5h65q15 0 24 0.5t14.5 3.5t7 10t1.5 20v172l-319 -1l-66 -155q-11 -27 6.5 -38.5t51.5 -11.5h67q5 0 4.5 -3.5t-5.5 -3.5h-249q-5 0 -5.5 3.5t4.5 3.5h53z
M504 220v437q0 24 -5.5 30t-28.5 6h-79h-1l-25 -57l-123 -287l-54 -129h316zM504 881q12 16 20 25.5t26 11.5q1 0 6.5 0.5t12 -1.5t12 -7.5t6.5 -17.5q2 -15 -11.5 -29.5t-34.5 -27.5q-9 -6 -28 -16.5t-38 -21.5q-22 -12 -47 -27q-10 -5 -5 4z" />
    <glyph glyph-name="aeacute" unicode="&#x1fd;" horiz-adv-x="733" 
d="M722 99q-37 -54 -93 -77.5t-113 -19.5q-54 3 -99 33.5t-68 82.5q-13 -27 -34 -50t-47 -39t-56 -24t-61 -5q-41 1 -68.5 12.5t-41.5 36.5q-8 15 -10 34.5t2 36.5q5 23 20 39.5t36 28.5t46 20.5t50 16.5q18 5 39.5 11.5t43 15t41 19.5t33.5 24v57q0 19 -7.5 36t-20 30.5
t-28.5 21.5t-32 8q-52 0 -80.5 -17t-36.5 -38q-4 -11 -3.5 -21t5 -16t12 -7.5t18.5 4.5q3 2 5 2t5 -3q6 -7 6.5 -18.5t-4.5 -22.5t-15 -19.5t-26 -8.5q-24 0 -37.5 11.5t-19 28t-2.5 35t12 30.5q13 18 33 30t42.5 19.5t44.5 11t39 4.5q51 2 85 -14.5t50 -53.5q25 32 63 50
t92 19q48 0 83.5 -17t58.5 -47.5t33 -72t7 -89.5q0 -10 -11 -10h-312q0 -26 1.5 -50t6.5 -41q12 -45 42.5 -79t82.5 -38q26 -2 54 5t53 20t45.5 31t32.5 38q2 4 4 0q1 -1 -1 -5zM342 289q-15 -12 -34.5 -23t-40.5 -21t-41.5 -17.5t-36.5 -13.5q-42 -14 -62.5 -33t-25.5 -55
q-2 -14 -1.5 -31t5.5 -31q8 -23 28.5 -39t55.5 -14q30 1 57 13t48 29t34 36t14 33v167zM675 225q1 37 -1 74t-12.5 67.5t-33 52t-61.5 27.5q-33 5 -60.5 -4t-48 -28.5t-34 -47.5t-18.5 -60q-2 -16 -3.5 -37t-1.5 -44h274zM374 681q12 16 20 25.5t26 11.5q1 0 6.5 0.5
t12 -1.5t12 -7.5t6.5 -17.5q2 -15 -11.5 -29.5t-34.5 -27.5q-9 -6 -28 -16.5t-38 -21.5q-22 -12 -47 -27q-10 -5 -5 4z" />
    <glyph glyph-name="Oslashacute" unicode="&#x1fe;" 
d="M556 374q0 67 -13 125.5t-40.5 101.5t-70 67.5t-100.5 23.5q-59 1 -101 -23.5t-69.5 -67.5t-40.5 -101.5t-13 -125.5v-48q0 -68 13 -126t40.5 -101t69.5 -67.5t101 -23.5q58 -1 100.5 23.5t70 67.5t40.5 101t13 126v48zM30 350q-3 65 17 128t59.5 112.5t97 79.5t128.5 30
t128 -30t97 -79.5t60 -112.5t17 -128q0 -67 -20 -130.5t-58 -112t-94.5 -78t-129.5 -29.5q-71 0 -128.5 30t-97 79.5t-59.5 112.5t-17 128zM364 881q12 16 20 25.5t26 11.5q1 0 6.5 0.5t12 -1.5t12 -7.5t6.5 -17.5q2 -15 -11.5 -29.5t-34.5 -27.5q-9 -6 -28 -16.5t-38 -21.5
q-22 -12 -47 -27q-10 -5 -5 4zM194 -12l261 714h12l-261 -714h-12z" />
    <glyph glyph-name="oslashacute" unicode="&#x1ff;" horiz-adv-x="484" 
d="M158 -27l219 486h9l-219 -486h-9zM242 454q46 -2 85 -16.5t67.5 -43t44 -70.5t13.5 -97q2 -55 -13.5 -97t-44 -70.5t-67.5 -43.5t-85 -16q-45 1 -84 16t-67.5 43.5t-44 70.5t-13.5 97q-2 55 13.5 97t44 70.5t67.5 43t84 16.5zM390 228q1 111 -34.5 165t-113.5 56
q-77 -2 -112.5 -56t-34.5 -165q0 -39 5 -78.5t20.5 -71t44.5 -52t77 -21.5q48 1 77.5 21.5t45 52t20.5 71t5 78.5zM267 661q12 16 20 25.5t26 11.5q1 0 6.5 0.5t12 -1.5t12 -7.5t6.5 -17.5q2 -15 -11.5 -29.5t-34.5 -27.5q-9 -6 -28 -16.5t-38 -21.5q-22 -12 -47 -27
q-10 -5 -5 4z" />
    <glyph glyph-name="uni0218" unicode="&#x218;" horiz-adv-x="534" 
d="M282 690q-18 1 -40 -2t-43 -10t-40.5 -19t-33.5 -29q-16 -19 -22 -39t-3.5 -40.5t13 -39.5t28.5 -35q27 -25 67 -46.5t83 -42.5t85 -43.5t73.5 -50.5t48.5 -63t11 -80q-6 -39 -29.5 -69.5t-56.5 -51.5t-70.5 -31.5t-70.5 -10.5q-55 2 -100 21t-90 49q-16 11 -28.5 -0.5
t-11.5 -40.5v-16h-7v262q0 4 4 4q3 0 3 -2v-4v-4q1 -21 2.5 -42.5t5 -42.5t10 -41.5t19.5 -39.5q14 -21 37 -38t49.5 -29.5t54.5 -19.5t53 -7q34 0 64.5 11t54 30.5t37.5 47t14 60.5q1 41 -28.5 72t-74 57t-97 50t-99 51.5t-78.5 61.5t-36 81q-4 51 18 87t58.5 57.5
t80.5 30.5t85 6q30 0 64.5 -10t85.5 -44q8 -5 15 -8.5t12.5 -2t9 10.5t3.5 29v31h7v-277q0 -4 -3 -4t-3 2t-1 4v4q-2 21 -3 45t-4.5 48t-10 47t-19.5 42q-21 32 -61.5 51.5t-91.5 22.5zM327 -135q0 -27 -16.5 -44.5t-45.5 -18.5q-5 0 -4.5 2.5t3.5 2.5q25 -2 40.5 15
t13.5 40q-1 3 -3 2.5t-2 -2.5q2 -11 -7 -18.5t-22 -7.5q-16 0 -24.5 11t-9.5 25q-1 17 11 27t28 10q18 0 28 -13.5t10 -30.5z" />
    <glyph glyph-name="uni0219" unicode="&#x219;" horiz-adv-x="408" 
d="M102 327q19 -15 47 -28.5t58.5 -28t60.5 -30t54 -33.5t38.5 -38.5t14.5 -45.5q0 -34 -17.5 -58t-43 -39t-55.5 -21.5t-56 -6.5q-42 0 -80 14t-70 37q-14 10 -14 -7v-40q0 -5 -4 -5q-3 0 -3 6v157q0 6 3 6q4 0 4 -6q-1 -42 19.5 -79t58.5 -56q37 -18 77 -19.5t77 15.5
q28 13 41.5 40.5t3.5 57.5q-9 26 -34.5 45t-58.5 35t-69 31.5t-65 33.5t-47 40.5t-16 53.5q2 27 19 45.5t42 29.5t53.5 16t54.5 4q9 0 25 -1t34.5 -5t38.5 -13t38 -24q4 -3 7 -2t3 5v47v3.5t3 1.5q4 0 4 -6v-157q0 -6 -3 -6q-4 0 -4 6q0 41 -13 68.5t-34 44t-47 24t-52 8.5
q-20 1 -50 -6.5t-50 -23.5q-26 -21 -21.5 -46.5t28.5 -43.5zM237 -135q0 -27 -16.5 -44.5t-45.5 -18.5q-5 0 -4.5 2.5t3.5 2.5q25 -2 40.5 15t13.5 40q-1 3 -3 2.5t-2 -2.5q2 -11 -7 -18.5t-22 -7.5q-16 0 -24.5 11t-9.5 25q-1 17 11 27t28 10q18 0 28 -13.5t10 -30.5z" />
    <glyph glyph-name="uni0237" unicode="&#x237;" horiz-adv-x="216" 
d="M31 -285q21 2 35.5 11t24 22.5t14 29t4.5 30.5q1 18 -2.5 34.5t-8 33t-8.5 33t-4 34.5v503h-83q-5 0 -4.5 3.5t4.5 3.5h117q20 0 22 -8t2 -19l1 -502q0 -27 -2.5 -63.5t-14 -69.5t-34.5 -56.5t-64 -25.5q-34 1 -55 13t-31 29t-10 36t8 35t24 26t37 9q20 -1 29 -9.5
t11 -19.5t-1 -21.5t-6 -14.5q-3 -3 -6.5 -2t-6.5 2q-17 5 -33 -4.5t-15 -29.5q2 -20 16.5 -32.5t39.5 -10.5z" />
    <glyph glyph-name="circumflex" unicode="&#x2c6;" horiz-adv-x="328" 
d="M35 612l110 120h38l110 -120l-4 -5l-124 77l-126 -77z" />
    <glyph glyph-name="caron" unicode="&#x2c7;" horiz-adv-x="328" 
d="M293 703l-110 -120h-38l-110 120l4 5l124 -77l126 77z" />
    <glyph glyph-name="breve" unicode="&#x2d8;" horiz-adv-x="292" 
d="M38 723q5 -34 22 -57.5t39.5 -35.5t48 -12.5t48 10.5t39 34.5t21.5 60.5l5 -4q4 -45 -12.5 -75t-43.5 -44.5t-59 -14.5t-59 15t-44 44.5t-12 74.5l7 4v0z" />
    <glyph glyph-name="dotaccent" unicode="&#x2d9;" horiz-adv-x="113" 
d="M56 700q17 0 27 -10.5t10 -26.5q0 -15 -10 -25.5t-27 -10.5q-15 0 -25.5 10.5t-10.5 25.5q0 16 10.5 26.5t25.5 10.5z" />
    <glyph glyph-name="ring" unicode="&#x2da;" horiz-adv-x="245" 
d="M25 648q0 41 26 70t72 29q45 0 71.5 -27.5t26.5 -68.5q0 -42 -26.5 -69t-71.5 -27q-46 0 -72 25.5t-26 67.5zM57 646q0 -34 15.5 -59t50.5 -25q17 0 29 7.5t20 20t12 28.5t4 33q0 15 -3.5 31t-11 29t-20 21t-30.5 8q-19 0 -32 -9t-20.5 -22.5t-10.5 -30t-3 -32.5z" />
    <glyph glyph-name="ogonek" unicode="&#x2db;" horiz-adv-x="195" 
d="M163 8q-41 2 -66 -15t-35.5 -41.5t-7 -50.5t18.5 -43t41 -19t62 22l3 -2q-12 -27 -37 -38.5t-51 -8.5t-46 21.5t-21 51.5q-1 26 9 50t28.5 42t44 28t57.5 8v-5z" />
    <glyph glyph-name="tilde" unicode="&#x2dc;" horiz-adv-x="324" 
d="M304 722q-1 -26 -8 -47t-20.5 -34.5t-33.5 -17t-48 4.5q-26 8 -56 20.5t-55 16.5t-40.5 -6.5t-12.5 -48.5l-8 -1q-3 20 -1 38t11.5 32t28.5 21.5t49 6.5q14 -1 33 -8t39.5 -15.5t40.5 -14.5t36 -4t26.5 14.5t11.5 42.5h7z" />
    <glyph glyph-name="hungarumlaut" unicode="&#x2dd;" horiz-adv-x="374" 
d="M95 685q11 17 20.5 29.5t27.5 14.5q1 0 6.5 0.5t12 -1.5t12 -7.5t6.5 -17.5q2 -15 -12.5 -28t-35.5 -26q-9 -6 -25 -17.5t-32 -22.5q-18 -13 -39 -28q-10 -5 -5 4zM265 685q11 17 20.5 29.5t27.5 14.5q1 0 6.5 0.5t12 -1.5t12 -7.5t6.5 -17.5q2 -15 -12.5 -28t-35.5 -26
q-9 -6 -25 -17.5t-32 -22.5q-18 -13 -39 -28q-10 -5 -5 4z" />
    <glyph glyph-name="Sigma" unicode="&#x3a3;" horiz-adv-x="631" 
d="M27 4q-8 0 -8 6.5t4 10.5l260 325l-233 343q-2 2 -2 5t4 3h526q14 1 17.5 -5t5.5 -11v-178q0 -7 -4 -7q-3 0 -3 7v72q-2 16 -2 36.5t-10.5 38t-37.5 29.5t-83 12h-338l198 -313l-255 -317h75.5h90.5t94 0.5t87.5 0.5h70h42.5q24 0 38 13t20.5 32t8.5 41t2 40l1 5l5 2
v-159q0 -19 -5 -27t-22 -8l-547 3v0z" />
    </font>
</defs>
</svg>
